BorgSansMonob.sfdir
StartChar: exclam
Encoding: 33 33 36
Width: 600
GlyphClass: 2
Flags: W
LayerCount: 2
Fore
SplineSet
257 188 m 1,0,-1
 231 729 l 1,1,-1
 370 729 l 1,2,-1
 344 188 l 1,3,-1
 257 188 l 1,0,-1
300 137 m 0,4,5
 333 137 333 137 352 120 c 0,6,7
 376 99 376 99 376 54 c 0,8,9
 376 19 376 19 361 -1 c 0,10,11
 341 -28 341 -28 299.5 -28.5 c 128,-1,12
 258 -29 258 -29 238 -1 c 0,13,14
 223 20 223 20 223 54.5 c 128,-1,15
 223 89 223 89 238 110 c 0,16,17
 258 137 258 137 300 137 c 0,4,5
EndSplineSet
Substitution2: "<2,2> Cursive lookup 34 nested-substitutions 0 subtable" exclam_equal
Substitution2: "<2,2> Cursive lookup 24 nested-substitutions 0 subtable" exclam_equal_equal
Substitution2: "Single Substitution lookup 9 subtable" exclam_equal
Substitution2: "Single Substitution lookup 4 subtable" exclam_equal_equal
EndChar
StartChar: quotedbl
Encoding: 34 34 37
Width: 1229
GlyphClass: 2
Flags: W
LayerCount: 2
Fore
SplineSet
298 904 m 1,0,-1
 253 1492 l 1,1,-1
 569 1492 l 1,2,-1
 511 904 l 1,3,-1
 298 904 l 1,0,-1
778 904 m 1,4,-1
 720 1492 l 1,5,-1
 1036 1492 l 1,6,-1
 991 904 l 1,7,-1
 778 904 l 1,4,-1
EndSplineSet
EndChar
StartChar: numbersign
Encoding: 35 35 38
Width: 1229
GlyphClass: 2
Flags: W
LayerCount: 2
Fore
SplineSet
1274 1060 m 1,0,-1
 1274 863 l 1,1,-1
 1020 863 l 1,2,-1
 963 595 l 1,3,-1
 1202 595 l 1,4,-1
 1202 398 l 1,5,-1
 923 398 l 1,6,-1
 834 -30 l 1,7,-1
 607 -30 l 1,8,-1
 698 398 l 1,9,-1
 450 398 l 1,10,-1
 361 -30 l 1,11,-1
 148 -30 l 1,12,-1
 226 398 l 1,13,-1
 15 398 l 1,14,-1
 15 595 l 1,15,-1
 265 595 l 1,16,-1
 322 863 l 1,17,-1
 91 863 l 1,18,-1
 91 1060 l 1,19,-1
 362 1060 l 1,20,-1
 451 1492 l 1,21,-1
 677 1492 l 1,22,-1
 588 1060 l 1,23,-1
 840 1060 l 1,24,-1
 931 1492 l 1,25,-1
 1143 1492 l 1,26,-1
 1059 1060 l 1,27,-1
 1274 1060 l 1,0,-1
547 863 m 1,28,-1
 490 595 l 1,29,-1
 740 595 l 1,30,-1
 796 863 l 1,31,-1
 547 863 l 1,28,-1
EndSplineSet
EndChar
StartChar: dollar
Encoding: 36 36 39
Width: 1229
GlyphClass: 2
Flags: W
LayerCount: 2
Fore
SplineSet
1075 679 m 0,0,1
 1164 593 1164 593 1164 455 c 0,2,3
 1164 333 1164 333 1095 250 c 0,4,5
 1006 143 1006 143 788 107 c 1,6,-1
 788 -119 l 1,7,-1
 564 -119 l 1,8,-1
 564 95 l 1,9,10
 333 99 333 99 198 165 c 2,11,-1
 182 173 l 1,12,-1
 182 403 l 1,13,-1
 225 383 l 2,14,15
 397 305 397 305 564 298 c 1,16,-1
 564 666 l 1,17,18
 363 728 363 728 285 808 c 0,19,20
 199 895 199 895 199 1039 c 0,21,22
 199 1108 199 1108 224.5 1166.5 c 128,-1,23
 250 1225 250 1225 298.5 1268.5 c 128,-1,24
 347 1312 347 1312 408 1338 c 0,25,26
 476 1365 476 1365 564 1376 c 1,27,-1
 564 1554 l 1,28,-1
 788 1554 l 1,29,-1
 788 1382 l 1,30,31
 980 1370 980 1370 1123 1306 c 2,32,-1
 1150 1294 l 1,33,-1
 1059 1102 l 1,34,-1
 1032 1113 l 2,35,36
 913 1164 913 1164 788 1177 c 1,37,-1
 788 823 l 1,38,39
 993 758 993 758 1075 679 c 0,0,1
448 1109 m 0,40,41
 436 1084 436 1084 436 1049 c 0,42,43
 436 983 436 983 473 949 c 0,44,45
 502 921 502 921 564 898 c 1,46,-1
 564 1186 l 1,47,48
 475 1164 475 1164 448 1109 c 0,40,41
877 335 m 0,49,50
 928 373 928 373 928 446 c 0,51,52
 928 538 928 538 788 591 c 1,53,-1
 788 299 l 1,54,55
 844 311 844 311 877 335 c 0,49,50
EndSplineSet
EndChar
StartChar: percent
Encoding: 37 37 40
Width: 600
GlyphClass: 2
Flags: W
LayerCount: 2
Fore
SplineSet
284.5 416.5 m 128,-1,1
 239 368 239 368 160 368 c 0,2,3
 86 368 86 368 43 417 c 128,-1,4
 0 466 0 466 0 547 c 128,-1,5
 0 628 0 628 42.5 675 c 128,-1,6
 85 722 85 722 162 722 c 0,7,8
 237 722 237 722 283.5 674 c 128,-1,9
 330 626 330 626 330 546 c 0,10,0
 330 465 330 465 284.5 416.5 c 128,-1,1
104 546 m 0,11,12
 104 489 104 489 125 468 c 0,13,14
 138 456 138 456 160 456 c 0,15,16
 175 456 175 456 185 460 c 0,17,18
 207 470 207 470 214 507 c 0,19,20
 217 524 217 524 218 545 c 0,21,22
 218 614 218 614 185 629 c 0,23,24
 175 633 175 633 160 634 c 0,25,26
 138 634 138 634 125 622 c 0,27,28
 104 601 104 601 104 546 c 0,11,12
184 0 m 1,29,-1
 74 0 l 1,30,-1
 469 714 l 1,31,-1
 583 714 l 1,32,-1
 184 0 l 1,29,-1
616.5 39.5 m 128,-1,34
 574 -9 574 -9 497 -9 c 0,35,36
 420 -9 420 -9 373 40 c 128,-1,37
 326 89 326 89 326 168 c 0,38,39
 326 250 326 250 374 297 c 0,40,41
 397 320 397 320 428.5 332.5 c 128,-1,42
 460 345 460 345 499 345 c 0,43,44
 572 345 572 345 615.5 297 c 128,-1,45
 659 249 659 249 659 168.5 c 128,-1,33
 659 88 659 88 616.5 39.5 c 128,-1,34
452 103 m 0,46,47
 466 79 466 79 498 78 c 0,48,49
 520 78 520 78 533 90 c 0,50,51
 538 95 538 95 542 103 c 0,52,53
 554 126 554 126 554 168 c 0,54,55
 554 237 554 237 522 252 c 0,56,57
 512 256 512 256 498 256 c 0,58,59
 466 256 466 256 452 232 c 0,60,61
 439 210 439 210 439 168 c 128,-1,62
 439 126 439 126 452 103 c 0,46,47
EndSplineSet
Validated: 1
EndChar
StartChar: ampersand
Encoding: 38 38 41
Width: 1229
GlyphClass: 2
Flags: W
LayerCount: 2
Fore
SplineSet
923 121 m 1,0,1
 734 -50 734 -50 482 -50 c 0,2,3
 266 -50 266 -50 148.5 65.5 c 128,-1,4
 31 181 31 181 31 381 c 0,5,6
 31 521 31 521 99 626 c 0,7,8
 161 721 161 721 318 817 c 1,9,10
 167 1002 167 1002 167 1164 c 128,-1,11
 167 1326 167 1326 272 1421 c 1,12,13
 384 1515 384 1515 590 1515 c 0,14,15
 783 1515 783 1515 893 1422 c 0,16,17
 1003 1327 1003 1327 1003 1165 c 0,18,19
 1003 955 1003 955 676 768 c 1,20,-1
 925 482 l 1,21,22
 982 583 982 583 1011 701 c 2,23,-1
 1017 724 l 1,24,-1
 1269 724 l 1,25,-1
 1260 687 l 1,26,27
 1209 460 1209 460 1090 292 c 1,28,-1
 1350 -30 l 1,29,-1
 1052 -30 l 1,30,-1
 923 121 l 1,0,1
743 1144 m 0,31,32
 745 1156 745 1156 745 1173 c 128,-1,33
 745 1190 745 1190 740 1208 c 0,34,35
 731 1242 731 1242 702 1267 c 0,36,37
 658 1305 658 1305 583 1305 c 0,38,39
 502 1305 502 1305 458.5 1269 c 128,-1,40
 415 1233 415 1233 415 1165 c 0,41,42
 415 1066 415 1066 533 936 c 1,43,44
 654 1004 654 1004 699 1055 c 0,45,46
 736 1096 736 1096 743 1144 c 0,31,32
282 387 m 0,47,48
 282 294 282 294 345 232.5 c 128,-1,49
 408 171 408 171 495 171 c 0,50,51
 642 171 642 171 774 289 c 1,52,-1
 462 648 l 1,53,54
 370 592 370 592 326 527 c 128,-1,55
 282 462 282 462 282 387 c 0,47,48
EndSplineSet
EndChar
StartChar: quotesingle
Encoding: 39 39 42
Width: 1229
GlyphClass: 2
Flags: W
LayerCount: 2
Fore
SplineSet
509 904 m 1,0,-1
 464 1492 l 1,1,-1
 765 1492 l 1,2,-1
 720 904 l 1,3,-1
 509 904 l 1,0,-1
EndSplineSet
EndChar
StartChar: parenleft
Encoding: 40 40 43
Width: 1229
GlyphClass: 2
Flags: W
LayerCount: 2
Fore
SplineSet
779 1492 m 1,0,-1
 1075 1492 l 1,1,-1
 1011 1439 l 1,2,3
 514 1072 514 1072 514 569 c 0,4,5
 514 315 514 315 647.5 98 c 128,-1,6
 781 -119 781 -119 1009 -301 c 1,7,-1
 1073 -354 l 1,8,-1
 779 -354 l 1,9,-1
 769 -347 l 1,10,11
 265 15 265 15 265 567 c 0,12,13
 265 1113 265 1113 769 1485 c 1,14,-1
 779 1492 l 1,0,-1
EndSplineSet
EndChar
StartChar: parenright
Encoding: 41 41 44
Width: 1229
GlyphClass: 2
Flags: W
LayerCount: 2
Fore
SplineSet
216 -354 m 1,0,-1
 280 -301 l 1,1,2
 774 61 774 61 774 569 c 0,3,4
 774 1073 774 1073 278 1439 c 1,5,-1
 214 1492 l 1,6,-1
 509 1492 l 1,7,-1
 519 1485 l 2,8,9
 871 1239 871 1239 973 913 c 0,10,11
 1024 749 1024 749 1024 567 c 0,12,13
 1024 12 1024 12 519 -348 c 1,14,-1
 509 -354 l 1,15,-1
 216 -354 l 1,0,-1
EndSplineSet
EndChar
StartChar: asterisk
Encoding: 42 42 45
Width: 600
GlyphClass: 2
Flags: W
LayerCount: 2
Fore
SplineSet
387 774 m 1,0,-1
 365 588 l 1,1,-1
 563 641 l 1,2,-1
 581 514 l 1,3,-1
 401 501 l 1,4,-1
 521 350 l 1,5,-1
 399 288 l 1,6,-1
 312 448 l 1,7,-1
 234 288 l 1,8,-1
 108 350 l 1,9,-1
 226 501 l 1,10,-1
 48 514 l 1,11,-1
 67 641 l 1,12,-1
 263 588 l 1,13,-1
 240 774 l 1,14,-1
 387 774 l 1,0,-1
EndSplineSet
Validated: 1
EndChar
StartChar: plus
Encoding: 43 43 46
Width: 1229
GlyphClass: 2
Flags: W
LayerCount: 2
Fore
SplineSet
761 617 m 1,0,-1
 761 232 l 1,1,-1
 526 232 l 1,2,-1
 526 617 l 1,3,-1
 122 617 l 1,4,-1
 122 827 l 1,5,-1
 526 827 l 1,6,-1
 526 1216 l 1,7,-1
 761 1216 l 1,8,-1
 761 827 l 1,9,-1
 1165 827 l 1,10,-1
 1165 617 l 1,11,-1
 761 617 l 1,0,-1
EndSplineSet
EndChar
StartChar: comma
Encoding: 44 44 47
Width: 600
GlyphClass: 2
Flags: W
LayerCount: 2
Fore
SplineSet
196 -156 m 1,0,-1
 201 -138 l 2,1,2
 238 19 238 19 254 130 c 2,3,-1
 256 143 l 1,4,-1
 384 143 l 1,5,-1
 399 119 l 1,6,-1
 398 113 l 1,7,8
 370 2 370 2 302 -147 c 2,9,-1
 298 -156 l 1,10,-1
 196 -156 l 1,0,-1
EndSplineSet
EndChar
StartChar: hyphen
Encoding: 45 45 48
Width: 600
GlyphClass: 2
Flags: W
LayerCount: 2
Fore
SplineSet
125 212 m 1,0,-1
 125 324 l 1,1,-1
 505 324 l 1,2,-1
 505 212 l 1,3,-1
 125 212 l 1,0,-1
EndSplineSet
Validated: 1
Substitution2: "Single Substitution lookup 6 subtable" arrow_right_single
Substitution2: "subspace subtable" space
EndChar
StartChar: period
Encoding: 46 46 49
Width: 1229
GlyphClass: 2
Flags: W
LayerCount: 2
Fore
SplineSet
614 331 m 0,0,1
 678 331 678 331 722 303 c 0,2,3
 744 289 744 289 762 266 c 0,4,5
 796 219 796 219 796 135 c 128,-1,6
 796 51 796 51 760 3 c 0,7,8
 714 -61 714 -61 614 -61 c 0,9,10
 566 -61 566 -61 529 -45.5 c 128,-1,11
 492 -30 492 -30 469 3 c 0,12,13
 433 51 433 51 433 135 c 128,-1,14
 433 219 433 219 469 267 c 0,15,16
 515 331 515 331 614 331 c 0,0,1
EndSplineSet
EndChar
StartChar: slash
Encoding: 47 47 50
Width: 1229
GlyphClass: 2
Flags: W
LayerCount: 2
Fore
SplineSet
165 -30 m 1,0,-1
 878 1492 l 1,1,-1
 1122 1492 l 1,2,-1
 409 -30 l 1,3,-1
 165 -30 l 1,0,-1
EndSplineSet
Substitution2: "<2,2> Cursive lookup 20 nested-substitutions 0 subtable" slash_equal
Substitution2: "Single Substitution lookup 2 subtable" slash_equal
EndChar
StartChar: zero
Encoding: 48 48 51
Width: 1229
GlyphClass: 2
Flags: W
LayerCount: 2
Fore
SplineSet
950 936 m 1,0,-1
 497 270 l 1,1,2
 560 195 560 195 672 195 c 0,3,4
 752 195 752 195 807 232 c 0,5,6
 853 263 853 263 883 319 c 0,7,8
 957 453 957 453 957 763 c 0,9,10
 957 858 957 858 950 936 c 1,0,-1
915 27 m 1,11,12
 810 -20 810 -20 672 -20 c 0,13,14
 550 -20 550 -20 454 20 c 0,15,16
 340 69 340 69 269 180 c 0,17,18
 147 373 147 373 147 733 c 0,19,20
 147 1295 147 1295 431 1438 c 1,21,22
 535 1485 535 1485 672 1485 c 0,23,24
 795 1485 795 1485 892 1445 c 0,25,26
 1008 1396 1008 1396 1078 1285 c 0,27,28
 1201 1092 1201 1092 1201 733 c 0,29,30
 1201 170 1201 170 915 27 c 1,11,12
402 500 m 1,31,-1
 857 1185 l 1,32,33
 791 1269 791 1269 672 1269 c 0,34,35
 593 1269 593 1269 538 1232 c 0,36,37
 494 1202 494 1202 464 1146 c 0,38,39
 392 1013 392 1013 392 703 c 0,40,41
 392 590 392 590 402 500 c 1,31,-1
EndSplineSet
EndChar
StartChar: one
Encoding: 49 49 52
Width: 1229
GlyphClass: 2
Flags: W
LayerCount: 2
Fore
SplineSet
830 1462 m 1,0,-1
 830 0 l 1,1,-1
 594 0 l 1,2,-1
 594 906 l 2,3,4
 594 1004 594 1004 600 1181 c 1,5,6
 570 1155 570 1155 531 1122 c 2,7,-1
 360 987 l 1,8,-1
 225 1151 l 1,9,-1
 640 1462 l 1,10,-1
 830 1462 l 1,0,-1
EndSplineSet
EndChar
StartChar: two
Encoding: 50 50 53
Width: 600
GlyphClass: 2
Flags: W
LayerCount: 2
Fore
SplineSet
581 110 m 1,0,-1
 581 0 l 1,1,-1
 77 0 l 1,2,-1
 77 92 l 1,3,-1
 259 274 l 1,4,5
 365 372 365 372 398 419 c 0,6,7
 430 464 430 464 430 520 c 0,8,9
 430 567 430 567 399 593 c 0,10,11
 369 619 369 619 317 620 c 0,12,13
 235 620 235 620 158 556 c 2,14,-1
 147 547 l 1,15,-1
 78 627 l 1,16,-1
 89 636 l 1,17,18
 187 724 187 724 318 724 c 0,19,20
 431 724 431 724 494 671 c 1,21,22
 553 617 553 617 553 528 c 0,23,24
 553 469 553 469 523 408.5 c 128,-1,25
 493 348 493 348 368 230 c 1,26,-1
 235 110 l 1,27,-1
 581 110 l 1,0,-1
EndSplineSet
Validated: 1
EndChar
StartChar: three
Encoding: 51 51 54
Width: 1229
GlyphClass: 2
Flags: W
LayerCount: 2
Fore
SplineSet
1149 582 m 0,0,1
 1180 514 1180 514 1180 428 c 0,2,3
 1180 220 1180 220 1033 100 c 1,4,5
 879 -20 879 -20 574 -20 c 0,6,7
 304 -20 304 -20 152 63 c 1,8,-1
 136 71 l 1,9,-1
 136 308 l 1,10,-1
 180 286 l 2,11,12
 358 193 358 193 570 193 c 0,13,14
 736 193 736 193 826 242 c 0,15,16
 933 301 933 301 933 436 c 0,17,18
 933 522 933 522 874 572 c 0,19,20
 781 650 781 650 540 650 c 2,21,-1
 359 650 l 1,22,-1
 359 861 l 1,23,-1
 540 861 l 2,24,25
 707 861 707 861 795 924 c 128,-1,26
 883 987 883 987 883 1091 c 0,27,28
 883 1133 883 1133 866.5 1165 c 128,-1,29
 850 1197 850 1197 818 1221 c 0,30,31
 751 1269 751 1269 636 1269 c 0,32,33
 448 1269 448 1269 282 1154 c 1,34,-1
 258 1136 l 1,35,-1
 131 1308 l 1,36,-1
 153 1326 l 2,37,38
 349 1483 349 1483 636 1483 c 0,39,40
 879 1483 879 1483 1009 1381 c 0,41,42
 1093 1312 1093 1312 1121 1211 c 0,43,44
 1135 1162 1135 1162 1135 1105 c 0,45,46
 1135 961 1135 961 1046 864 c 0,47,48
 990 803 990 803 901 770 c 1,49,50
 1088 719 1088 719 1149 582 c 0,0,1
EndSplineSet
EndChar
StartChar: four
Encoding: 52 52 55
Width: 1229
GlyphClass: 2
Flags: W
LayerCount: 2
Fore
SplineSet
1033 1470 m 1,0,-1
 1033 524 l 1,1,-1
 1246 524 l 1,2,-1
 1246 298 l 1,3,-1
 1033 298 l 1,4,-1
 1033 0 l 1,5,-1
 797 0 l 1,6,-1
 797 298 l 1,7,-1
 61 298 l 1,8,-1
 61 491 l 1,9,-1
 780 1470 l 1,10,-1
 1033 1470 l 1,0,-1
329 524 m 1,11,-1
 797 524 l 1,12,-1
 778 850 l 1,13,14
 778 978 778 978 785 1147 c 1,15,16
 766 1114 766 1114 744 1085 c 2,17,-1
 329 524 l 1,11,-1
EndSplineSet
EndChar
StartChar: five
Encoding: 53 53 56
Width: 600
GlyphClass: 2
Flags: W
LayerCount: 2
Fore
SplineSet
91 31 m 2,0,-1
 84 35 l 1,1,-1
 84 155 l 1,2,-1
 107 140 l 2,3,4
 173 96 173 96 284 95 c 0,5,6
 361 95 361 95 402 121 c 0,7,8
 453 153 453 153 453 226 c 0,9,10
 453 294 453 294 401 324 c 0,11,12
 359 348 359 348 279 348 c 0,13,14
 231 348 231 348 155 334 c 1,15,-1
 99 370 l 1,16,-1
 127 714 l 1,17,-1
 521 714 l 1,18,-1
 521 604 l 1,19,-1
 235 604 l 1,20,-1
 217 446 l 1,21,22
 266 453 266 453 313 453 c 0,23,24
 436 453 436 453 506 395 c 0,25,26
 574 337 574 337 574 236 c 0,27,28
 574 119 574 119 502 55 c 0,29,30
 427 -9 427 -9 282 -10 c 0,31,32
 159 -10 159 -10 91 31 c 2,0,-1
EndSplineSet
EndChar
StartChar: six
Encoding: 54 54 57
Width: 1229
GlyphClass: 2
Flags: W
LayerCount: 2
Fore
SplineSet
530 1154 m 0,0,1
 429 1048 429 1048 406 829 c 1,2,3
 522 945 522 945 724 945 c 0,4,5
 957 945 957 945 1076 820.5 c 128,-1,6
 1195 696 1195 696 1195 485 c 0,7,8
 1195 253 1195 253 1066 116 c 0,9,10
 936 -20 936 -20 693 -20 c 0,11,12
 432 -20 432 -20 290 153 c 0,13,14
 154 323 154 323 154 629 c 0,15,16
 154 1180 154 1180 441 1377 c 1,17,18
 613 1483 613 1483 875 1483 c 0,19,20
 991 1483 991 1483 1063 1463 c 2,21,-1
 1085 1457 l 1,22,-1
 1085 1237 l 1,23,-1
 1045 1251 l 2,24,25
 979 1273 979 1273 882 1273 c 0,26,27
 646 1273 646 1273 530 1154 c 0,0,1
887 266 m 0,28,29
 959 342 959 342 959 485 c 0,30,31
 959 612 959 612 892 678 c 0,32,33
 825 742 825 742 696.5 742 c 128,-1,34
 568 742 568 742 482 673 c 0,35,36
 396 605 396 605 396 518 c 0,37,38
 396 383 396 383 480 286 c 0,39,40
 561 193 561 193 689 193 c 128,-1,41
 817 193 817 193 887 266 c 0,28,29
EndSplineSet
EndChar
StartChar: seven
Encoding: 55 55 58
Width: 1229
GlyphClass: 2
Flags: W
LayerCount: 2
Fore
SplineSet
939 1236 m 1,0,-1
 143 1236 l 1,1,-1
 143 1462 l 1,2,-1
 1203 1462 l 1,3,-1
 1203 1288 l 1,4,-1
 578 0 l 1,5,-1
 318 0 l 1,6,-1
 939 1236 l 1,0,-1
EndSplineSet
EndChar
StartChar: eight
Encoding: 56 56 59
Width: 1229
GlyphClass: 2
Flags: W
LayerCount: 2
Fore
SplineSet
250 644 m 0,0,1
 310 714 310 714 410 768 c 1,2,3
 203 910 203 910 203 1120 c 0,4,5
 203 1288 203 1288 331 1388 c 1,6,7
 462 1485 462 1485 674 1485 c 0,8,9
 893 1485 893 1485 1021 1387 c 0,10,11
 1104 1320 1104 1320 1132 1222 c 0,12,13
 1146 1173 1146 1173 1146 1118 c 0,14,15
 1146 901 1146 901 913 772 c 1,16,17
 1193 617 1193 617 1193 394 c 0,18,19
 1193 207 1193 207 1058 94 c 0,20,21
 919 -20 919 -20 674 -20 c 0,22,23
 419 -20 419 -20 286 87 c 0,24,25
 156 195 156 195 156 387 c 0,26,27
 156 534 156 534 250 644 c 0,0,1
832 944 m 0,28,29
 903 1011 903 1011 903 1096 c 0,30,31
 903 1141 903 1141 888.5 1173 c 128,-1,32
 874 1205 874 1205 844 1227 c 0,33,34
 783 1273 783 1273 674 1273 c 128,-1,35
 565 1273 565 1273 505.5 1228 c 128,-1,36
 446 1183 446 1183 446 1096 c 0,37,38
 446 1016 446 1016 494 962 c 128,-1,39
 542 908 542 908 676 851 c 1,40,41
 776 892 776 892 832 944 c 0,28,29
473 582 m 0,42,43
 394 503 394 503 394 401 c 0,44,45
 394 283 394 283 474 233 c 0,46,47
 542 191 542 191 669 191 c 0,48,49
 810 191 810 191 884 249 c 0,50,51
 920 277 920 277 938 317 c 0,52,53
 955 356 955 356 955 409 c 0,54,55
 955 487 955 487 894 548 c 0,56,57
 828 614 828 614 664 685 c 2,58,-1
 645 693 l 1,59,60
 535 644 535 644 473 582 c 0,42,43
EndSplineSet
EndChar
StartChar: nine
Encoding: 57 57 60
Width: 600
GlyphClass: 2
Flags: W
LayerCount: 2
Fore
SplineSet
400 150 m 0,0,1
 449 202 449 202 460 309 c 1,2,3
 403 252 403 252 304 252 c 0,4,5
 191 252 191 252 133 312.5 c 128,-1,6
 75 373 75 373 75 477 c 0,7,8
 75 590 75 590 138 657 c 0,9,10
 201 724 201 724 320 724 c 0,11,12
 430 724 430 724 498 661 c 1,13,14
 584 576 584 576 583 407 c 0,15,16
 583 94 583 94 390 16 c 0,17,18
 322 -10 322 -10 231 -10 c 0,19,20
 174 -10 174 -10 140 -0 c 2,21,-1
 129 2 l 1,22,-1
 129 111 l 1,23,-1
 148 104 l 2,24,25
 178 93 178 93 228 92 c 0,26,27
 343 92 343 92 400 150 c 0,0,1
225 584 m 0,28,29
 190 547 190 547 190 477 c 0,30,31
 190 415 190 415 223 383 c 0,32,33
 256 352 256 352 318 352 c 0,34,35
 381 352 381 352 423 385 c 0,36,37
 444 403 444 403 455 421 c 256,38,39
 465 440 465 440 465 461 c 0,40,41
 465 526 465 526 425 574 c 0,42,43
 386 619 386 619 321 620 c 0,44,45
 259 619 259 619 225 584 c 0,28,29
EndSplineSet
EndChar
StartChar: colon
Encoding: 58 58 61
Width: 1229
GlyphClass: 2
Flags: W
LayerCount: 2
Fore
SplineSet
614 1156 m 128,-1,1
 700 1156 700 1156 740 1101 c 0,2,3
 771 1059 771 1059 771 987 c 128,-1,4
 771 915 771 915 740 873 c 0,5,6
 700 818 700 818 614 818 c 128,-1,7
 528 818 528 818 488 873 c 0,8,9
 457 915 457 915 457 987 c 128,-1,10
 457 1059 457 1059 488 1101 c 0,11,0
 528 1156 528 1156 614 1156 c 128,-1,1
614 280 m 0,12,13
 681 280 681 280 721 245 c 0,14,15
 771 202 771 202 771 111 c 0,16,17
 771 39 771 39 740 -3 c 0,18,19
 700 -59 700 -59 614 -59 c 128,-1,20
 528 -59 528 -59 488 -3 c 0,21,22
 457 39 457 39 457 111 c 128,-1,23
 457 183 457 183 488 225 c 0,24,25
 528 280 528 280 614 280 c 0,12,13
EndSplineSet
EndChar
StartChar: semicolon
Encoding: 59 59 62
Width: 1229
GlyphClass: 2
Flags: W
LayerCount: 2
Fore
SplineSet
621 1156 m 128,-1,1
 707 1156 707 1156 747 1101 c 0,2,3
 778 1059 778 1059 778 987 c 128,-1,4
 778 915 778 915 747 873 c 0,5,6
 707 818 707 818 621 818 c 128,-1,7
 535 818 535 818 495 873 c 0,8,9
 464 915 464 915 464 987 c 128,-1,10
 464 1059 464 1059 495 1101 c 0,11,0
 535 1156 535 1156 621 1156 c 128,-1,1
372 -294 m 1,12,-1
 381 -257 l 2,13,14
 443 -3 443 -3 480 243 c 2,15,-1
 484 268 l 1,16,-1
 726 268 l 1,17,-1
 755 220 l 1,18,-1
 752 207 l 1,19,20
 700 8 700 8 574 -276 c 1,21,-1
 567 -294 l 1,22,-1
 372 -294 l 1,12,-1
EndSplineSet
EndChar
StartChar: less
Encoding: 60 60 63
Width: 1229
GlyphClass: 2
Flags: W
LayerCount: 2
Fore
SplineSet
122 653 m 1,0,-1
 122 793 l 1,1,-1
 1165 1273 l 1,2,-1
 1165 1046 l 1,3,-1
 437 723 l 1,4,-1
 1165 400 l 1,5,-1
 1165 173 l 1,6,-1
 122 653 l 1,0,-1
EndSplineSet
Substitution2: "<2,2> Cursive lookup 46 nested-substitutions 0 subtable" arrow_left_single
Substitution2: "Single Substitution lookup 15 subtable" arrow_left_single
EndChar
StartChar: equal
Encoding: 61 61 64
Width: 600
GlyphClass: 2
Flags: W
LayerCount: 2
Fore
SplineSet
60 401 m 1,0,-1
 60 503 l 1,1,-1
 569 503 l 1,2,-1
 569 401 l 1,3,-1
 60 401 l 1,0,-1
60 201 m 1,4,-1
 60 304 l 1,5,-1
 569 304 l 1,6,-1
 569 201 l 1,7,-1
 60 201 l 1,4,-1
EndSplineSet
Validated: 1
Substitution2: "Single Substitution lookup 10 subtable" arrow_right_double
Substitution2: "Single Substitution lookup 9 subtable" equal_equal
Substitution2: "Single Substitution lookup 4 subtable" equal_triple
Substitution2: "subspace subtable" space
EndChar
StartChar: greater
Encoding: 62 62 65
Width: 600
GlyphClass: 2
Flags: W
LayerCount: 2
Fore
SplineSet
60 511 m 1,0,-1
 60 622 l 1,1,-1
 569 387 l 5,2,-1
 569 319 l 5,3,-1
 60 84 l 1,4,-1
 60 195 l 1,5,-1
 415 353 l 1,6,-1
 60 511 l 1,0,-1
EndSplineSet
Validated: 1
Substitution2: "subspace subtable" space
EndChar
StartChar: question
Encoding: 63 63 66
Width: 600
GlyphClass: 2
Flags: W
LayerCount: 2
Fore
SplineSet
216 188 m 1,0,-1
 216 220 l 2,1,2
 216 282 216 282 243.5 322 c 128,-1,3
 271 362 271 362 337 404 c 0,4,5
 406 450 406 450 428 476 c 0,6,7
 447 501 447 501 447 545 c 0,8,9
 447 564 447 564 439 579 c 0,10,11
 431 594 431 594 413 606 c 0,12,13
 377 631 377 631 309 631 c 0,14,15
 217 631 217 631 120 589 c 1,16,-1
 106 583 l 1,17,-1
 63 684 l 1,18,-1
 76 690 l 2,19,20
 181 739 181 739 304 739 c 0,21,22
 428 739 428 739 494 688 c 0,23,24
 538 654 538 654 554 603 c 0,25,26
 561 578 561 578 561 546.5 c 128,-1,27
 561 515 561 515 554 486.5 c 128,-1,28
 547 458 547 458 533 436 c 0,29,30
 505 393 505 393 432 338 c 1,31,32
 369 296 369 296 353 273.5 c 128,-1,33
 337 251 337 251 337 211 c 2,34,-1
 337 188 l 1,35,-1
 216 188 l 1,0,-1
281.5 137 m 128,-1,37
 329 137 329 137 351 110 c 0,38,39
 368 89 368 89 368 54 c 128,-1,40
 368 19 368 19 351 -1 c 0,41,42
 329 -28 329 -28 281.5 -28.5 c 128,-1,43
 234 -29 234 -29 211 -1 c 0,44,45
 194 20 194 20 194.5 54.5 c 128,-1,46
 195 89 195 89 212 110 c 0,47,36
 234 137 234 137 281.5 137 c 128,-1,37
EndSplineSet
Validated: 33
EndChar
StartChar: at
Encoding: 64 64 67
Width: 1229
GlyphClass: 2
Flags: W
LayerCount: 2
Fore
SplineSet
591 191 m 0,0,1
 526 191 526 191 472 215 c 0,2,3
 406 244 406 244 358 309 c 0,4,5
 277 421 277 421 277 606 c 0,6,7
 277 822 277 822 389 957 c 0,8,9
 504 1095 504 1095 690 1095 c 0,10,11
 845 1095 845 1095 979 1046 c 2,12,-1
 1001 1038 l 1,13,14
 975 582 975 582 974.5 565 c 128,-1,15
 974 548 974 548 974 533 c 2,16,-1
 974 526 l 2,17,18
 974 455 974 455 987 416 c 0,19,20
 997 385 997 385 1013 381 c 0,21,22
 1015 380 1015 380 1019 380 c 0,23,24
 1044 380 1044 380 1062 435 c 0,25,26
 1091 525 1091 525 1091 733 c 0,27,28
 1091 1002 1091 1002 981 1152 c 0,29,30
 870 1297 870 1297 684 1297 c 0,31,32
 583 1297 583 1297 502 1262 c 0,33,34
 401 1218 401 1218 330 1119 c 0,35,36
 202 934 202 934 202 608 c 0,37,38
 202 306 202 306 332 144 c 0,39,40
 462 -15 462 -15 705 -15 c 0,41,42
 893 -15 893 -15 1063 60 c 2,43,-1
 1106 80 l 1,44,-1
 1106 -118 l 1,45,-1
 1090 -127 l 1,46,47
 916 -212 916 -212 698 -212 c 0,48,49
 360 -212 360 -212 175 6 c 1,50,51
 1 221 1 221 1 602 c 0,52,53
 1 1009 1 1009 174 1248 c 1,54,55
 358 1492 358 1492 686 1492 c 0,56,57
 970 1492 970 1492 1133 1284 c 0,58,59
 1288 1080 1288 1080 1288 731 c 0,60,61
 1288 493 1288 493 1221 348 c 0,62,63
 1190 280 1190 280 1147 242 c 0,64,65
 1091 191 1091 191 1014 191 c 0,66,67
 968 191 968 191 931 208 c 0,68,69
 864 239 864 239 832 321 c 1,70,71
 806 282 806 282 773 254 c 0,72,73
 697 191 697 191 591 191 c 0,0,1
759 894 m 1,74,75
 719 906 719 906 679 906 c 0,76,77
 605 906 605 906 563 829 c 0,78,79
 515 742 515 742 515 602 c 0,80,81
 515 499 515 499 539 442 c 0,82,83
 555 403 555 403 582 389 c 0,84,85
 598 380 598 380 620 380 c 0,86,87
 635 380 635 380 644 383.5 c 128,-1,88
 653 387 653 387 660.5 391.5 c 128,-1,89
 668 396 668 396 677 405 c 0,90,91
 696 425 696 425 710 461 c 0,92,93
 738 533 738 533 745 663 c 2,94,-1
 759 894 l 1,74,75
EndSplineSet
EndChar
StartChar: A
Encoding: 65 65 68
Width: 1229
GlyphClass: 2
Flags: W
LayerCount: 2
Fore
SplineSet
444 423 m 1,0,-1
 286 0 l 1,1,-1
 33 0 l 1,2,-1
 556 1468 l 1,3,-1
 814 1468 l 1,4,-1
 1339 0 l 1,5,-1
 1084 0 l 1,6,-1
 928 423 l 1,7,-1
 444 423 l 1,0,-1
665 1076 m 1,8,-1
 522 648 l 1,9,-1
 850 648 l 1,10,-1
 719 1033 l 2,11,12
 700 1089 700 1089 685 1141 c 1,13,-1
 665 1076 l 1,8,-1
EndSplineSet
EndChar
StartChar: B
Encoding: 66 66 69
Width: 600
GlyphClass: 2
Flags: W
LayerCount: 2
Fore
SplineSet
66 0 m 1,0,-1
 66 714 l 1,1,-1
 295 714 l 2,2,3
 376 714 376 714 436 703 c 0,4,5
 495 692 495 692 528 669.5 c 128,-1,6
 561 647 561 647 577.5 610.5 c 128,-1,7
 594 574 594 574 594 526 c 0,8,9
 594 461 594 461 552 417 c 0,10,11
 526 390 526 390 488 376 c 1,12,13
 572 350 572 350 600 285 c 0,14,15
 614 253 614 253 614 213 c 0,16,17
 614 148 614 148 584 100 c 0,18,19
 569 76 569 76 546 57 c 0,20,21
 478 0 478 0 345 0 c 2,22,-1
 66 0 l 1,0,-1
302 607 m 2,23,-1
 187 607 l 1,24,-1
 187 426 l 1,25,-1
 313 426 l 2,26,27
 355 426 355 426 385.5 432 c 128,-1,28
 416 438 416 438 433 448 c 0,29,30
 467 469 467 469 467 520 c 0,31,32
 467 544 467 544 458 560 c 128,-1,33
 449 576 449 576 430.5 586 c 128,-1,34
 412 596 412 596 379.5 601.5 c 128,-1,35
 347 607 347 607 302 607 c 2,23,-1
187 320 m 1,36,-1
 187 106 l 1,37,-1
 326 106 l 2,38,39
 400 106 400 106 439 129 c 0,40,41
 487 155 487 155 487 218 c 0,42,43
 487 275 487 275 438 299 c 0,44,45
 396 320 396 320 319 320 c 2,46,-1
 187 320 l 1,36,-1
EndSplineSet
EndChar
StartChar: C
Encoding: 67 67 70
Width: 1229
GlyphClass: 2
Flags: W
LayerCount: 2
Fore
SplineSet
1206 260 m 2,0,-1
 1244 271 l 1,1,-1
 1244 49 l 1,2,-1
 1225 41 l 2,3,4
 1074 -20 1074 -20 836 -20 c 0,5,6
 482 -20 482 -20 300 179 c 1,7,8
 129 375 129 375 129 733 c 0,9,10
 129 1077 129 1077 316 1280 c 1,11,12
 516 1483 516 1483 870 1483 c 0,13,14
 1114 1483 1114 1483 1284 1394 c 2,15,-1
 1310 1380 l 1,16,-1
 1205 1171 l 1,17,-1
 1178 1184 l 2,18,19
 1028 1259 1028 1259 870 1259 c 0,20,21
 650 1259 650 1259 520 1120 c 0,22,23
 387 977 387 977 387 731 c 0,24,25
 387 469 387 469 511 335 c 0,26,27
 633 203 633 203 870 203 c 0,28,29
 1008 203 1008 203 1206 260 c 2,0,-1
EndSplineSet
EndChar
StartChar: D
Encoding: 68 68 71
Width: 1229
GlyphClass: 2
Flags: W
LayerCount: 2
Fore
SplineSet
466 0 m 2,0,-1
 135 0 l 1,1,-1
 135 1462 l 1,2,-1
 507 1462 l 2,3,4
 881 1462 881 1462 1082 1272 c 1,5,6
 1267 1081 1267 1081 1267 744 c 0,7,8
 1267 386 1267 386 1075 193 c 1,9,10
 866 0 866 0 466 0 c 2,0,-1
382 1243 m 1,11,-1
 382 220 l 1,12,-1
 448 220 l 2,13,14
 758 220 758 220 896 377 c 0,15,16
 1009 505 1009 505 1009 739 c 0,17,18
 1009 1059 1009 1059 802 1175 c 0,19,20
 682 1243 682 1243 487 1243 c 2,21,-1
 382 1243 l 1,11,-1
EndSplineSet
EndChar
StartChar: E
Encoding: 69 69 72
Width: 600
GlyphClass: 2
Flags: W
LayerCount: 2
Fore
SplineSet
576 109 m 1,0,-1
 576 0 l 1,1,-1
 106 0 l 1,2,-1
 106 714 l 1,3,-1
 576 714 l 1,4,-1
 576 604 l 1,5,-1
 226 604 l 1,6,-1
 226 428 l 1,7,-1
 557 428 l 1,8,-1
 557 319 l 1,9,-1
 226 319 l 1,10,-1
 226 109 l 1,11,-1
 576 109 l 1,0,-1
EndSplineSet
EndChar
StartChar: F
Encoding: 70 70 73
Width: 600
GlyphClass: 2
Flags: W
LayerCount: 2
Fore
SplineSet
239 287 m 1,0,-1
 239 0 l 1,1,-1
 119 0 l 1,2,-1
 119 714 l 1,3,-1
 588 714 l 1,4,-1
 588 604 l 1,5,-1
 239 604 l 1,6,-1
 239 396 l 1,7,-1
 570 396 l 1,8,-1
 570 287 l 1,9,-1
 239 287 l 1,0,-1
EndSplineSet
EndChar
StartChar: G
Encoding: 71 71 74
Width: 1229
GlyphClass: 2
Flags: W
LayerCount: 2
Fore
SplineSet
706 578 m 1,0,-1
 706 802 l 1,1,-1
 1214 802 l 1,2,-1
 1214 61 l 1,3,-1
 1195 54 l 2,4,5
 995 -20 995 -20 742 -20 c 0,6,7
 434 -20 434 -20 270 184 c 1,8,9
 117 383 117 383 117 732 c 128,-1,10
 117 1081 117 1081 286 1280 c 1,11,12
 467 1483 467 1483 798 1483 c 0,13,14
 1015 1483 1015 1483 1176 1393 c 2,15,-1
 1200 1380 l 1,16,-1
 1103 1162 l 1,17,-1
 1074 1179 l 2,18,19
 931 1259 931 1259 791 1259 c 0,20,21
 596 1259 596 1259 487 1124 c 0,22,23
 374 984 374 984 374 731 c 0,24,25
 374 330 374 330 603 234 c 0,26,27
 678 203 678 203 774 203 c 128,-1,28
 870 203 870 203 969 224 c 1,29,-1
 969 578 l 1,30,-1
 706 578 l 1,0,-1
EndSplineSet
EndChar
StartChar: H
Encoding: 72 72 75
Width: 600
GlyphClass: 2
Flags: W
LayerCount: 2
Fore
SplineSet
593 714 m 1,0,-1
 593 0 l 1,1,-1
 472 0 l 1,2,-1
 472 318 l 1,3,-1
 187 318 l 1,4,-1
 187 0 l 1,5,-1
 66 0 l 1,6,-1
 66 714 l 1,7,-1
 187 714 l 1,8,-1
 187 428 l 1,9,-1
 472 428 l 1,10,-1
 472 714 l 1,11,-1
 593 714 l 1,0,-1
EndSplineSet
EndChar
StartChar: I
Encoding: 73 73 76
Width: 1229
GlyphClass: 2
Flags: W
LayerCount: 2
Fore
SplineSet
1121 174 m 1,0,-1
 1121 0 l 1,1,-1
 225 0 l 1,2,-1
 225 174 l 1,3,-1
 529 193 l 1,4,-1
 529 1269 l 1,5,-1
 225 1288 l 1,6,-1
 225 1462 l 1,7,-1
 1121 1462 l 1,8,-1
 1121 1288 l 1,9,-1
 819 1269 l 1,10,-1
 819 193 l 1,11,-1
 1121 174 l 1,0,-1
EndSplineSet
EndChar
StartChar: J
Encoding: 74 74 77
Width: 1229
GlyphClass: 2
Flags: W
LayerCount: 2
Fore
SplineSet
153 43 m 1,0,-1
 137 51 l 1,1,-1
 137 279 l 1,2,-1
 178 263 l 2,3,4
 335 203 335 203 490 203 c 0,5,6
 661 203 661 203 757 271 c 128,-1,7
 853 339 853 339 853 466 c 2,8,-1
 853 1462 l 1,9,-1
 1099 1462 l 1,10,-1
 1099 462 l 2,11,12
 1099 241 1099 241 949 111 c 0,13,14
 792 -20 792 -20 507 -20 c 0,15,16
 266 -20 266 -20 153 43 c 1,0,-1
EndSplineSet
EndChar
StartChar: K
Encoding: 75 75 78
Width: 1229
GlyphClass: 2
Flags: W
LayerCount: 2
Fore
SplineSet
1343 0 m 1,0,-1
 1061 0 l 1,1,-1
 571 684 l 1,2,-1
 457 600 l 1,3,-1
 457 0 l 1,4,-1
 211 0 l 1,5,-1
 211 1462 l 1,6,-1
 457 1462 l 1,7,-1
 457 794 l 1,8,-1
 532 888 l 1,9,-1
 1047 1462 l 1,10,-1
 1333 1462 l 1,11,-1
 757 819 l 1,12,-1
 1343 0 l 1,0,-1
EndSplineSet
EndChar
StartChar: L
Encoding: 76 76 79
Width: 1229
GlyphClass: 2
Flags: W
LayerCount: 2
Fore
SplineSet
1175 0 m 1,0,-1
 233 0 l 1,1,-1
 233 1462 l 1,2,-1
 480 1462 l 1,3,-1
 480 226 l 1,4,-1
 1175 226 l 1,5,-1
 1175 0 l 1,0,-1
EndSplineSet
EndChar
StartChar: M
Encoding: 77 77 80
Width: 1229
GlyphClass: 2
Flags: W
LayerCount: 2
Fore
SplineSet
800 0 m 1,0,-1
 598 0 l 1,1,-1
 323 991 l 1,2,3
 324 943 324 943 324 904 c 2,4,-1
 324 0 l 1,5,-1
 113 0 l 1,6,-1
 113 1462 l 1,7,-1
 414 1462 l 1,8,-1
 701 372 l 1,9,-1
 930 1462 l 1,10,-1
 1236 1462 l 1,11,-1
 1296 0 l 1,12,-1
 1083 0 l 1,13,-1
 1023 917 l 2,14,15
 1023 954 1023 954 1025 1015 c 1,16,-1
 800 0 l 1,0,-1
EndSplineSet
EndChar
StartChar: N
Encoding: 78 78 81
Width: 600
GlyphClass: 2
Flags: W
LayerCount: 2
Fore
SplineSet
592 714 m 1,0,-1
 592 0 l 1,1,-1
 461 0 l 1,2,-1
 174 541 l 1,3,4
 179 453 179 453 179 402 c 2,5,-1
 179 0 l 1,6,-1
 66 0 l 1,7,-1
 66 714 l 1,8,-1
 194 714 l 1,9,-1
 481 175 l 1,10,11
 477 270 477 270 478 309 c 2,12,-1
 478 714 l 1,13,-1
 592 714 l 1,0,-1
EndSplineSet
Validated: 33
EndChar
StartChar: O
Encoding: 79 79 82
Width: 1229
GlyphClass: 2
Flags: W
LayerCount: 2
Fore
SplineSet
1124 181 m 1,0,1
 972 -20 972 -20 676 -20 c 0,2,3
 525 -20 525 -20 410 29 c 0,4,5
 84 171 84 171 84 736 c 0,6,7
 84 1180 84 1180 285 1361 c 1,8,9
 431 1485 431 1485 678 1485 c 0,10,11
 976 1485 976 1485 1125 1285 c 0,12,13
 1267 1089 1267 1089 1267 733 c 128,-1,14
 1267 377 1267 377 1124 181 c 1,0,1
505 250 m 0,15,16
 574 203 574 203 676 203 c 0,17,18
 753 203 753 203 810 227 c 0,19,20
 881 257 881 257 925 326 c 0,21,22
 1009 456 1009 456 1009 734 c 0,23,24
 1009 1084 1009 1084 873 1199 c 0,25,26
 799 1261 799 1261 678 1261 c 0,27,28
 494 1261 494 1261 412 1106 c 0,29,30
 342 974 342 974 342 732 c 0,31,32
 342 361 342 361 505 250 c 0,15,16
EndSplineSet
EndChar
StartChar: P
Encoding: 80 80 83
Width: 1229
GlyphClass: 2
Flags: W
LayerCount: 2
Fore
SplineSet
583 539 m 2,0,-1
 422 539 l 1,1,-1
 422 0 l 1,2,-1
 176 0 l 1,3,-1
 176 1462 l 1,4,-1
 610 1462 l 2,5,6
 1010 1462 1010 1462 1138 1339 c 1,7,8
 1214 1226 1214 1226 1214 1053 c 0,9,10
 1214 812 1214 812 1066 675 c 1,11,12
 908 539 908 539 583 539 c 2,0,-1
593 1243 m 2,13,-1
 422 1243 l 1,14,-1
 422 757 l 1,15,-1
 562 757 l 2,16,17
 777 757 777 757 870 818 c 0,18,19
 960 878 960 878 960 1008.5 c 128,-1,20
 960 1139 960 1139 850 1196 c 0,21,22
 759 1243 759 1243 593 1243 c 2,13,-1
EndSplineSet
EndChar
StartChar: Q
Encoding: 81 81 84
Width: 600
GlyphClass: 2
Flags: W
LayerCount: 2
Fore
SplineSet
549 627 m 1,0,1
 618 531 618 531 619 356 c 0,2,3
 619 110 619 110 482 24 c 1,4,5
 525 -51 525 -51 609 -106 c 2,6,-1
 623 -115 l 1,7,-1
 544 -208 l 1,8,-1
 533 -199 l 1,9,10
 412 -117 412 -117 360 -8 c 1,11,12
 345 -9 345 -9 330 -10 c 0,13,14
 256 -10 256 -10 200 14 c 0,15,16
 41 83 41 83 41 359 c 0,17,18
 41 576 41 576 139 665 c 1,19,20
 210 726 210 726 331 725 c 0,21,22
 476 725 476 725 549 627 c 1,0,1
247 122 m 0,23,24
 281 99 281 99 330 99 c 0,25,26
 367 99 367 99 395 111 c 0,27,28
 430 126 430 126 451 159 c 0,29,30
 492 222 492 222 492 358 c 0,31,32
 492 529 492 529 426 585 c 0,33,34
 390 615 390 615 331 616 c 0,35,36
 241 616 241 616 201 540 c 0,37,38
 167 476 167 476 167 357 c 0,39,40
 167 176 167 176 247 122 c 0,23,24
EndSplineSet
EndChar
StartChar: R
Encoding: 82 82 85
Width: 1229
GlyphClass: 2
Flags: W
LayerCount: 2
Fore
SplineSet
635 574 m 1,0,-1
 433 574 l 1,1,-1
 433 0 l 1,2,-1
 186 0 l 1,3,-1
 186 1462 l 1,4,-1
 589 1462 l 2,5,6
 951 1462 951 1462 1092 1309 c 0,7,8
 1183 1205 1183 1205 1183 1035 c 0,9,10
 1183 871 1183 871 1087 763 c 0,11,12
 1019 689 1019 689 895 644 c 1,13,-1
 1314 0 l 1,14,-1
 1025 0 l 1,15,-1
 635 574 l 1,0,-1
577 1243 m 2,16,-1
 433 1243 l 1,17,-1
 433 792 l 1,18,-1
 582 792 l 2,19,20
 761 792 761 792 841 848 c 0,21,22
 919 901 919 901 919 1023 c 0,23,24
 919 1141 919 1141 843 1191 c 0,25,26
 805 1216 805 1216 738 1229.5 c 128,-1,27
 671 1243 671 1243 577 1243 c 2,16,-1
EndSplineSet
EndChar
StartChar: S
Encoding: 83 83 86
Width: 600
GlyphClass: 2
Flags: W
LayerCount: 2
Fore
SplineSet
77 25 m 2,0,-1
 69 29 l 1,1,-1
 69 147 l 1,2,-1
 89 139 l 2,3,4
 190 98 190 98 297 98 c 0,5,6
 430 98 430 98 461 154 c 0,7,8
 471 172 471 172 471 196 c 0,9,10
 471 238 471 238 439 260 c 0,11,12
 403 285 403 285 288 319 c 0,13,14
 173 355 173 355 125.5 405.5 c 128,-1,15
 78 456 78 456 78 537 c 0,16,17
 78 625 78 625 146 675 c 1,18,19
 216 724 216 724 344 724 c 0,20,21
 471 724 471 724 566 685 c 1,22,-1
 579 679 l 1,23,-1
 537 572 l 1,24,-1
 523 578 l 2,25,26
 427 615 427 615 339 615 c 0,27,28
 229 615 229 615 204 567 c 0,29,30
 196 552 196 552 196 531 c 0,31,32
 196 489 196 489 227 465 c 0,33,34
 260 438 260 438 368 406 c 1,35,-1
 369 406 l 1,36,37
 503 364 503 364 545 317 c 0,38,39
 589 269 589 269 589 196 c 0,40,41
 589 133 589 133 557 86 c 0,42,43
 541 63 541 63 516 44 c 0,44,45
 441 -10 441 -10 295 -10 c 0,46,47
 153 -10 153 -10 77 25 c 2,0,-1
EndSplineSet
Validated: 1
EndChar
StartChar: T
Encoding: 84 84 87
Width: 600
GlyphClass: 2
Flags: W
LayerCount: 2
Fore
SplineSet
396 604 m 1,0,-1
 404 0 l 1,1,-1
 283 0 l 1,2,-1
 263 604 l 1,3,-1
 50 604 l 1,4,-1
 50 714 l 1,5,-1
 607 714 l 1,6,-1
 607 604 l 1,7,-1
 396 604 l 1,0,-1
EndSplineSet
EndChar
StartChar: U
Encoding: 85 85 88
Width: 1229
GlyphClass: 2
Flags: W
LayerCount: 2
Fore
SplineSet
978 1464 m 1,0,-1
 1224 1464 l 1,1,-1
 1224 524 l 2,2,3
 1224 263 1224 263 1090 121 c 0,4,5
 952 -20 952 -20 667 -20 c 0,6,7
 354 -20 354 -20 226 152 c 0,8,9
 125 288 125 288 125 528 c 2,10,-1
 125 1462 l 1,11,-1
 371 1462 l 1,12,-1
 371 544 l 2,13,14
 371 336 371 336 481 256 c 0,15,16
 554 203 554 203 678 203 c 0,17,18
 752 203 752 203 807 223 c 0,19,20
 974 285 974 285 978 546 c 1,21,-1
 978 1464 l 1,0,-1
EndSplineSet
EndChar
StartChar: V
Encoding: 86 86 89
Width: 600
GlyphClass: 2
Flags: W
LayerCount: 2
Fore
SplineSet
368 254 m 2,0,-1
 526 714 l 1,1,-1
 654 714 l 1,2,-1
 396 0 l 1,3,-1
 273 0 l 1,4,-1
 16 714 l 1,5,-1
 143 714 l 1,6,-1
 302 251 l 2,7,8
 317 208 317 208 334 146 c 1,9,10
 348 196 348 196 368 254 c 2,0,-1
EndSplineSet
EndChar
StartChar: W
Encoding: 87 87 90
Width: 600
GlyphClass: 2
Flags: W
LayerCount: 2
Fore
SplineSet
274 492 m 1,0,-1
 391 492 l 1,1,-1
 475 227 l 2,2,3
 484 195 484 195 491 169 c 1,4,5
 499 241 499 241 511 377 c 1,6,-1
 549 714 l 1,7,-1
 662 714 l 1,8,-1
 567 0 l 1,9,-1
 450 0 l 1,10,-1
 353 294 l 2,11,12
 342 328 342 328 333 362 c 1,13,14
 322 323 322 323 312 293 c 2,15,-1
 221 0 l 1,16,-1
 104 0 l 1,17,-1
 1 714 l 1,18,-1
 114 714 l 1,19,-1
 162 377 l 1,20,21
 170 289 170 289 179 181 c 1,22,23
 185 205 185 205 192 229 c 2,24,-1
 274 492 l 1,0,-1
EndSplineSet
EndChar
StartChar: X
Encoding: 88 88 91
Width: 600
GlyphClass: 2
Flags: W
LayerCount: 2
Fore
SplineSet
654 0 m 1,0,-1
 517 0 l 1,1,-1
 337 295 l 1,2,-1
 152 0 l 1,3,-1
 26 0 l 1,4,-1
 264 373 l 1,5,-1
 41 714 l 1,6,-1
 172 714 l 1,7,-1
 340 455 l 1,8,-1
 510 714 l 1,9,-1
 637 714 l 1,10,-1
 414 375 l 1,11,-1
 654 0 l 1,0,-1
EndSplineSet
Validated: 1
EndChar
StartChar: Y
Encoding: 89 89 92
Width: 1229
GlyphClass: 2
Flags: W
LayerCount: 2
Fore
SplineSet
560 559 m 1,0,-1
 33 1462 l 1,1,-1
 305 1462 l 1,2,-1
 692 759 l 1,3,-1
 1085 1462 l 1,4,-1
 1355 1462 l 1,5,-1
 827 568 l 1,6,-1
 827 0 l 1,7,-1
 560 0 l 1,8,-1
 560 559 l 1,0,-1
EndSplineSet
EndChar
StartChar: Z
Encoding: 90 90 93
Width: 1229
GlyphClass: 2
Flags: W
LayerCount: 2
Fore
SplineSet
1244 226 m 1,0,-1
 1244 0 l 1,1,-1
 102 0 l 1,2,-1
 102 176 l 1,3,-1
 921 1236 l 1,4,-1
 123 1236 l 1,5,-1
 123 1462 l 1,6,-1
 1224 1462 l 1,7,-1
 1224 1286 l 1,8,-1
 403 226 l 1,9,-1
 1244 226 l 1,0,-1
EndSplineSet
EndChar
StartChar: bracketleft
Encoding: 91 91 94
Width: 1229
GlyphClass: 2
Flags: W
LayerCount: 2
Fore
SplineSet
970 -354 m 1,0,-1
 382 -354 l 1,1,-1
 382 1492 l 1,2,-1
 970 1492 l 1,3,-1
 970 1283 l 1,4,-1
 624 1283 l 1,5,-1
 624 -144 l 1,6,-1
 970 -144 l 1,7,-1
 970 -354 l 1,0,-1
EndSplineSet
EndChar
StartChar: backslash
Encoding: 92 92 95
Width: 1229
GlyphClass: 2
Flags: W
LayerCount: 2
Fore
SplineSet
878 -30 m 1,0,-1
 165 1492 l 1,1,-1
 409 1492 l 1,2,-1
 1122 -30 l 1,3,-1
 878 -30 l 1,0,-1
EndSplineSet
EndChar
StartChar: bracketright
Encoding: 93 93 96
Width: 1229
GlyphClass: 2
Flags: W
LayerCount: 2
Fore
SplineSet
605 1283 m 1,0,-1
 259 1283 l 1,1,-1
 259 1492 l 1,2,-1
 847 1492 l 1,3,-1
 847 -354 l 1,4,-1
 259 -354 l 1,5,-1
 259 -144 l 1,6,-1
 605 -144 l 1,7,-1
 605 1283 l 1,0,-1
EndSplineSet
EndChar
StartChar: asciicircum
Encoding: 94 94 97
Width: 1229
GlyphClass: 2
Flags: W
LayerCount: 2
Fore
SplineSet
536 1503 m 1,0,-1
 689 1503 l 1,1,-1
 1227 519 l 1,2,-1
 997 519 l 1,3,-1
 617 1213 l 1,4,-1
 290 519 l 1,5,-1
 64 519 l 1,6,-1
 536 1503 l 1,0,-1
EndSplineSet
EndChar
StartChar: grave
Encoding: 96 96 99
Width: 1229
GlyphClass: 2
Flags: W
LayerCount: 2
Fore
SplineSet
841 1211 m 1,0,-1
 679 1211 l 1,1,-1
 671 1218 l 2,2,3
 501 1363 501 1363 393 1532 c 1,4,-1
 388 1539 l 1,5,-1
 388 1599 l 1,6,-1
 656 1599 l 1,7,8
 707 1494 707 1494 749.5 1420 c 128,-1,9
 792 1346 792 1346 841 1278 c 1,10,-1
 841 1211 l 1,0,-1
EndSplineSet
EndChar
StartChar: a
Encoding: 97 97 100
Width: 1229
GlyphClass: 2
Flags: W
LayerCount: 2
Fore
SplineSet
908 676 m 1,0,-1
 908 714 l 2,1,2
 908 823 908 823 837 869 c 0,3,4
 778 907 778 907 667 907 c 0,5,6
 508 907 508 907 318 828 c 1,7,-1
 291 815 l 1,8,-1
 204 1006 l 1,9,-1
 230 1019 l 1,10,11
 439 1118 439 1118 658 1118 c 0,12,13
 924 1118 924 1118 1035 1027.5 c 128,-1,14
 1146 937 1146 937 1146 742 c 2,15,-1
 1146 0 l 1,16,-1
 961 0 l 1,17,-1
 931 125 l 1,18,19
 860 53 860 53 781 20 c 0,20,21
 682 -20 682 -20 530 -20 c 0,22,23
 338 -20 338 -20 237 68 c 0,24,25
 135 157 135 157 135 315 c 0,26,27
 135 399 135 399 169 464 c 0,28,29
 272 658 272 658 712 670 c 2,30,-1
 908 676 l 1,0,-1
462 473 m 0,31,32
 384 429 384 429 384 335 c 0,33,34
 384 252 384 252 440 217 c 0,35,36
 487 187 487 187 577 187 c 0,37,38
 729 187 729 187 818 260 c 0,39,40
 906 333 906 333 906 468 c 2,41,-1
 906 536 l 1,42,-1
 759 530 l 2,43,44
 547 522 547 522 462 473 c 0,31,32
EndSplineSet
EndChar
StartChar: b
Encoding: 98 98 101
Width: 1229
GlyphClass: 2
Flags: W
LayerCount: 2
Fore
SplineSet
400 1150 m 2,0,1
 400 1093 400 1093 396 1004 c 1,2,3
 520 1118 520 1118 726 1118 c 0,4,5
 846 1118 846 1118 942 1077 c 0,6,7
 1030 1039 1030 1039 1091 963 c 0,8,9
 1212 814 1212 814 1212 550 c 0,10,11
 1211 284 1211 284 1091 134 c 0,12,13
 967 -20 967 -20 726 -20 c 0,14,15
 506 -20 506 -20 375 115 c 1,16,-1
 344 0 l 1,17,-1
 158 0 l 1,18,-1
 158 1556 l 1,19,-1
 400 1556 l 1,20,-1
 400 1150 l 2,0,1
400 551 m 128,-1,22
 400 350 400 350 471 269 c 0,23,24
 505 230 505 230 559 210.5 c 128,-1,25
 613 191 613 191 692 191 c 0,26,27
 759 191 759 191 808 212 c 0,28,29
 963 276 963 276 963 553 c 0,30,31
 963 823 963 823 807 887 c 0,32,33
 757 907 757 907 689 907 c 0,34,35
 533 907 533 907 468 832 c 0,36,21
 400 752 400 752 400 551 c 128,-1,22
EndSplineSet
EndChar
StartChar: c
Encoding: 99 99 102
Width: 600
GlyphClass: 2
Flags: W
LayerCount: 2
Fore
SplineSet
526 412 m 2,0,1
 455 439 455 439 393 438 c 0,2,3
 339 438 339 438 302 425.5 c 128,-1,4
 265 413 265 413 243 387 c 0,5,6
 205 345 205 345 205 266 c 0,7,8
 205 189 205 189 242 148 c 0,9,10
 286 97 286 97 388 97 c 0,11,12
 471 97 471 97 547 126 c 2,13,-1
 567 134 l 1,14,-1
 567 25 l 1,15,-1
 559 21 l 2,16,17
 491 -10 491 -10 383 -10 c 0,18,19
 235 -10 235 -10 158 62 c 1,20,21
 84 133 84 133 84 265 c 0,22,23
 84 401 84 401 159 474 c 1,24,25
 238 546 238 546 390 546 c 0,26,27
 488 546 488 546 567 516 c 2,28,-1
 581 511 l 1,29,-1
 540 406 l 1,30,-1
 526 412 l 2,0,1
EndSplineSet
EndChar
StartChar: d
Encoding: 100 100 103
Width: 1229
GlyphClass: 2
Flags: W
LayerCount: 2
Fore
SplineSet
623 1118 m 0,0,1
 824 1118 824 1118 954 1003 c 1,2,3
 949 1066 949 1066 949 1090 c 2,4,-1
 949 1556 l 1,5,-1
 1191 1556 l 1,6,-1
 1191 0 l 1,7,-1
 989 0 l 1,8,-1
 968 114 l 1,9,10
 839 -20 839 -20 623 -20 c 0,11,12
 381 -20 381 -20 258 133 c 0,13,14
 137 282 137 282 137 547 c 128,-1,15
 137 812 137 812 258 962 c 0,16,17
 320 1038 320 1038 408 1077 c 0,18,19
 504 1118 504 1118 623 1118 c 0,0,1
949 510 m 1,20,-1
 949 547 l 2,21,22
 949 697 949 697 908 783 c 0,23,24
 895 810 895 810 878 829 c 0,25,26
 844 868 844 868 790 887.5 c 128,-1,27
 736 907 736 907 657 907 c 0,28,29
 590 907 590 907 541 886 c 0,30,31
 386 822 386 822 386 545 c 0,32,33
 386 275 386 275 542 211 c 0,34,35
 592 191 592 191 660 191 c 0,36,37
 813 191 813 191 877 262 c 0,38,39
 945 336 945 336 949 510 c 1,20,-1
EndSplineSet
EndChar
StartChar: e
Encoding: 101 101 104
Width: 1229
GlyphClass: 2
Flags: W
LayerCount: 2
Fore
SplineSet
456 293 m 0,0,1
 541 199 541 199 732 199 c 0,2,3
 942 199 942 199 1114 273 c 2,4,-1
 1156 291 l 1,5,-1
 1156 66 l 1,6,-1
 1138 58 l 2,7,8
 966 -20 966 -20 738 -20 c 0,9,10
 452 -20 452 -20 289 130 c 1,11,12
 133 281 133 281 133 543 c 128,-1,13
 133 805 133 805 277 961 c 0,14,15
 425 1118 425 1118 693 1118 c 0,16,17
 943 1118 943 1118 1081 981 c 0,18,19
 1216 845 1216 845 1216 621 c 2,20,-1
 1216 484 l 1,21,-1
 384 484 l 1,22,23
 393 362 393 362 456 293 c 0,0,1
957 692 m 1,24,25
 951 784 951 784 904 835 c 0,26,27
 839 907 839 907 686.5 907 c 128,-1,28
 534 907 534 907 460 834 c 0,29,30
 407 782 407 782 391 692 c 1,31,-1
 957 692 l 1,24,25
EndSplineSet
EndChar
StartChar: f
Encoding: 102 102 105
Width: 600
GlyphClass: 2
Flags: W
LayerCount: 2
Fore
SplineSet
366 572 m 2,0,-1
 366 536 l 1,1,-1
 568 536 l 1,2,-1
 568 440 l 1,3,-1
 366 440 l 1,4,-1
 378 0 l 1,5,-1
 260 0 l 1,6,-1
 235 440 l 1,7,-1
 76 440 l 1,8,-1
 76 521 l 1,9,-1
 235 538 l 1,10,-1
 235 571 l 2,11,12
 235 672 235 672 288.5 718.5 c 128,-1,13
 342 765 342 765 462 765 c 0,14,15
 529 765 529 765 592 748 c 2,16,-1
 606 744 l 1,17,-1
 578 646 l 1,18,-1
 564 649 l 2,19,20
 515 662 515 662 465 663 c 0,21,22
 405 663 405 663 385.5 643 c 128,-1,23
 366 623 366 623 366 572 c 2,0,-1
EndSplineSet
EndChar
StartChar: g
Encoding: 103 103 106
Width: 600
GlyphClass: 2
Flags: W
LayerCount: 2
Fore
SplineSet
90 21 m 0,0,1
 113 42 113 42 148 55 c 1,2,3
 120 80 120 80 120 122 c 0,4,5
 120 172 120 172 171 209 c 1,6,7
 139 228 139 228 119 261 c 0,8,9
 92 304 92 304 92 355 c 0,10,11
 92 446 92 446 148 496 c 1,12,13
 208 546 208 546 320 546 c 0,14,15
 367 546 367 546 404 536 c 1,16,-1
 608 536 l 1,17,-1
 608 457 l 1,18,-1
 523 445 l 1,19,20
 544 407 544 407 544 356 c 0,21,22
 544 274 544 274 488 226 c 1,23,24
 426 177 426 177 317 177 c 0,25,26
 291 177 291 177 274 180 c 1,27,28
 233 162 233 162 233 139 c 0,29,30
 233 132 233 132 240 128 c 128,-1,31
 247 124 247 124 262 121 c 128,-1,32
 277 118 277 118 304 118 c 2,33,-1
 404 118 l 2,34,35
 502 118 502 118 551 77 c 0,36,37
 601 35 601 35 602 -42 c 0,38,39
 602 -62 602 -62 599.5 -74.5 c 128,-1,40
 597 -87 597 -87 595 -96 c 0,41,42
 576 -166 576 -166 509 -202 c 1,43,44
 432 -240 432 -240 293 -240 c 0,45,46
 171 -240 171 -240 111 -198 c 0,47,48
 49 -154 49 -154 50 -76 c 0,49,50
 49 -16 49 -16 90 21 c 0,0,1
244 285 m 0,51,52
 269 268 269 268 318 268 c 0,53,54
 377 268 377 268 402 294 c 0,55,56
 423 316 423 316 422.5 358.5 c 128,-1,57
 422 401 422 401 401 425 c 0,58,59
 376 453 376 453 317 453 c 0,60,61
 276 453 276 453 253 440 c 0,62,63
 241 434 241 434 232 423.5 c 128,-1,64
 223 413 223 413 217.5 396 c 128,-1,65
 212 379 212 379 212 357 c 0,66,67
 212 306 212 306 244 285 c 0,51,52
469 -4 m 0,68,69
 446 9 446 9 371 9 c 2,70,-1
 270 9 l 2,71,72
 220 9 220 9 193 -8 c 0,73,74
 163 -28 163 -28 163 -73 c 0,75,76
 163 -91 163 -91 169 -104 c 0,77,78
 185 -131 185 -131 238 -140 c 0,79,80
 261 -144 261 -144 292 -144 c 0,81,82
 383 -144 383 -144 432 -124 c 0,83,84
 473 -107 473 -107 484 -76 c 0,85,86
 488 -64 488 -64 488 -49 c 0,87,88
 488 -15 488 -15 469 -4 c 0,68,69
EndSplineSet
Validated: 33
EndChar
StartChar: h
Encoding: 104 104 107
Width: 1229
GlyphClass: 2
Flags: W
LayerCount: 2
Fore
SplineSet
402 1063 m 1,0,-1
 399 1001 l 1,1,2
 524 1118 524 1118 748 1118 c 0,3,4
 1001 1118 1001 1118 1106 990 c 0,5,6
 1189 888 1189 888 1189 709 c 2,7,-1
 1189 0 l 1,8,-1
 947 0 l 1,9,-1
 947 691 l 2,10,11
 947 790 947 790 901 843 c 0,12,13
 873 875 873 875 827 891 c 128,-1,14
 781 907 781 907 708 907 c 128,-1,15
 635 907 635 907 577 886 c 0,16,17
 402 824 402 824 402 562 c 2,18,-1
 402 0 l 1,19,-1
 160 0 l 1,20,-1
 160 1556 l 1,21,-1
 402 1556 l 1,22,-1
 402 1063 l 1,0,-1
EndSplineSet
EndChar
StartChar: i
Encoding: 105 105 108
Width: 600
GlyphClass: 2
Flags: W
LayerCount: 2
Fore
SplineSet
257 686.5 m 128,-1,1
 257 716 257 716 270 734 c 0,2,3
 288 757 288 757 324 757 c 128,-1,4
 360 757 360 757 377 734 c 1,5,6
 395 716 395 716 395 687 c 0,7,8
 395 652 395 652 370 634 c 1,9,10
 350 616 350 616 324 616 c 0,11,12
 287 616 287 616 270 639 c 0,13,0
 257 657 257 657 257 686.5 c 128,-1,1
264 443 m 1,14,-1
 133 453 l 1,15,-1
 133 536 l 1,16,-1
 382 536 l 1,17,-1
 405 93 l 1,18,-1
 583 84 l 1,19,-1
 583 0 l 1,20,-1
 96 0 l 1,21,-1
 96 84 l 1,22,-1
 271 93 l 1,23,-1
 264 443 l 1,14,-1
EndSplineSet
Validated: 1
EndChar
StartChar: j
Encoding: 106 106 109
Width: 1229
GlyphClass: 2
Flags: W
LayerCount: 2
Fore
SplineSet
833 1550 m 128,-1,1
 907 1550 907 1550 943 1503 c 0,2,3
 970 1467 970 1467 970 1406 c 128,-1,4
 970 1345 970 1345 943 1309 c 0,5,6
 908 1261 908 1261 833.5 1261 c 128,-1,7
 759 1261 759 1261 723 1309 c 1,8,9
 690 1345 690 1345 690 1406 c 128,-1,10
 690 1467 690 1467 723 1503 c 1,11,0
 759 1550 759 1550 833 1550 c 128,-1,1
157 -456 m 2,12,-1
 135 -450 l 1,13,-1
 135 -233 l 1,14,-1
 173 -244 l 2,15,16
 303 -282 303 -282 469 -282 c 0,17,18
 597 -282 597 -282 665 -233 c 0,19,20
 732 -184 732 -184 732 -97 c 2,21,-1
 732 905 l 1,22,-1
 252 925 l 1,23,-1
 252 1098 l 1,24,-1
 974 1098 l 1,25,-1
 974 -87 l 2,26,27
 974 -281 974 -281 851.5 -386.5 c 128,-1,28
 729 -492 729 -492 467 -492 c 0,29,30
 284 -492 284 -492 157 -456 c 2,12,-1
EndSplineSet
EndChar
StartChar: k
Encoding: 107 107 110
Width: 1229
GlyphClass: 2
Flags: W
LayerCount: 2
Fore
SplineSet
455 436 m 1,0,-1
 455 0 l 1,1,-1
 215 0 l 1,2,-1
 215 1556 l 1,3,-1
 455 1556 l 1,4,-1
 455 811 l 1,5,-1
 443 602 l 1,6,-1
 535 696 l 1,7,-1
 986 1098 l 1,8,-1
 1299 1098 l 1,9,-1
 742 617 l 1,10,-1
 1317 0 l 1,11,-1
 1026 0 l 1,12,-1
 559 495 l 1,13,-1
 455 436 l 1,0,-1
EndSplineSet
EndChar
StartChar: l
Encoding: 108 108 111
Width: 1229
GlyphClass: 2
Flags: W
LayerCount: 2
Fore
SplineSet
545 1355 m 1,0,-1
 264 1376 l 1,1,-1
 264 1556 l 1,2,-1
 821 1556 l 1,3,-1
 821 194 l 1,4,-1
 1187 175 l 1,5,-1
 1187 0 l 1,6,-1
 188 0 l 1,7,-1
 188 174 l 1,8,-1
 545 193 l 1,9,-1
 545 1355 l 1,0,-1
EndSplineSet
EndChar
StartChar: m
Encoding: 109 109 112
Width: 600
GlyphClass: 2
Flags: W
LayerCount: 2
Fore
SplineSet
644 0 m 1,0,-1
 536 0 l 1,1,-1
 536 337 l 2,2,3
 536 401 536 401 521 425 c 0,4,5
 514 435 514 435 504 439 c 0,6,7
 495 442 495 442 483 443 c 0,8,9
 459 443 459 443 443 434 c 0,10,11
 430 427 430 427 421 413 c 0,12,13
 406 391 406 391 401 344 c 0,14,15
 398 321 398 321 398 292 c 2,16,-1
 398 0 l 1,17,-1
 291 0 l 1,18,-1
 291 337 l 2,19,20
 291 396 291 396 272 423 c 0,21,22
 264 434 264 434 253 439 c 0,23,24
 244 443 244 443 233 443 c 0,25,26
 213 444 213 444 200 438 c 0,27,28
 184 431 184 431 175 416 c 0,29,30
 154 381 154 381 153 274 c 2,31,-1
 153 0 l 1,32,-1
 45 0 l 1,33,-1
 45 536 l 1,34,-1
 134 536 l 1,35,-1
 143 488 l 1,36,37
 169 525 169 525 211 539 c 0,38,39
 234 546 234 546 261 546 c 0,40,41
 318 546 318 546 349 514 c 0,42,43
 364 499 364 499 375 477 c 1,44,45
 401 522 401 522 450 538 c 0,46,47
 475 546 475 546 503 546 c 0,48,49
 541 546 541 546 565 536 c 0,50,51
 595 524 595 524 613 496 c 0,52,53
 644 450 644 450 644 346 c 2,54,-1
 644 0 l 1,0,-1
EndSplineSet
EndChar
StartChar: n
Encoding: 110 110 113
Width: 1229
GlyphClass: 2
Flags: W
LayerCount: 2
Fore
SplineSet
362 1098 m 1,0,-1
 383 984 l 1,1,2
 508 1118 508 1118 748 1118 c 0,3,4
 1001 1118 1001 1118 1106 990 c 0,5,6
 1189 888 1189 888 1189 709 c 2,7,-1
 1189 0 l 1,8,-1
 947 0 l 1,9,-1
 947 691 l 2,10,11
 947 790 947 790 901 843 c 0,12,13
 873 875 873 875 827 891 c 128,-1,14
 781 907 781 907 708 907 c 128,-1,15
 635 907 635 907 577 886 c 0,16,17
 402 824 402 824 402 562 c 2,18,-1
 402 0 l 1,19,-1
 160 0 l 1,20,-1
 160 1098 l 1,21,-1
 362 1098 l 1,0,-1
EndSplineSet
EndChar
StartChar: o
Encoding: 111 111 114
Width: 1229
GlyphClass: 2
Flags: W
LayerCount: 2
Fore
SplineSet
1087 134 m 0,0,1
 937 -20 937 -20 670 -20 c 0,2,3
 416 -20 416 -20 263 137 c 0,4,5
 115 293 115 293 115 552.5 c 128,-1,6
 115 812 115 812 259 965 c 0,7,8
 407 1118 407 1118 676 1118 c 0,9,10
 803 1118 803 1118 909 1077 c 0,11,12
 1012 1037 1012 1037 1085 959 c 0,13,14
 1232 804 1232 804 1232 550 c 0,15,16
 1232 288 1232 288 1087 134 c 0,0,1
674 191 m 128,-1,18
 752 191 752 191 809 212 c 0,19,20
 984 277 984 277 984 551 c 0,21,22
 984 822 984 822 808 886 c 0,23,24
 750 907 750 907 672 907 c 128,-1,25
 594 907 594 907 537 886 c 0,26,27
 363 822 363 822 363 551 c 0,28,29
 363 277 363 277 539 212 c 0,30,17
 596 191 596 191 674 191 c 128,-1,18
EndSplineSet
EndChar
StartChar: p
Encoding: 112 112 115
Width: 1229
GlyphClass: 2
Flags: W
LayerCount: 2
Fore
SplineSet
360 1098 m 1,0,-1
 383 984 l 1,1,2
 512 1118 512 1118 728 1118 c 0,3,4
 847 1118 847 1118 942 1077 c 0,5,6
 1030 1039 1030 1039 1091 963 c 0,7,8
 1212 814 1212 814 1212 550 c 0,9,10
 1211 284 1211 284 1091 134 c 0,11,12
 967 -20 967 -20 728 -20 c 0,13,14
 528 -20 528 -20 399 94 c 1,15,16
 404 31 404 31 404 7 c 2,17,-1
 404 -492 l 1,18,-1
 158 -492 l 1,19,-1
 158 1098 l 1,20,-1
 360 1098 l 1,0,-1
404 588 m 1,21,-1
 404 551 l 2,22,23
 404 350 404 350 475 269 c 0,24,25
 509 230 509 230 562.5 210.5 c 128,-1,26
 616 191 616 191 694 191 c 0,27,28
 761 191 761 191 810 212 c 0,29,30
 963 276 963 276 963 553 c 0,31,32
 963 823 963 823 809 887 c 0,33,34
 759 907 759 907 692 907 c 0,35,36
 540 907 540 907 476 837 c 0,37,38
 409 763 409 763 404 588 c 1,21,-1
EndSplineSet
EndChar
StartChar: q
Encoding: 113 113 116
Width: 600
GlyphClass: 2
Flags: W
LayerCount: 2
Fore
SplineSet
461 3 m 2,0,1
 461 17 461 17 464 48 c 1,2,3
 402 -10 402 -10 303 -10 c 0,4,5
 186 -10 186 -10 126 65 c 0,6,7
 67 138 67 138 67 267 c 128,-1,8
 67 396 67 396 126 470 c 0,9,10
 156 507 156 507 199 526 c 0,11,12
 245 546 245 546 303 546 c 0,13,14
 407 546 407 546 472 480 c 1,15,-1
 483 536 l 1,16,-1
 582 536 l 1,17,-1
 582 -240 l 1,18,-1
 461 -240 l 1,19,-1
 461 3 l 2,0,1
461 249 m 1,20,-1
 461 267 l 2,21,22
 461 340 461 340 441 382 c 0,23,24
 435 395 435 395 427 405 c 0,25,26
 410 424 410 424 384 433.5 c 128,-1,27
 358 443 358 443 320 443 c 0,28,29
 287 443 287 443 263 433 c 0,30,31
 188 402 188 402 188 266 c 0,32,33
 188 134 188 134 264 103 c 0,34,35
 288 93 288 93 321 93 c 0,36,37
 395 93 395 93 426 128 c 0,38,39
 459 164 459 164 461 249 c 1,20,-1
EndSplineSet
Validated: 1
EndChar
StartChar: r
Encoding: 114 114 117
Width: 600
GlyphClass: 2
Flags: W
LayerCount: 2
Fore
SplineSet
532 415 m 2,0,1
 474 436 474 436 423 436 c 0,2,3
 339 436 339 436 294.5 397.5 c 128,-1,4
 250 359 250 359 250 285 c 2,5,-1
 250 0 l 1,6,-1
 129 0 l 1,7,-1
 129 536 l 1,8,-1
 229 536 l 1,9,-1
 239 459 l 1,10,11
 274 499 274 499 313 519 c 0,12,13
 366 546 366 546 441 546 c 0,14,15
 503 546 503 546 566 523 c 2,16,-1
 579 518 l 1,17,-1
 547 409 l 1,18,-1
 532 415 l 2,0,1
EndSplineSet
Validated: 1
EndChar
StartChar: s
Encoding: 115 115 118
Width: 600
GlyphClass: 2
Flags: W
LayerCount: 2
Fore
SplineSet
107 26 m 1,0,-1
 99 30 l 1,1,-1
 99 142 l 1,2,-1
 120 133 l 2,3,4
 211 92 211 92 306 92 c 0,5,6
 371 92 371 92 406 105 c 0,7,8
 436 117 436 117 442 139 c 0,9,10
 443 145 443 145 443 153 c 0,11,12
 443 173 443 173 422 188 c 0,13,14
 411 195 411 195 383 207 c 0,15,16
 357 217 357 217 300 234 c 0,17,18
 198 266 198 266 159 294 c 0,19,20
 147 303 147 303 140 311 c 0,21,22
 107 348 107 348 107 398 c 0,23,24
 107 468 107 468 167 508 c 0,25,26
 227 546 227 546 343 546 c 0,27,28
 455 546 455 546 542 509 c 2,29,-1
 555 503 l 1,30,-1
 515 403 l 1,31,-1
 501 409 l 2,32,33
 411 443 411 443 337 443 c 0,34,35
 254 443 254 443 230 419 c 0,36,37
 221 410 221 410 222 396 c 0,38,39
 222 375 222 375 243 362 c 0,40,41
 269 346 269 346 370 317 c 1,42,43
 486 280 486 280 521 244 c 0,44,45
 559 206 559 206 560 151 c 0,46,47
 560 75 560 75 497 32 c 0,48,49
 435 -10 435 -10 309 -10 c 0,50,51
 172 -10 172 -10 107 26 c 1,0,-1
EndSplineSet
Validated: 1
EndChar
StartChar: t
Encoding: 116 116 119
Width: 1229
GlyphClass: 2
Flags: W
LayerCount: 2
Fore
SplineSet
1106 210 m 2,0,-1
 1140 215 l 1,1,-1
 1140 18 l 1,2,-1
 1117 13 l 2,3,4
 984 -20 984 -20 852 -20 c 0,5,6
 659 -20 659 -20 549 50 c 0,7,8
 409 138 409 138 409 331 c 2,9,-1
 409 901 l 1,10,-1
 139 901 l 1,11,-1
 139 1050 l 1,12,-1
 416 1100 l 1,13,-1
 504 1391 l 1,14,-1
 683 1391 l 1,15,-1
 683 1098 l 1,16,-1
 1146 1098 l 1,17,-1
 1146 901 l 1,18,-1
 683 901 l 1,19,-1
 683 341 l 2,20,21
 683 271 683 271 718 234 c 0,22,23
 762 189 762 189 865 189 c 0,24,25
 961 189 961 189 1106 210 c 2,0,-1
EndSplineSet
EndChar
StartChar: u
Encoding: 117 117 120
Width: 1229
GlyphClass: 2
Flags: W
LayerCount: 2
Fore
SplineSet
966 114 m 1,0,1
 838 -20 838 -20 603 -20 c 0,2,3
 349 -20 349 -20 244 108 c 0,4,5
 160 210 160 210 160 389 c 2,6,-1
 160 1098 l 1,7,-1
 402 1098 l 1,8,-1
 402 407 l 2,9,10
 402 307 402 307 448 255 c 0,11,12
 503 191 503 191 633 191 c 0,13,14
 798 191 798 191 871 267 c 0,15,16
 947 346 947 346 947 535 c 2,17,-1
 947 1098 l 1,18,-1
 1189 1098 l 1,19,-1
 1189 0 l 1,20,-1
 987 0 l 1,21,-1
 966 114 l 1,0,1
EndSplineSet
EndChar
StartChar: v
Encoding: 118 118 121
Width: 600
GlyphClass: 2
Flags: W
LayerCount: 2
Fore
SplineSet
263 0 m 1,0,-1
 40 536 l 1,1,-1
 163 536 l 1,2,3
 302 191 302 191 308 176 c 128,-1,4
 314 161 314 161 319 147 c 0,5,6
 329 120 329 120 336 98 c 1,7,8
 349 135 349 135 375 208 c 1,9,10
 507 536 l 1,11,-1
 631 536 l 1,12,-1
 408 0 l 1,13,-1
 263 0 l 1,0,-1
EndSplineSet
EndChar
StartChar: w
Encoding: 119 119 122
Width: 1229
GlyphClass: 2
Flags: W
LayerCount: 2
Fore
SplineSet
469 0 m 1,0,-1
 231 0 l 1,1,-1
 -4 1098 l 1,2,-1
 220 1098 l 1,3,-1
 322 530 l 2,4,5
 342 425 342 425 357 312 c 1,6,7
 375 406 375 406 394 496 c 1,8,-1
 593 1098 l 1,9,-1
 834 1098 l 1,10,-1
 966 496 l 2,11,12
 987 400 987 400 1004 311 c 1,13,14
 1022 438 1022 438 1040 531 c 1,15,-1
 1207 1098 l 1,16,-1
 1426 1098 l 1,17,-1
 1129 0 l 1,18,-1
 886 0 l 1,19,-1
 749 620 l 1,20,-1
 708 818 l 1,21,-1
 669 615 l 1,22,-1
 469 0 l 1,0,-1
EndSplineSet
EndChar
StartChar: x
Encoding: 120 120 123
Width: 600
GlyphClass: 2
Flags: W
LayerCount: 2
Fore
SplineSet
185 0 m 1,0,-1
 47 0 l 1,1,-1
 267 274 l 1,2,-1
 57 536 l 1,3,-1
 195 536 l 1,4,-1
 343 347 l 1,5,-1
 493 536 l 1,6,-1
 630 536 l 1,7,-1
 419 274 l 1,8,-1
 639 0 l 1,9,-1
 502 0 l 1,10,-1
 343 202 l 1,11,-1
 185 0 l 1,0,-1
EndSplineSet
EndChar
StartChar: y
Encoding: 121 121 124
Width: 1229
GlyphClass: 2
Flags: W
LayerCount: 2
Fore
SplineSet
82 1098 m 1,0,-1
 335 1098 l 1,1,-1
 630 425 l 2,2,3
 678 315 678 315 702 241 c 1,4,5
 728 322 728 322 771 426 c 2,6,-1
 1040 1098 l 1,7,-1
 1293 1098 l 1,8,-1
 781 -124 l 2,9,10
 705 -304 705 -304 603 -396 c 0,11,12
 496 -492 496 -492 313 -492 c 0,13,14
 224 -492 224 -492 139 -474 c 2,15,-1
 115 -469 l 1,16,-1
 115 -264 l 1,17,-1
 151 -271 l 2,18,19
 210 -282 210 -282 281 -282 c 0,20,21
 370 -282 370 -282 419 -247 c 0,22,23
 471 -211 471 -211 513 -119 c 2,24,-1
 572 20 l 1,25,-1
 82 1098 l 1,0,-1
EndSplineSet
EndChar
StartChar: z
Encoding: 122 122 125
Width: 1229
GlyphClass: 2
Flags: W
LayerCount: 2
Fore
SplineSet
1164 197 m 1,0,-1
 1164 0 l 1,1,-1
 182 0 l 1,2,-1
 182 155 l 1,3,-1
 863 901 l 1,4,-1
 215 901 l 1,5,-1
 215 1098 l 1,6,-1
 1146 1098 l 1,7,-1
 1146 923 l 1,8,-1
 477 197 l 1,9,-1
 1164 197 l 1,0,-1
EndSplineSet
EndChar
StartChar: braceleft
Encoding: 123 123 126
Width: 1229
GlyphClass: 2
Flags: W
LayerCount: 2
Fore
SplineSet
833 -16 m 2,0,1
 833 -87 833 -87 886 -114 c 0,2,3
 938 -142 938 -142 1061 -144 c 2,4,-1
 1091 -144 l 1,5,-1
 1091 -354 l 1,6,-1
 1061 -354 l 1,7,8
 689 -349 689 -349 584 -169 c 0,9,10
 549 -109 549 -109 549 -31 c 2,11,-1
 549 303 l 2,12,13
 549 351 549 351 519 383 c 0,14,15
 470 435 470 435 353 453 c 0,16,17
 297 462 297 462 225 462 c 2,18,-1
 195 462 l 1,19,-1
 195 677 l 1,20,-1
 225 677 l 2,21,22
 369 677 369 677 447 712 c 1,23,24
 522 740 522 740 542 792 c 0,25,26
 549 811 549 811 549 836 c 2,27,-1
 549 1169 l 2,28,29
 549 1297 549 1297 642 1375 c 0,30,31
 776 1488 776 1488 1061 1492 c 1,32,-1
 1091 1492 l 1,33,-1
 1091 1283 l 1,34,-1
 1061 1283 l 2,35,36
 926 1281 926 1281 878 1249 c 0,37,38
 833 1220 833 1220 833 1155 c 2,39,-1
 833 823 l 2,40,41
 833 695 833 695 737 622 c 0,42,43
 694 589 694 589 633 569 c 1,44,45
 694 549 694 549 737 516 c 0,46,47
 833 443 833 443 833 315 c 2,48,-1
 833 -16 l 2,0,1
EndSplineSet
EndChar
StartChar: bar
Encoding: 124 124 127
Width: 600
GlyphClass: 2
Flags: W
LayerCount: 2
Fore
SplineSet
249 774 m 1,0,-1
 351 774 l 1,1,-1
 351 -255 l 1,2,-1
 249 -255 l 1,3,-1
 249 774 l 1,0,-1
EndSplineSet
Validated: 1
Substitution2: "Single Substitution lookup 8 subtable" bar_greater
EndChar
StartChar: braceright
Encoding: 125 125 128
Width: 1229
GlyphClass: 2
Flags: W
LayerCount: 2
Fore
SplineSet
455 315 m 2,0,1
 455 444 455 444 551 516 c 0,2,3
 595 549 595 549 656 569 c 1,4,5
 595 589 595 589 551 622 c 0,6,7
 455 694 455 694 455 823 c 2,8,-1
 455 1155 l 2,9,10
 455 1189 455 1189 442 1212 c 0,11,12
 422 1256 422 1256 353 1271 c 0,13,14
 303 1282 303 1282 227 1283 c 2,15,-1
 197 1283 l 1,16,-1
 197 1492 l 1,17,-1
 227 1492 l 1,18,19
 599 1487 599 1487 705 1307 c 0,20,21
 740 1247 740 1247 740 1169 c 2,22,-1
 740 836 l 2,23,24
 740 788 740 788 770 756 c 0,25,26
 795 729 795 729 842 712 c 0,27,28
 920 677 920 677 1064 677 c 2,29,-1
 1094 677 l 1,30,-1
 1094 462 l 1,31,-1
 1064 462 l 2,32,33
 920 462 920 462 842 427 c 1,34,35
 758 395 758 395 743 334 c 0,36,37
 740 319 740 319 740 303 c 2,38,-1
 740 -31 l 2,39,40
 740 -188 740 -188 599 -271 c 0,41,42
 462 -351 462 -351 227 -354 c 2,43,-1
 197 -354 l 1,44,-1
 197 -144 l 1,45,-1
 227 -144 l 2,46,47
 361 -143 361 -143 410 -110 c 0,48,49
 432 -95 432 -95 442 -73 c 0,50,51
 455 -50 455 -50 455 -16 c 2,52,-1
 455 315 l 2,0,1
EndSplineSet
EndChar
StartChar: asciitilde
Encoding: 126 126 129
Width: 1229
GlyphClass: 2
Flags: W
LayerCount: 2
Fore
SplineSet
122 513 m 1,0,-1
 122 760 l 1,1,-1
 130 768 l 1,2,3
 238 886 238 886 403 886 c 0,4,5
 522 886 522 886 694 821 c 0,6,7
 764 794 764 794 818 780.5 c 128,-1,8
 872 767 872 767 907 767 c 0,9,10
 1003 767 1003 767 1114 879 c 2,11,-1
 1165 931 l 1,12,-1
 1165 684 l 1,13,-1
 1157 676 l 1,14,15
 1049 558 1049 558 883 558 c 0,16,17
 764 558 764 558 593 623 c 0,18,19
 452 677 452 677 380 677 c 0,20,21
 284 677 284 677 173 565 c 2,22,-1
 122 513 l 1,0,-1
EndSplineSet
EndChar
StartChar: exclamdown
Encoding: 161 161 164
Width: 600
GlyphClass: 2
Flags: W
LayerCount: 2
Fore
SplineSet
300 396 m 128,-1,1
 258 396 258 396 238 422 c 0,2,3
 223 443 223 443 223 478 c 128,-1,4
 223 513 223 513 238 534 c 0,5,6
 258 561 258 561 300 561 c 128,-1,7
 342 561 342 561 361 534 c 0,8,9
 376 513 376 513 376 478 c 128,-1,10
 376 443 376 443 361 422 c 0,11,0
 342 396 342 396 300 396 c 128,-1,1
343 345 m 1,12,-1
 369 -197 l 1,13,-1
 230 -197 l 1,14,-1
 256 345 l 1,15,-1
 343 345 l 1,12,-1
EndSplineSet
EndChar
StartChar: cent
Encoding: 162 162 165
Width: 1229
GlyphClass: 2
Flags: W
LayerCount: 2
Fore
SplineSet
600 1513 m 1,0,-1
 823 1513 l 1,1,-1
 823 1348 l 1,2,3
 985 1341 985 1341 1131 1288 c 2,4,-1
 1160 1278 l 1,5,-1
 1076 1063 l 1,6,-1
 1048 1074 l 2,7,8
 902 1129 902 1129 775 1129 c 0,9,10
 560 1129 560 1129 467 1014 c 0,11,12
 390 919 390 919 390 745 c 0,13,14
 390 575 390 575 464 482 c 0,15,16
 509 426 509 426 583 398 c 128,-1,17
 657 370 657 370 764 370 c 0,18,19
 929 370 929 370 1092 429 c 2,20,-1
 1132 444 l 1,21,-1
 1132 223 l 1,22,-1
 1115 215 l 2,23,24
 997 158 997 158 823 151 c 1,25,-1
 823 -50 l 1,26,-1
 600 -50 l 1,27,-1
 600 161 l 1,28,29
 341 206 341 206 232 376 c 0,30,31
 142 517 142 517 142 744 c 128,-1,32
 142 971 142 971 232 1115 c 0,33,34
 341 1288 341 1288 600 1336 c 1,35,-1
 600 1513 l 1,0,-1
EndSplineSet
EndChar
StartChar: sterling
Encoding: 163 163 166
Width: 600
GlyphClass: 2
Flags: W
LayerCount: 2
Fore
SplineSet
270 215 m 2,0,1
 270 139 270 139 225 96 c 1,2,-1
 586 96 l 1,3,-1
 586 -15 l 1,4,-1
 43 -15 l 1,5,-1
 43 87 l 1,6,-1
 55 89 l 2,7,8
 103 101 103 101 124 137 c 0,9,10
 141 167 141 167 141 214 c 2,11,-1
 141 303 l 1,12,-1
 44 303 l 1,13,-1
 44 399 l 1,14,-1
 141 399 l 1,15,-1
 141 543 l 2,16,17
 141 631 141 631 202 685 c 0,18,19
 266 738 266 738 370 738 c 0,20,21
 476 738 476 738 555 697 c 1,22,-1
 567 690 l 1,23,-1
 523 594 l 1,24,-1
 509 601 l 2,25,26
 441 635 441 635 375 634 c 0,27,28
 316 634 316 634 291 603 c 0,29,30
 270 578 270 578 270 529 c 2,31,-1
 270 399 l 1,32,-1
 473 399 l 1,33,-1
 473 303 l 1,34,-1
 270 303 l 1,35,-1
 270 215 l 2,0,1
EndSplineSet
EndChar
StartChar: currency
Encoding: 164 164 167
Width: 1229
GlyphClass: 2
Flags: W
LayerCount: 2
Fore
SplineSet
879 374 m 1,0,1
 769 316 769 316 642 316 c 128,-1,2
 515 316 515 316 406 376 c 1,3,-1
 272 245 l 1,4,-1
 134 383 l 1,5,-1
 265 514 l 1,6,7
 208 609 208 609 208 721.5 c 128,-1,8
 208 834 208 834 265 932 c 1,9,-1
 132 1065 l 1,10,-1
 272 1206 l 1,11,-1
 407 1072 l 1,12,13
 519 1132 519 1132 644 1132 c 128,-1,14
 769 1132 769 1132 879 1072 c 1,15,-1
 1016 1205 l 1,16,-1
 1158 1067 l 1,17,-1
 1024 934 l 1,18,19
 1083 834 1083 834 1083 720.5 c 128,-1,20
 1083 607 1083 607 1025 512 c 1,21,-1
 1156 381 l 1,22,-1
 1016 243 l 1,23,-1
 879 374 l 1,0,1
814.5 874.5 m 128,-1,25
 744 937 744 937 645.5 937 c 128,-1,26
 547 937 547 937 477.5 875 c 128,-1,27
 408 813 408 813 408 723 c 0,28,29
 409 635 409 635 478 574 c 256,30,31
 547 513 547 513 645 513 c 128,-1,32
 743 513 743 513 814 574.5 c 128,-1,33
 885 636 885 636 885 724 c 128,-1,24
 885 812 885 812 814.5 874.5 c 128,-1,25
EndSplineSet
EndChar
StartChar: yen
Encoding: 165 165 168
Width: 600
GlyphClass: 2
Flags: W
LayerCount: 2
Fore
SplineSet
15 729 m 1,0,-1
 142 729 l 1,1,-1
 313 388 l 1,2,-1
 487 729 l 1,3,-1
 614 729 l 1,4,-1
 420 354 l 1,5,-1
 534 354 l 1,6,-1
 534 257 l 1,7,-1
 377 257 l 1,8,-1
 377 209 l 1,9,-1
 534 209 l 1,10,-1
 534 113 l 1,11,-1
 377 113 l 1,12,-1
 377 -15 l 1,13,-1
 250 -15 l 1,14,-1
 250 113 l 1,15,-1
 94 113 l 1,16,-1
 94 209 l 1,17,-1
 250 209 l 1,18,-1
 250 257 l 1,19,-1
 94 257 l 1,20,-1
 94 354 l 1,21,-1
 206 354 l 1,22,-1
 15 729 l 1,0,-1
EndSplineSet
EndChar
StartChar: brokenbar
Encoding: 166 166 169
Width: 1229
GlyphClass: 2
Flags: W
LayerCount: 2
Fore
SplineSet
509 1586 m 1,0,-1
 718 1586 l 1,1,-1
 718 746 l 1,2,-1
 509 746 l 1,3,-1
 509 1586 l 1,0,-1
509 319 m 1,4,-1
 718 319 l 1,5,-1
 718 -522 l 1,6,-1
 509 -522 l 1,7,-1
 509 319 l 1,4,-1
EndSplineSet
EndChar
StartChar: section
Encoding: 167 167 170
Width: 1229
GlyphClass: 2
Flags: W
LayerCount: 2
Fore
SplineSet
954 515 m 1,0,1
 1075 430 1075 430 1075 289 c 0,2,3
 1075 213 1075 213 1044 151.5 c 128,-1,4
 1013 90 1013 90 952 46 c 0,5,6
 834 -40 834 -40 585 -40 c 0,7,8
 355 -40 355 -40 230 29 c 1,9,-1
 214 37 l 1,10,-1
 214 261 l 1,11,-1
 257 240 l 2,12,13
 422 161 422 161 588 161 c 0,14,15
 707 161 707 161 771 186 c 0,16,17
 829 209 829 209 836 254 c 0,18,19
 837 263 837 263 837 272 c 0,20,21
 837 316 837 316 799 347 c 0,22,23
 752 383 752 383 576 443 c 1,24,25
 353 531 353 531 292 612 c 0,26,27
 230 695 230 695 230 809 c 0,28,29
 230 978 230 978 360 1067 c 1,30,31
 273 1125 273 1125 244 1213 c 0,32,33
 230 1255 230 1255 230 1303 c 0,34,35
 230 1439 230 1439 347 1520 c 0,36,37
 459 1597 459 1597 676 1597 c 0,38,39
 869 1597 869 1597 1039 1522 c 1,40,-1
 1066 1511 l 1,41,-1
 987 1316 l 1,42,-1
 959 1328 l 2,43,44
 805 1393 805 1393 669 1393 c 0,45,46
 521 1393 521 1393 480 1349 c 0,47,48
 465 1333 465 1333 465 1307 c 0,49,50
 465 1268 465 1268 510 1238 c 0,51,52
 565 1201 565 1201 736 1142 c 0,53,54
 914 1077 914 1077 993 995 c 0,55,56
 1075 909 1075 909 1075 784 c 0,57,58
 1075 612 1075 612 954 515 c 1,0,1
444 831 m 0,59,60
 444 771 444 771 497 726 c 0,61,62
 560 677 560 677 734 616 c 2,63,64
 734 616 734 616 758 607 c 1,65,66
 829 651 829 651 848 703 c 0,67,68
 857 729 857 729 857 758 c 0,69,70
 857 832 857 832 789 879 c 0,71,72
 709 929 709 929 564 974 c 1,73,74
 458 938 458 938 446 860 c 0,75,76
 444 846 444 846 444 831 c 0,59,60
EndSplineSet
EndChar
StartChar: dieresis
Encoding: 168 168 171
Width: 1229
GlyphClass: 2
Flags: W
LayerCount: 2
Fore
SplineSet
426 1527 m 128,-1,1
 494 1527 494 1527 527 1484 c 0,2,3
 552 1450 552 1450 552 1394.5 c 128,-1,4
 552 1339 552 1339 527 1306 c 0,5,6
 494 1262 494 1262 426 1262 c 128,-1,7
 358 1262 358 1262 325 1306 c 0,8,9
 300 1339 300 1339 300 1394.5 c 128,-1,10
 300 1450 300 1450 325 1484 c 0,11,0
 358 1527 358 1527 426 1527 c 128,-1,1
801 1527 m 128,-1,13
 869 1527 869 1527 902 1484 c 0,14,15
 927 1450 927 1450 927 1394.5 c 128,-1,16
 927 1339 927 1339 902 1306 c 0,17,18
 869 1262 869 1262 801 1262 c 128,-1,19
 733 1262 733 1262 700 1306 c 0,20,21
 675 1339 675 1339 675 1394.5 c 128,-1,22
 675 1450 675 1450 700 1484 c 0,23,12
 733 1527 733 1527 801 1527 c 128,-1,13
EndSplineSet
EndChar
StartChar: copyright
Encoding: 169 169 172
Width: 1229
GlyphClass: 2
Flags: W
LayerCount: 2
Fore
SplineSet
644 1513 m 0,0,1
 858 1513 858 1513 1013 1417 c 0,2,3
 1088 1369 1088 1369 1145 1298 c 0,4,5
 1313 1085 1313 1085 1313 731 c 0,6,7
 1312 375 1312 375 1144 164 c 1,8,9
 966 -50 966 -50 643 -50 c 128,-1,10
 320 -50 320 -50 143 165 c 1,11,12
 -24 377 -24 377 -24 730.5 c 128,-1,13
 -24 1084 -24 1084 143 1297 c 1,14,15
 319 1513 319 1513 644 1513 c 0,0,1
644 118 m 0,16,17
 767 118 767 118 859 157.5 c 128,-1,18
 951 197 951 197 1017 277 c 0,19,20
 1144 439 1144 439 1144 731 c 128,-1,21
 1144 1023 1144 1023 1017 1185 c 0,22,23
 951 1265 951 1265 859 1304.5 c 128,-1,24
 767 1344 767 1344 644 1344 c 0,25,26
 402 1344 402 1344 272 1185 c 1,27,28
 145 1022 145 1022 145 731 c 128,-1,29
 145 440 145 440 272 277 c 1,30,31
 402 118 402 118 644 118 c 0,16,17
956 496 m 1,32,-1
 956 303 l 1,33,-1
 937 295 l 2,34,35
 816 242 816 242 686 242 c 0,36,37
 461 242 461 242 339 375 c 0,38,39
 218 508 218 508 218 730.5 c 128,-1,40
 218 953 218 953 344 1085 c 0,41,42
 408 1151 408 1151 496 1184.5 c 128,-1,43
 584 1218 584 1218 692 1218 c 0,44,45
 838 1218 838 1218 980 1153 c 2,46,-1
 1009 1140 l 1,47,-1
 915 959 l 1,48,-1
 886 972 l 2,49,50
 774 1023 774 1023 692 1023 c 0,51,52
 578 1023 578 1023 518 949 c 0,53,54
 455 872 455 872 455 734 c 128,-1,55
 455 596 455 596 503 523 c 0,56,57
 535 476 535 476 588 455 c 0,58,59
 632 438 632 438 692 438 c 0,60,61
 788 438 788 438 913 481 c 2,62,-1
 956 496 l 1,32,-1
EndSplineSet
EndChar
StartChar: ordfeminine
Encoding: 170 170 173
Width: 1229
GlyphClass: 2
Flags: W
LayerCount: 2
Fore
SplineSet
866 797 m 1,0,-1
 842 885 l 1,1,2
 724 784 724 784 530 784 c 0,3,4
 419 784 419 784 357 826 c 0,5,6
 276 879 276 879 276 995 c 0,7,8
 276 1046 276 1046 295 1086 c 0,9,10
 320 1138 320 1138 375 1168 c 0,11,12
 467 1218 467 1218 709 1223 c 2,13,-1
 821 1227 l 1,14,15
 817 1265 817 1265 787 1284 c 0,16,17
 751 1302 751 1302 675 1302 c 0,18,19
 537 1302 537 1302 406 1253 c 2,20,-1
 377 1242 l 1,21,-1
 316 1408 l 1,22,-1
 342 1419 l 2,23,24
 486 1479 486 1479 686 1479 c 0,25,26
 846 1479 846 1479 926 1431 c 0,27,28
 977 1400 977 1400 1003 1349.5 c 128,-1,29
 1029 1299 1029 1299 1029 1233 c 2,30,-1
 1029 797 l 1,31,-1
 866 797 l 1,0,-1
532 1090 m 0,32,33
 488 1072 488 1072 488 1017 c 0,34,35
 488 983 488 983 507 970 c 256,36,37
 526 957 526 957 574 957 c 0,38,39
 696 957 696 957 766 1005 c 1,40,41
 819 1048 819 1048 822 1117 c 1,42,-1
 743 1116 l 2,43,44
 603 1114 603 1114 532 1090 c 0,32,33
EndSplineSet
EndChar
StartChar: guillemotleft
Encoding: 171 171 174
Width: 1229
GlyphClass: 2
Flags: W
LayerCount: 2
Fore
SplineSet
167 526 m 1,0,-1
 167 553 l 1,1,-1
 167 563 l 1,2,-1
 511 1008 l 1,3,-1
 701 897 l 1,4,-1
 423 541 l 1,5,-1
 701 185 l 1,6,-1
 512 74 l 1,7,-1
 167 516 l 1,8,-1
 167 526 l 1,0,-1
597 526 m 1,9,-1
 597 553 l 1,10,-1
 597 563 l 1,11,-1
 966 1008 l 1,12,-1
 1132 897 l 1,13,-1
 889 541 l 1,14,-1
 1132 185 l 1,15,-1
 966 74 l 1,16,-1
 597 516 l 1,17,-1
 597 526 l 1,9,-1
EndSplineSet
EndChar
StartChar: logicalnot
Encoding: 172 172 175
Width: 1229
GlyphClass: 2
Flags: W
LayerCount: 2
Fore
SplineSet
1165 827 m 1,0,-1
 1165 232 l 1,1,-1
 956 232 l 1,2,-1
 956 617 l 1,3,-1
 122 617 l 1,4,-1
 122 827 l 1,5,-1
 1165 827 l 1,0,-1
EndSplineSet
EndChar
StartChar: registered
Encoding: 174 174 177
Width: 1229
GlyphClass: 2
Flags: W
LayerCount: 2
Fore
SplineSet
644 1513 m 0,0,1
 858 1513 858 1513 1013 1417 c 0,2,3
 1088 1369 1088 1369 1145 1298 c 0,4,5
 1313 1085 1313 1085 1313 731 c 0,6,7
 1312 375 1312 375 1144 164 c 1,8,9
 966 -50 966 -50 643 -50 c 128,-1,10
 320 -50 320 -50 143 165 c 1,11,12
 -24 377 -24 377 -24 730.5 c 128,-1,13
 -24 1084 -24 1084 143 1297 c 1,14,15
 319 1513 319 1513 644 1513 c 0,0,1
644 118 m 0,16,17
 767 118 767 118 859 157.5 c 128,-1,18
 951 197 951 197 1017 277 c 0,19,20
 1144 439 1144 439 1144 731 c 128,-1,21
 1144 1023 1144 1023 1017 1185 c 0,22,23
 951 1265 951 1265 859 1304.5 c 128,-1,24
 767 1344 767 1344 644 1344 c 0,25,26
 402 1344 402 1344 272 1185 c 1,27,28
 145 1022 145 1022 145 731 c 128,-1,29
 145 440 145 440 272 277 c 1,30,31
 402 118 402 118 644 118 c 0,16,17
560 607 m 1,32,-1
 560 255 l 1,33,-1
 325 255 l 1,34,-1
 325 1208 l 1,35,-1
 610 1208 l 2,36,37
 775 1208 775 1208 869 1151 c 0,38,39
 930 1114 930 1114 961 1053.5 c 128,-1,40
 992 993 992 993 992 913 c 0,41,42
 992 812 992 812 932 742 c 0,43,44
 894 698 894 698 834 667 c 1,45,-1
 1098 255 l 1,46,-1
 833 255 l 1,47,-1
 610 607 l 1,48,-1
 560 607 l 1,32,-1
560 1012 m 1,49,-1
 560 798 l 1,50,-1
 605 798 l 2,51,52
 677 798 677 798 714 821 c 0,53,54
 735 834 735 834 745.5 855 c 128,-1,55
 756 876 756 876 756 909 c 0,56,57
 756 951 756 951 741 972 c 0,58,59
 734 982 734 982 724 988 c 0,60,61
 707 999 707 999 676.5 1005.5 c 128,-1,62
 646 1012 646 1012 602 1012 c 2,63,-1
 560 1012 l 1,49,-1
EndSplineSet
EndChar
StartChar: overscore
Encoding: 175 175 178
Width: 1229
GlyphClass: 2
Flags: W
LayerCount: 2
Fore
SplineSet
1339 1526 m 1,0,-1
 -50 1526 l 1,1,-1
 -50 1726 l 1,2,-1
 1339 1726 l 1,3,-1
 1339 1526 l 1,0,-1
EndSplineSet
EndChar
StartChar: degree
Encoding: 176 176 179
Width: 600
GlyphClass: 2
Flags: W
LayerCount: 2
Fore
SplineSet
235 726 m 0,0,1
 269 739 269 739 314 739 c 128,-1,2
 359 739 359 739 394 726 c 0,3,4
 424 713 424 713 448 689 c 0,5,6
 498 639 498 639 498 569.5 c 128,-1,7
 498 500 498 500 448 451 c 128,-1,8
 398 402 398 402 314 402 c 0,9,10
 230 402 230 402 180.5 451.5 c 128,-1,11
 131 501 131 501 131 570 c 0,12,13
 131 639 131 639 181 689 c 0,14,15
 205 713 205 713 235 726 c 0,0,1
385 515 m 0,16,17
 397 527 397 527 403 540.5 c 128,-1,18
 409 554 409 554 409 570 c 0,19,20
 409 604 409 604 385 627 c 1,21,22
 356 650 356 650 314 650 c 0,23,24
 272 650 272 650 244 626 c 1,25,26
 221 603 221 603 221 570.5 c 128,-1,27
 221 538 221 538 244 515 c 1,28,29
 272 492 272 492 314.5 492 c 128,-1,30
 357 492 357 492 385 515 c 0,16,17
EndSplineSet
EndChar
StartChar: plusminus
Encoding: 177 177 180
Width: 600
GlyphClass: 2
Flags: W
LayerCount: 2
Fore
SplineSet
372 301 m 1,0,-1
 372 113 l 1,1,-1
 257 113 l 1,2,-1
 257 301 l 1,3,-1
 60 301 l 1,4,-1
 60 404 l 1,5,-1
 257 404 l 1,6,-1
 257 594 l 1,7,-1
 372 594 l 1,8,-1
 372 404 l 1,9,-1
 569 404 l 1,10,-1
 569 301 l 1,11,-1
 372 301 l 1,0,-1
60 -15 m 1,12,-1
 60 88 l 1,13,-1
 569 88 l 1,14,-1
 569 -15 l 1,15,-1
 60 -15 l 1,12,-1
EndSplineSet
Validated: 1
EndChar
StartChar: twosuperior
Encoding: 178 178 181
Width: 1229
GlyphClass: 2
Flags: W
LayerCount: 2
Fore
SplineSet
909 642 m 1,0,-1
 318 642 l 1,1,-1
 318 786 l 1,2,-1
 513 994 l 2,3,4
 622 1109 622 1109 649.5 1154.5 c 128,-1,5
 677 1200 677 1200 677 1249 c 0,6,7
 677 1304 677 1304 648 1323 c 0,8,9
 630 1334 630 1334 596 1334 c 0,10,11
 527 1334 527 1334 452 1266 c 2,12,-1
 430 1246 l 1,13,-1
 311 1376 l 1,14,-1
 334 1397 l 2,15,16
 460 1507 460 1507 602 1507 c 0,17,18
 732 1507 732 1507 805 1439 c 0,19,20
 880 1370 880 1370 880 1253 c 0,21,22
 880 1180 880 1180 842.5 1106.5 c 128,-1,23
 805 1033 805 1033 672 901 c 2,24,-1
 588 816 l 1,25,-1
 909 816 l 1,26,-1
 909 642 l 1,0,-1
EndSplineSet
EndChar
StartChar: threesuperior
Encoding: 179 179 182
Width: 1229
GlyphClass: 2
Flags: W
LayerCount: 2
Fore
SplineSet
876 899 m 0,0,1
 876 835 876 835 854.5 784 c 128,-1,2
 833 733 833 733 791 696 c 0,3,4
 708 625 708 625 557 625 c 0,5,6
 418 625 418 625 327 679 c 2,7,-1
 312 688 l 1,8,-1
 312 882 l 1,9,-1
 357 855 l 2,10,11
 460 794 460 794 545 794 c 0,12,13
 601 794 601 794 630 815 c 0,14,15
 664 840 664 840 664 901 c 0,16,17
 664 955 664 955 632 976 c 0,18,19
 603 996 603 996 547 996 c 2,20,-1
 445 996 l 1,21,-1
 445 1160 l 1,22,-1
 545 1160 l 2,23,24
 599 1160 599 1160 620 1188 c 0,25,26
 638 1211 638 1211 638 1254 c 128,-1,27
 638 1297 638 1297 623.5 1317.5 c 128,-1,28
 609 1338 609 1338 571 1338 c 0,29,30
 510 1338 510 1338 428 1274 c 2,31,-1
 405 1256 l 1,32,-1
 303 1389 l 1,33,-1
 325 1407 l 2,34,35
 444 1507 444 1507 582 1507 c 0,36,37
 702 1507 702 1507 774 1445 c 0,38,39
 811 1414 811 1414 830 1370.5 c 128,-1,40
 849 1327 849 1327 849 1274 c 0,41,42
 849 1185 849 1185 795 1127 c 0,43,44
 776 1106 776 1106 751 1090 c 1,45,46
 786 1074 786 1074 812 1051 c 0,47,48
 876 994 876 994 876 899 c 0,0,1
EndSplineSet
EndChar
StartChar: acute
Encoding: 180 180 183
Width: 1229
GlyphClass: 2
Flags: W
LayerCount: 2
Fore
SplineSet
573 1599 m 1,0,-1
 841 1599 l 1,1,-1
 841 1539 l 1,2,-1
 836 1532 l 1,3,4
 722 1355 722 1355 558 1218 c 1,5,-1
 550 1211 l 1,6,-1
 388 1211 l 1,7,-1
 388 1278 l 1,8,-1
 393 1285 l 2,9,10
 486 1416 486 1416 565 1582 c 2,11,-1
 573 1599 l 1,0,-1
EndSplineSet
EndChar
StartChar: mu
Encoding: 181 181 184
Width: 1229
GlyphClass: 2
Flags: W
LayerCount: 2
Fore
SplineSet
916 81 m 1,0,1
 801 -50 801 -50 593 -50 c 0,2,3
 471 -50 471 -50 389 -1 c 1,4,5
 392 -105 392 -105 392 -172 c 2,6,-1
 392 -522 l 1,7,-1
 150 -522 l 1,8,-1
 150 1128 l 1,9,-1
 392 1128 l 1,10,-1
 392 391 l 2,11,12
 392 285 392 285 435 228 c 0,13,14
 486 161 486 161 605 161 c 0,15,16
 757 161 757 161 825 240 c 0,17,18
 896 323 896 323 896 528 c 2,19,-1
 896 1128 l 1,20,-1
 1139 1128 l 1,21,-1
 1139 -30 l 1,22,-1
 936 -30 l 1,23,-1
 916 81 l 1,0,1
EndSplineSet
EndChar
StartChar: paragraph
Encoding: 182 182 185
Width: 1229
GlyphClass: 2
Flags: W
LayerCount: 2
Fore
SplineSet
634 521 m 1,0,1
 577 511 577 511 506 511 c 0,2,3
 236 511 236 511 124 679 c 0,4,5
 36 810 36 810 36 1042 c 0,6,7
 36 1312 36 1312 152 1448 c 0,8,9
 269 1586 269 1586 540 1586 c 2,10,-1
 1169 1586 l 1,11,-1
 1169 -290 l 1,12,-1
 988 -290 l 1,13,-1
 988 1367 l 1,14,-1
 834 1367 l 1,15,-1
 834 -290 l 1,16,-1
 634 -290 l 1,17,-1
 634 521 l 1,0,1
EndSplineSet
EndChar
StartChar: periodcentered
Encoding: 183 183 186
Width: 1229
GlyphClass: 2
Flags: W
LayerCount: 2
Fore
SplineSet
614 892 m 128,-1,1
 700 892 700 892 740 837 c 0,2,3
 771 795 771 795 771 723 c 128,-1,4
 771 651 771 651 740 609 c 0,5,6
 700 554 700 554 614 554 c 128,-1,7
 528 554 528 554 488 609 c 0,8,9
 457 651 457 651 457 723 c 128,-1,10
 457 795 457 795 488 837 c 0,11,0
 528 892 528 892 614 892 c 128,-1,1
EndSplineSet
EndChar
StartChar: cedilla
Encoding: 184 184 187
Width: 1229
GlyphClass: 2
Flags: W
LayerCount: 2
Fore
SplineSet
398 -508 m 1,0,-1
 398 -339 l 1,1,-1
 433 -345 l 2,2,3
 464 -351 464 -351 501 -351 c 0,4,5
 604 -351 604 -351 623 -315 c 0,6,7
 629 -304 629 -304 629 -289 c 0,8,9
 629 -281 629 -281 627 -277 c 0,10,11
 623 -269 623 -269 618 -264 c 0,12,13
 586 -229 586 -229 480 -205 c 2,14,-1
 443 -197 l 1,15,-1
 560 30 l 1,16,-1
 746 30 l 1,17,-1
 684 -96 l 1,18,19
 737 -114 737 -114 772 -145 c 0,20,21
 831 -199 831 -199 831 -287 c 0,22,23
 831 -381 831 -381 776 -439 c 0,24,25
 697 -522 697 -522 510 -522 c 0,26,27
 473 -522 473 -522 422 -512 c 2,28,-1
 398 -508 l 1,0,-1
EndSplineSet
EndChar
StartChar: onesuperior
Encoding: 185 185 188
Width: 1229
GlyphClass: 2
Flags: W
LayerCount: 2
Fore
SplineSet
577 1490 m 1,0,-1
 751 1490 l 1,1,-1
 751 642 l 1,2,-1
 545 642 l 1,3,-1
 545 1137 l 2,4,5
 545 1186 545 1186 549 1263 c 1,6,-1
 435 1180 l 1,7,-1
 323 1315 l 1,8,-1
 577 1490 l 1,0,-1
EndSplineSet
EndChar
StartChar: ordmasculine
Encoding: 186 186 189
Width: 1229
GlyphClass: 2
Flags: W
LayerCount: 2
Fore
SplineSet
967 877 m 128,-1,1
 866 784 866 784 671 784 c 0,2,3
 486 784 486 784 383.5 877.5 c 128,-1,4
 281 971 281 971 281 1132 c 128,-1,5
 281 1293 281 1293 379.5 1386 c 128,-1,6
 478 1479 478 1479 676 1479 c 0,7,8
 863 1479 863 1479 965.5 1386 c 128,-1,9
 1068 1293 1068 1293 1068 1133 c 0,10,0
 1068 970 1068 970 967 877 c 128,-1,1
552 988 m 0,11,12
 596 963 596 963 674 963 c 0,13,14
 779 963 779 963 824 1011 c 1,15,16
 855 1053 855 1053 855 1133 c 0,17,18
 855 1210 855 1210 824 1251 c 1,19,20
 780 1298 780 1298 674 1298 c 0,21,22
 600 1298 600 1298 558 1277 c 0,23,24
 537 1266 537 1266 522 1249 c 0,25,26
 508 1231 508 1231 500 1201.5 c 128,-1,27
 492 1172 492 1172 492 1132 c 0,28,29
 492 1028 492 1028 552 988 c 0,11,12
EndSplineSet
EndChar
StartChar: guillemotright
Encoding: 187 187 190
Width: 600
GlyphClass: 2
Flags: W
LayerCount: 2
Fore
SplineSet
547 270 m 1,0,-1
 547 257 l 1,1,-1
 547 252 l 1,2,-1
 378 36 l 1,3,-1
 286 90 l 1,4,-1
 422 264 l 1,5,-1
 286 438 l 1,6,-1
 379 492 l 1,7,-1
 547 275 l 1,8,-1
 547 270 l 1,0,-1
337 270 m 1,9,-1
 337 257 l 1,10,-1
 337 252 l 1,11,-1
 156 36 l 1,12,-1
 76 90 l 1,13,-1
 194 264 l 1,14,-1
 76 438 l 1,15,-1
 156 492 l 1,16,-1
 337 275 l 1,17,-1
 337 270 l 1,9,-1
EndSplineSet
EndChar
StartChar: questiondown
Encoding: 191 191 194
Width: 1229
GlyphClass: 2
Flags: W
LayerCount: 2
Fore
SplineSet
711.5 810 m 128,-1,1
 615 810 615 810 569 865 c 0,2,3
 534 907 534 907 534 979 c 128,-1,4
 534 1051 534 1051 569 1093 c 0,5,6
 615 1148 615 1148 711.5 1148 c 128,-1,7
 808 1148 808 1148 854 1093 c 0,8,9
 889 1051 889 1051 889 979 c 128,-1,10
 889 907 889 907 854 865 c 0,11,0
 808 810 808 810 711.5 810 c 128,-1,1
845 706 m 1,12,-1
 845 639 l 2,13,14
 845 512 845 512 790.5 431 c 128,-1,15
 736 350 736 350 597 263 c 1,16,17
 456 169 456 169 411 114 c 0,18,19
 372 64 372 64 372 -27 c 0,20,21
 372 -105 372 -105 441 -153 c 0,22,23
 516 -203 516 -203 654 -203 c 0,24,25
 851 -203 851 -203 1040 -116 c 2,26,-1
 1068 -103 l 1,27,-1
 1154 -301 l 1,28,-1
 1128 -314 l 2,29,30
 902 -423 902 -423 665 -423 c 0,31,32
 408 -423 408 -423 273 -319 c 0,33,34
 138 -213 138 -213 138 -35 c 0,35,36
 138 108 138 108 195.5 197 c 128,-1,37
 253 286 253 286 402 397 c 1,38,-1
 402 397 l 1,39,40
 531 481 531 481 565 529 c 0,41,42
 596 575 596 575 596 657 c 2,43,-1
 596 706 l 1,44,-1
 845 706 l 1,12,-1
EndSplineSet
EndChar
StartChar: AE
Encoding: 198 198 201
Width: 1229
GlyphClass: 2
Flags: W
LayerCount: 2
Fore
SplineSet
1338 224 m 1,0,-1
 1338 0 l 1,1,-1
 589 0 l 1,2,-1
 589 423 l 1,3,-1
 336 423 l 1,4,-1
 234 0 l 1,5,-1
 0 0 l 1,6,-1
 360 1462 l 1,7,-1
 1338 1462 l 1,8,-1
 1338 1238 l 1,9,-1
 843 1238 l 1,10,-1
 843 876 l 1,11,-1
 1299 876 l 1,12,-1
 1299 654 l 1,13,-1
 843 654 l 1,14,-1
 843 224 l 1,15,-1
 1338 224 l 1,0,-1
390 648 m 1,16,-1
 589 648 l 1,17,-1
 589 1238 l 1,18,-1
 533 1238 l 1,19,-1
 390 648 l 1,16,-1
EndSplineSet
EndChar
StartChar: Eth
Encoding: 208 208 211
Width: 600
GlyphClass: 2
Flags: W
LayerCount: 2
Fore
SplineSet
0 416 m 1,0,-1
 66 416 l 1,1,-1
 66 714 l 1,2,-1
 248 714 l 2,3,4
 431 714 431 714 528 621 c 1,5,6
 618 528 618 528 619 363 c 0,7,8
 619 188 619 188 525 94 c 1,9,10
 423 0 423 0 228 0 c 2,11,-1
 66 0 l 1,12,-1
 66 307 l 1,13,-1
 0 307 l 1,14,-1
 0 416 l 1,0,-1
187 307 m 1,15,-1
 187 107 l 1,16,-1
 219 107 l 2,17,18
 370 107 370 107 438 184 c 0,19,20
 493 246 493 246 493 361 c 0,21,22
 493 517 493 517 392 574 c 0,23,24
 333 607 333 607 238 607 c 2,25,-1
 187 607 l 1,26,-1
 187 416 l 1,27,-1
 389 416 l 1,28,-1
 389 307 l 1,29,-1
 187 307 l 1,15,-1
EndSplineSet
EndChar
StartChar: multiply
Encoding: 215 215 218
Width: 600
GlyphClass: 2
Flags: W
LayerCount: 2
Fore
SplineSet
313 281 m 1,0,-1
 144 127 l 1,1,-1
 74 198 l 1,2,-1
 232 353 l 1,3,-1
 72 509 l 1,4,-1
 144 581 l 1,5,-1
 313 425 l 1,6,-1
 485 581 l 1,7,-1
 557 510 l 1,8,-1
 395 353 l 1,9,-1
 556 197 l 1,10,-1
 485 126 l 1,11,-1
 313 281 l 1,0,-1
EndSplineSet
EndChar
StartChar: Oslash
Encoding: 216 216 219
Width: 1229
GlyphClass: 2
Flags: W
LayerCount: 2
Fore
SplineSet
1169 1231 m 1,0,1
 1279 1046 1279 1046 1279 732 c 0,2,3
 1279 376 1279 376 1135 180 c 1,4,5
 982 -20 982 -20 688 -20 c 0,6,7
 493 -20 493 -20 362 61 c 1,8,-1
 269 -86 l 1,9,-1
 80 21 l 1,10,-1
 208 221 l 1,11,12
 96 403 96 403 96 732.5 c 128,-1,13
 96 1062 96 1062 205 1246 c 0,14,15
 283 1378 283 1378 424 1437 c 0,16,17
 539 1485 539 1485 690 1485 c 0,18,19
 882 1485 882 1485 1019 1394 c 1,20,-1
 1111 1543 l 1,21,-1
 1301 1435 l 1,22,-1
 1169 1231 l 1,0,1
425 1097 m 0,23,24
 355 958 355 958 355 703 c 0,25,26
 355 548 355 548 378 439 c 1,27,-1
 884 1193 l 1,28,29
 810 1261 810 1261 690 1261 c 0,30,31
 507 1261 507 1261 425 1097 c 0,23,24
497 264 m 1,32,33
 571 203 571 203 688 203 c 0,34,35
 764 203 764 203 821 229 c 0,36,37
 891 260 891 260 935 333 c 0,38,39
 1019 471 1019 471 1019 763 c 0,40,41
 1019 911 1019 911 999 1013 c 1,42,-1
 497 264 l 1,32,33
EndSplineSet
EndChar
StartChar: Thorn
Encoding: 222 222 225
Width: 600
GlyphClass: 2
Flags: W
LayerCount: 2
Fore
SplineSet
206 714 m 1,0,-1
 206 596 l 1,1,-1
 309 596 l 2,2,3
 439 596 439 596 509 554 c 1,4,5
 593 500 593 500 593 381 c 0,6,7
 593 272 593 272 521 210 c 0,8,9
 446 148 446 148 294 149 c 2,10,-1
 206 149 l 1,11,-1
 206 0 l 1,12,-1
 86 0 l 1,13,-1
 86 714 l 1,14,-1
 206 714 l 1,0,-1
300 499 m 2,15,-1
 206 499 l 1,16,-1
 206 247 l 1,17,-1
 283 247 l 2,18,19
 386 247 386 247 428 278 c 0,20,21
 469 309 469 309 469 377 c 128,-1,22
 469 445 469 445 419 474 c 0,23,24
 378 499 378 499 300 499 c 2,15,-1
EndSplineSet
Validated: 33
EndChar
StartChar: germandbls
Encoding: 223 223 226
Width: 1229
GlyphClass: 2
Flags: W
LayerCount: 2
Fore
SplineSet
502 54 m 2,0,-1
 486 63 l 1,1,-1
 486 298 l 1,2,-1
 537 271 l 2,3,4
 687 189 687 189 827 189 c 0,5,6
 976 189 976 189 1015 259 c 0,7,8
 1029 285 1029 285 1029 325 c 0,9,10
 1029 391 1029 391 987 431 c 0,11,12
 941 475 941 475 835 532 c 0,13,14
 695 608 695 608 636 669 c 0,15,16
 573 735 573 735 573 827 c 0,17,18
 573 951 573 951 728 1060 c 0,19,20
 859 1151 859 1151 859 1223 c 0,21,22
 859 1246 859 1246 854.5 1260 c 128,-1,23
 850 1274 850 1274 845.5 1282.5 c 128,-1,24
 841 1291 841 1291 835 1300 c 0,25,26
 805 1336 805 1336 732 1350 c 0,27,28
 693 1357 693 1357 639 1357 c 0,29,30
 490 1357 490 1357 437 1285 c 0,31,32
 406 1244 406 1244 406 1172 c 2,33,-1
 406 0 l 1,34,-1
 164 0 l 1,35,-1
 164 1170 l 2,36,37
 164 1390 164 1390 308 1489 c 0,38,39
 421 1567 421 1567 643.5 1567 c 128,-1,40
 866 1567 866 1567 995 1482 c 1,41,42
 1119 1393 1119 1393 1119 1230 c 0,43,44
 1119 1091 1119 1091 970 971 c 0,45,46
 880 902 880 902 854 874 c 0,47,48
 834 853 834 853 834 831 c 0,49,50
 834 805 834 805 857 785 c 0,51,52
 875 769 875 769 941 729 c 0,53,54
 976 708 976 708 1014 686 c 0,55,56
 1049 665 1049 665 1074.5 647 c 128,-1,57
 1100 629 1100 629 1122 611.5 c 128,-1,58
 1144 594 1144 594 1162 577 c 0,59,60
 1199 542 1199 542 1218 512 c 128,-1,61
 1237 482 1237 482 1248 452 c 0,62,63
 1271 394 1271 394 1271 326 c 0,64,65
 1271 159 1271 159 1161.5 69.5 c 128,-1,66
 1052 -20 1052 -20 842 -20 c 0,67,68
 628 -20 628 -20 502 54 c 2,0,-1
EndSplineSet
EndChar
StartChar: ae
Encoding: 230 230 233
Width: 1229
GlyphClass: 2
Flags: W
LayerCount: 2
Fore
SplineSet
122 72 m 0,0,1
 45 161 45 161 45 315 c 0,2,3
 45 463 45 463 116 551 c 0,4,5
 205 661 205 661 411 670 c 2,6,-1
 542 676 l 1,7,-1
 542 714 l 2,8,9
 542 806 542 806 515 855 c 0,10,11
 499 885 499 885 473 897 c 0,12,13
 452 907 452 907 423 907 c 0,14,15
 319 907 319 907 221 831 c 2,16,-1
 189 807 l 1,17,-1
 108 1002 l 1,18,-1
 127 1016 l 2,19,20
 266 1118 266 1118 432 1118 c 0,21,22
 620 1118 620 1118 702 980 c 1,23,24
 732 1025 732 1025 771 1056 c 0,25,26
 849 1118 849 1118 959 1118 c 0,27,28
 1052 1118 1052 1118 1121 1071 c 0,29,30
 1174 1036 1174 1036 1215 974 c 0,31,32
 1306 838 1306 838 1306 620 c 2,33,-1
 1306 484 l 1,34,-1
 790 484 l 1,35,36
 798 333 798 333 856 261 c 0,37,38
 915 187 915 187 1012 187 c 0,39,40
 1118 187 1118 187 1233 254 c 2,41,-1
 1279 281 l 1,42,-1
 1279 62 l 1,43,-1
 1266 54 l 2,44,45
 1151 -20 1151 -20 1004 -20 c 0,46,47
 773 -20 773 -20 660 171 c 1,48,49
 616 102 616 102 562 58 c 0,50,51
 465 -20 465 -20 334 -20 c 0,52,53
 202 -20 202 -20 122 72 c 0,0,1
1069 692 m 1,54,55
 1066 791 1066 791 1030 850 c 0,56,57
 1014 877 1014 877 991.5 892 c 128,-1,58
 969 907 969 907 939 907 c 0,59,60
 884 907 884 907 844 852 c 0,61,62
 805 796 805 796 795 692 c 1,63,-1
 1069 692 l 1,54,55
335 454 m 0,64,65
 275 407 275 407 275 305 c 0,66,67
 275 231 275 231 303 191 c 0,68,69
 328 157 328 157 368.5 157 c 128,-1,70
 409 157 409 157 440 177 c 0,71,72
 466 194 466 194 489.5 228 c 128,-1,73
 513 262 513 262 526 315.5 c 128,-1,74
 539 369 539 369 539 438 c 2,75,-1
 539 505 l 1,76,-1
 479 500 l 2,77,78
 385 493 385 493 335 454 c 0,64,65
EndSplineSet
EndChar
StartChar: eth
Encoding: 240 240 243
Width: 1229
GlyphClass: 2
Flags: W
LayerCount: 2
Fore
SplineSet
1079 142 m 0,0,1
 938 -20 938 -20 672 -20 c 0,2,3
 421 -20 421 -20 276 116 c 0,4,5
 135 251 135 251 135 483.5 c 128,-1,6
 135 716 135 716 264 848 c 0,7,8
 394 981 394 981 647 981 c 0,9,10
 818 981 818 981 924 923 c 1,11,12
 856 1066 856 1066 715 1180 c 1,13,-1
 424 1023 l 1,14,-1
 314 1188 l 1,15,-1
 533 1310 l 1,16,17
 447 1362 447 1362 387 1392 c 2,18,-1
 360 1406 l 1,19,-1
 466 1580 l 1,20,-1
 495 1568 l 2,21,22
 645 1502 645 1502 756 1429 c 1,23,-1
 1012 1572 l 1,24,-1
 1119 1408 l 1,25,-1
 927 1295 l 1,26,27
 1214 1014 1214 1014 1214 576 c 0,28,29
 1214 301 1214 301 1079 142 c 0,0,1
887 749 m 0,30,31
 811 823 811 823 674 823 c 0,32,33
 515 823 515 823 446 728 c 0,34,35
 389 649 389 649 389 504 c 128,-1,36
 389 359 389 359 446 283 c 0,37,38
 469 252 469 252 501 232 c 0,39,40
 567 191 567 191 676 191 c 0,41,42
 830 191 830 191 895 277 c 0,43,44
 965 369 965 369 965 556 c 0,45,46
 965 673 965 673 887 749 c 0,30,31
EndSplineSet
EndChar
StartChar: divide
Encoding: 247 247 250
Width: 1229
GlyphClass: 2
Flags: W
LayerCount: 2
Fore
SplineSet
642 1226 m 0,0,1
 684 1226 684 1226 717.5 1213.5 c 128,-1,2
 751 1201 751 1201 772 1175 c 0,3,4
 805 1136 805 1136 805 1071 c 128,-1,5
 805 1006 805 1006 772 967 c 0,6,7
 751 941 751 941 717.5 928.5 c 128,-1,8
 684 916 684 916 642 916 c 0,9,10
 554 916 554 916 512 967 c 0,11,12
 480 1006 480 1006 480 1071 c 0,13,14
 480 1159 480 1159 537 1198 c 0,15,16
 577 1226 577 1226 642 1226 c 0,0,1
122 617 m 1,17,-1
 122 827 l 1,18,-1
 1165 827 l 1,19,-1
 1165 617 l 1,20,-1
 122 617 l 1,17,-1
642 528 m 0,21,22
 684 528 684 528 717.5 515.5 c 128,-1,23
 751 503 751 503 772 477 c 0,24,25
 805 438 805 438 805 373 c 128,-1,26
 805 308 805 308 772 269 c 0,27,28
 731 218 731 218 642.5 218 c 128,-1,29
 554 218 554 218 512 269 c 0,30,31
 480 308 480 308 480 373 c 128,-1,32
 480 438 480 438 512 477 c 0,33,34
 554 528 554 528 642 528 c 0,21,22
EndSplineSet
EndChar
StartChar: oslash
Encoding: 248 248 251
Width: 1229
GlyphClass: 2
Flags: W
LayerCount: 2
Fore
SplineSet
256 966 m 0,0,1
 401 1118 401 1118 676 1118 c 0,2,3
 810 1118 810 1118 925 1070 c 1,4,-1
 1009 1191 l 1,5,-1
 1190 1075 l 1,6,-1
 1102 945 l 1,7,8
 1232 792 1232 792 1232 550 c 0,9,10
 1232 282 1232 282 1089 131 c 0,11,12
 942 -20 942 -20 670 -20 c 0,13,14
 536 -20 536 -20 424 25 c 1,15,-1
 340 -97 l 1,16,-1
 159 19 l 1,17,-1
 247 149 l 1,18,19
 115 304 115 304 115 552 c 0,20,21
 115 815 115 815 256 966 c 0,0,1
790 889 m 1,22,23
 735 907 735 907 665 907 c 0,24,25
 505 907 505 907 436 817 c 0,26,27
 363 721 363 721 363 521 c 0,28,29
 363 393 363 393 394 310 c 1,30,-1
 790 889 l 1,22,23
954 781 m 1,31,-1
 560 207 l 1,32,33
 611 191 611 191 682 191 c 0,34,35
 842 191 842 191 911 283 c 0,36,37
 984 381 984 381 984 581 c 0,38,39
 984 698 984 698 954 781 c 1,31,-1
EndSplineSet
EndChar
StartChar: thorn
Encoding: 254 254 257
Width: 1229
GlyphClass: 2
Flags: W
LayerCount: 2
Fore
SplineSet
400 1067 m 1,0,-1
 396 1001 l 1,1,2
 522 1118 522 1118 726 1118 c 0,3,4
 846 1118 846 1118 942 1077 c 0,5,6
 1030 1039 1030 1039 1091 963 c 0,7,8
 1212 814 1212 814 1212 550 c 0,9,10
 1211 284 1211 284 1091 134 c 0,11,12
 967 -20 967 -20 726 -20 c 0,13,14
 524 -20 524 -20 395 94 c 1,15,16
 400 31 400 31 400 7 c 2,17,-1
 400 -492 l 1,18,-1
 158 -492 l 1,19,-1
 158 1556 l 1,20,-1
 400 1556 l 1,21,-1
 400 1067 l 1,0,-1
400 588 m 1,22,-1
 400 551 l 2,23,24
 400 350 400 350 471 269 c 0,25,26
 505 230 505 230 559 210.5 c 128,-1,27
 613 191 613 191 692 191 c 0,28,29
 759 191 759 191 808 212 c 0,30,31
 963 276 963 276 963 553 c 0,32,33
 963 823 963 823 807 887 c 0,34,35
 757 907 757 907 689 907 c 0,36,37
 536 907 536 907 472 837 c 0,38,39
 404 763 404 763 400 588 c 1,22,-1
EndSplineSet
EndChar
StartChar: dcroat
Encoding: 273 273 276
Width: 600
GlyphClass: 2
Flags: W
LayerCount: 2
Fore
SplineSet
126 453 m 0,0,1
 187 526 187 526 301 526 c 0,2,3
 397 526 397 526 459 470 c 1,4,5
 456 500 456 500 457 512 c 2,6,-1
 457 575 l 1,7,-1
 255 575 l 1,8,-1
 255 671 l 1,9,-1
 457 671 l 1,10,-1
 457 760 l 1,11,-1
 582 760 l 1,12,-1
 582 671 l 1,13,-1
 658 671 l 1,14,-1
 658 575 l 1,15,-1
 582 575 l 1,16,-1
 582 0 l 1,17,-1
 483 0 l 1,18,-1
 472 56 l 1,19,20
 408 -9 408 -9 303 -10 c 0,21,22
 186 -10 186 -10 126 62 c 0,23,24
 67 133 67 133 67 257.5 c 128,-1,25
 67 382 67 382 126 453 c 0,0,1
461 240 m 1,26,-1
 461 257 l 1,27,28
 456 349 456 349 423 387 c 0,29,30
 391 423 391 423 317 423 c 0,31,32
 285 423 285 423 262 413 c 0,33,34
 189 383 189 383 188 256 c 0,35,36
 188 132 188 132 264 103 c 0,37,38
 288 94 288 94 321 93 c 0,39,40
 395 93 395 93 426 125 c 0,41,42
 459 159 459 159 461 240 c 1,26,-1
EndSplineSet
EndChar
StartChar: Hbar
Encoding: 294 294 297
Width: 1229
GlyphClass: 2
Flags: W
LayerCount: 2
Fore
SplineSet
135 0 m 1,0,-1
 135 1027 l 1,1,-1
 0 1027 l 1,2,-1
 0 1229 l 1,3,-1
 135 1229 l 1,4,-1
 135 1462 l 1,5,-1
 382 1462 l 1,6,-1
 382 1219 l 1,7,-1
 967 1219 l 1,8,-1
 967 1462 l 1,9,-1
 1214 1462 l 1,10,-1
 1214 1229 l 1,11,-1
 1349 1229 l 1,12,-1
 1349 1027 l 1,13,-1
 1214 1027 l 1,14,-1
 1214 0 l 1,15,-1
 967 0 l 1,16,-1
 967 652 l 1,17,-1
 382 652 l 1,18,-1
 382 0 l 1,19,-1
 135 0 l 1,0,-1
382 1039 m 1,20,-1
 382 876 l 1,21,-1
 967 876 l 1,22,-1
 967 1039 l 1,23,-1
 382 1039 l 1,20,-1
EndSplineSet
EndChar
StartChar: hbar
Encoding: 295 295 298
Width: 600
GlyphClass: 2
Flags: W
LayerCount: 2
Fore
SplineSet
196 499 m 1,0,-1
 194 468 l 1,1,2
 257 526 257 526 370 526 c 0,3,4
 480 526 480 526 530.5 477.5 c 128,-1,5
 581 429 581 429 581 327 c 2,6,-1
 581 0 l 1,7,-1
 462 0 l 1,8,-1
 462 318 l 2,9,10
 462 366 462 366 440 392 c 0,11,12
 413 423 413 423 350 423 c 0,13,14
 329 423 329 423 315.5 421 c 128,-1,15
 302 419 302 419 294 417.5 c 128,-1,16
 286 416 286 416 278.5 413.5 c 128,-1,17
 271 411 271 411 265 408 c 128,-1,18
 259 405 259 405 253 401 c 0,19,20
 242 394 242 394 233 385 c 0,21,22
 215 366 215 366 205.5 333.5 c 128,-1,23
 196 301 196 301 196 255 c 2,24,-1
 196 0 l 1,25,-1
 78 0 l 1,26,-1
 78 575 l 1,27,-1
 2 575 l 1,28,-1
 2 671 l 1,29,-1
 78 671 l 1,30,-1
 78 760 l 1,31,-1
 197 760 l 1,32,-1
 197 671 l 1,33,-1
 427 671 l 1,34,-1
 427 575 l 1,35,-1
 196 575 l 1,36,-1
 196 499 l 1,0,-1
EndSplineSet
Validated: 1
EndChar
StartChar: dotlessi
Encoding: 305 305 308
Width: 600
GlyphClass: 2
Flags: W
LayerCount: 2
Fore
SplineSet
264 443 m 1,0,-1
 133 453 l 1,1,-1
 133 536 l 1,2,-1
 382 536 l 1,3,-1
 405 93 l 1,4,-1
 583 84 l 1,5,-1
 583 0 l 1,6,-1
 96 0 l 1,7,-1
 96 84 l 1,8,-1
 271 93 l 1,9,-1
 264 443 l 1,0,-1
EndSplineSet
Validated: 1
EndChar
StartChar: IJ
Encoding: 306 306 309
Width: 1229
GlyphClass: 2
Flags: W
LayerCount: 2
Fore
SplineSet
402 0 m 1,0,-1
 156 0 l 1,1,-1
 156 1462 l 1,2,-1
 402 1462 l 1,3,-1
 402 0 l 1,0,-1
519 28 m 1,4,-1
 503 36 l 1,5,-1
 503 264 l 1,6,-1
 552 243 l 2,7,8
 650 201 650 201 747 201 c 0,9,10
 830 201 830 201 874 246 c 0,11,12
 932 305 932 305 932 443 c 2,13,-1
 932 1462 l 1,14,-1
 1179 1462 l 1,15,-1
 1179 447 l 2,16,17
 1179 244 1179 244 1102 129 c 0,18,19
 1003 -20 1003 -20 765 -20 c 0,20,21
 605 -20 605 -20 519 28 c 1,4,-1
EndSplineSet
EndChar
StartChar: ij
Encoding: 307 307 310
Width: 1229
GlyphClass: 2
Flags: W
LayerCount: 2
Fore
SplineSet
188 1406 m 128,-1,1
 188 1467 188 1467 215 1503 c 0,2,3
 251 1550 251 1550 325 1550 c 128,-1,4
 399 1550 399 1550 434 1503 c 1,5,6
 466 1467 466 1467 466 1406 c 0,7,8
 466 1335 466 1335 420 1297 c 0,9,10
 380 1261 380 1261 325 1261 c 0,11,12
 250 1261 250 1261 215 1309 c 0,13,0
 188 1345 188 1345 188 1406 c 128,-1,1
881 1406 m 128,-1,15
 881 1467 881 1467 908 1503 c 0,16,17
 944 1550 944 1550 1018 1550 c 128,-1,18
 1092 1550 1092 1550 1127 1503 c 0,19,20
 1154 1467 1154 1467 1154 1406 c 0,21,22
 1154 1335 1154 1335 1113.5 1298 c 128,-1,23
 1073 1261 1073 1261 1018 1261 c 0,24,25
 943 1261 943 1261 908 1309 c 0,26,14
 881 1345 881 1345 881 1406 c 128,-1,15
203 0 m 1,27,-1
 203 1098 l 1,28,-1
 445 1098 l 1,29,-1
 445 0 l 1,30,-1
 203 0 l 1,27,-1
545 -455 m 2,31,-1
 519 -448 l 1,32,-1
 519 -227 l 1,33,-1
 574 -246 l 2,34,35
 682 -282 682 -282 782 -282 c 0,36,37
 816 -282 816 -282 841 -271 c 0,38,39
 916 -239 916 -239 916 -97 c 2,40,-1
 916 906 l 1,41,-1
 701 926 l 1,42,-1
 701 1098 l 1,43,-1
 1158 1098 l 1,44,-1
 1158 -87 l 2,45,46
 1158 -280 1158 -280 1065 -386 c 128,-1,47
 972 -492 972 -492 807 -492 c 0,48,49
 672 -492 672 -492 545 -455 c 2,31,-1
EndSplineSet
EndChar
StartChar: kgreenlandic
Encoding: 312 312 315
Width: 600
GlyphClass: 2
Flags: W
LayerCount: 2
Fore
SplineSet
222 196 m 1,0,-1
 222 0 l 1,1,-1
 105 0 l 1,2,-1
 105 536 l 1,3,-1
 222 536 l 1,4,-1
 222 379 l 1,5,-1
 217 274 l 1,6,-1
 262 324 l 1,7,-1
 488 536 l 1,8,-1
 633 536 l 1,9,-1
 363 286 l 1,10,-1
 645 0 l 1,11,-1
 501 0 l 1,12,-1
 273 225 l 1,13,-1
 222 196 l 1,0,-1
EndSplineSet
EndChar
StartChar: Lslash
Encoding: 321 321 324
Width: 600
GlyphClass: 2
Flags: W
LayerCount: 2
Fore
SplineSet
268 294 m 1,0,-1
 268 110 l 1,1,-1
 597 110 l 1,2,-1
 597 0 l 1,3,-1
 137 0 l 1,4,-1
 137 219 l 1,5,-1
 85 188 l 1,6,-1
 35 271 l 1,7,-1
 137 333 l 1,8,-1
 137 714 l 1,9,-1
 258 714 l 1,10,-1
 258 409 l 1,11,-1
 415 491 l 1,12,-1
 477 409 l 1,13,-1
 268 294 l 1,0,-1
EndSplineSet
Validated: 1
EndChar
StartChar: lslash
Encoding: 322 322 325
Width: 1229
GlyphClass: 2
Flags: W
LayerCount: 2
Fore
SplineSet
545 1355 m 1,0,-1
 264 1376 l 1,1,-1
 264 1556 l 1,2,-1
 821 1556 l 1,3,-1
 821 933 l 1,4,-1
 978 1023 l 1,5,-1
 1087 858 l 1,6,-1
 821 698 l 1,7,-1
 821 194 l 1,8,-1
 1187 175 l 1,9,-1
 1187 0 l 1,10,-1
 188 0 l 1,11,-1
 188 174 l 1,12,-1
 545 193 l 1,13,-1
 545 543 l 1,14,-1
 412 468 l 1,15,-1
 302 632 l 1,16,-1
 545 776 l 1,17,-1
 545 1355 l 1,0,-1
EndSplineSet
EndChar
StartChar: napostrophe
Encoding: 329 329 332
Width: 1229
GlyphClass: 2
Flags: W
LayerCount: 2
Fore
SplineSet
322 1260 m 0,0,1
 271 1108 271 1108 179 901 c 1,2,-1
 -16 901 l 1,3,-1
 -7 938 l 2,4,5
 53 1179 53 1179 93 1437 c 2,6,-1
 97 1462 l 1,7,-1
 338 1462 l 1,8,-1
 368 1415 l 1,9,10
 347 1336 347 1336 322 1260 c 0,0,1
1258 0 m 1,11,-1
 1016 0 l 1,12,-1
 1016 691 l 2,13,14
 1016 791 1016 791 973 844 c 0,15,16
 922 907 922 907 802 907 c 0,17,18
 663 907 663 907 593 832 c 0,19,20
 512 747 512 747 512 562 c 2,21,-1
 512 0 l 1,22,-1
 270 0 l 1,23,-1
 270 1098 l 1,24,-1
 474 1098 l 1,25,-1
 493 986 l 1,26,27
 539 1037 539 1037 611 1070 c 0,28,29
 716 1118 716 1118 842 1118 c 0,30,31
 1081 1118 1081 1118 1180 989 c 0,32,33
 1258 887 1258 887 1258 709 c 2,34,-1
 1258 0 l 1,11,-1
EndSplineSet
EndChar
StartChar: Eng
Encoding: 330 330 333
Width: 1229
GlyphClass: 2
Flags: W
LayerCount: 2
Fore
SplineSet
357 1117 m 1,0,1
 367 930 367 930 367 823 c 2,2,-1
 367 0 l 1,3,-1
 135 0 l 1,4,-1
 135 1462 l 1,5,-1
 396 1462 l 1,6,-1
 989 423 l 1,7,8
 978 607 978 607 978 707 c 2,9,-1
 978 1462 l 1,10,-1
 1212 1462 l 1,11,-1
 1212 39 l 2,12,13
 1212 -164 1212 -164 1104 -274 c 0,14,15
 995 -389 995 -389 774 -389 c 0,16,17
 663 -389 663 -389 588 -363 c 2,18,-1
 567 -356 l 1,19,-1
 567 -136 l 1,20,-1
 608 -146 l 2,21,22
 690 -165 690 -165 776 -165 c 0,23,24
 835 -165 835 -165 875 -150.5 c 128,-1,25
 915 -136 915 -136 938 -108 c 0,26,27
 976 -62 976 -62 978 23 c 1,28,-1
 357 1117 l 1,0,1
EndSplineSet
EndChar
StartChar: eng
Encoding: 331 331 334
Width: 1229
GlyphClass: 2
Flags: W
LayerCount: 2
Fore
SplineSet
362 1098 m 1,0,-1
 385 984 l 1,1,2
 512 1118 512 1118 750 1118 c 0,3,4
 1001 1118 1001 1118 1106 989 c 0,5,6
 1189 887 1189 887 1189 707 c 2,7,-1
 1189 -128 l 2,8,9
 1189 -286 1189 -286 1126 -376 c 0,10,11
 1045 -492 1045 -492 859 -492 c 0,12,13
 761 -492 761 -492 697 -464 c 2,14,-1
 678 -456 l 1,15,-1
 678 -245 l 1,16,-1
 723 -261 l 2,17,18
 778 -280 778 -280 839 -280 c 0,19,20
 867 -280 867 -280 888.5 -271.5 c 128,-1,21
 910 -263 910 -263 924 -242 c 0,22,23
 947 -207 947 -207 947 -140 c 2,24,-1
 947 689 l 2,25,26
 947 789 947 789 901 843 c 0,27,28
 874 875 874 875 828.5 891 c 128,-1,29
 783 907 783 907 710.5 907 c 128,-1,30
 638 907 638 907 580 886 c 0,31,32
 407 824 407 824 407 562 c 2,33,-1
 407 0 l 1,34,-1
 160 0 l 1,35,-1
 160 1098 l 1,36,-1
 362 1098 l 1,0,-1
EndSplineSet
EndChar
StartChar: OE
Encoding: 338 338 341
Width: 1229
GlyphClass: 2
Flags: W
LayerCount: 2
Fore
SplineSet
937 654 m 1,0,-1
 937 224 l 1,1,-1
 1347 224 l 1,2,-1
 1347 0 l 1,3,-1
 719 0 l 1,4,-1
 670 -9 l 2,5,6
 612 -20 612 -20 559 -20 c 0,7,8
 422 -20 422 -20 317 29 c 0,9,10
 20 172 20 172 20 735 c 0,11,12
 20 1295 20 1295 332 1436 c 0,13,14
 441 1485 441 1485 585 1485 c 0,15,16
 676 1485 676 1485 756 1462 c 1,17,-1
 1347 1462 l 1,18,-1
 1347 1238 l 1,19,-1
 937 1238 l 1,20,-1
 937 876 l 1,21,-1
 1308 876 l 1,22,-1
 1308 654 l 1,23,-1
 937 654 l 1,0,-1
681 1241 m 1,24,25
 632 1261 632 1261 572 1261 c 0,26,27
 462 1261 462 1261 394 1194 c 0,28,29
 269 1072 269 1072 269 733 c 0,30,31
 269 392 269 392 393 270 c 0,32,33
 461 203 461 203 570 203 c 0,34,35
 628 203 628 203 681 224 c 1,36,-1
 681 1241 l 1,24,25
EndSplineSet
EndChar
StartChar: oe
Encoding: 339 339 342
Width: 1229
GlyphClass: 2
Flags: W
LayerCount: 2
Fore
SplineSet
977 190 m 0,0,1
 992 187 992 187 1011 187 c 0,2,3
 1112 187 1112 187 1199 252 c 2,4,-1
 1248 289 l 1,5,-1
 1248 63 l 1,6,-1
 1236 55 l 1,7,8
 1134 -20 1134 -20 997 -20 c 0,9,10
 891 -20 891 -20 804 46 c 0,11,12
 746 89 746 89 711 154 c 1,13,14
 677 96 677 96 632 57 c 0,15,16
 545 -20 545 -20 425 -20 c 0,17,18
 252 -20 252 -20 152 140 c 0,19,20
 57 292 57 292 57 552.5 c 128,-1,21
 57 813 57 813 149 962 c 0,22,23
 228 1088 228 1088 361 1112 c 0,24,25
 393 1118 393 1118 427 1118 c 0,26,27
 543 1118 543 1118 629 1043 c 0,28,29
 674 1003 674 1003 709 943 c 1,30,31
 773 1059 773 1059 871 1099 c 0,32,33
 919 1118 919 1118 973 1118 c 0,34,35
 1127 1118 1127 1118 1213 976 c 0,36,37
 1294 842 1294 842 1294 621 c 2,38,-1
 1294 484 l 1,39,-1
 839 484 l 1,40,41
 843 356 843 356 876 283 c 0,42,43
 911 205 911 205 977 190 c 0,0,1
399 196 m 0,44,45
 416 191 416 191 438 191 c 0,46,47
 468 191 468 191 491 205 c 0,48,49
 531 228 531 228 555 294 c 0,50,51
 588 382 588 382 588 542 c 0,52,53
 588 707 588 707 555 800 c 0,54,55
 523 888 523 888 465 903 c 0,56,57
 451 907 451 907 436 907 c 0,58,59
 394 907 394 907 366 885 c 0,60,61
 342 866 342 866 326 830 c 0,62,63
 287 740 287 740 287 550.5 c 128,-1,64
 287 361 287 361 326 270 c 0,65,66
 352 211 352 211 399 196 c 0,44,45
991 899 m 0,67,68
 976 907 976 907 957 907 c 0,69,70
 926 907 926 907 904 886 c 0,71,72
 881 864 881 864 864.5 817 c 128,-1,73
 848 770 848 770 842 692 c 1,74,-1
 1057 692 l 1,75,76
 1054 785 1054 785 1034 839 c 0,77,78
 1017 883 1017 883 991 899 c 0,67,68
EndSplineSet
EndChar
StartChar: Tbar
Encoding: 358 358 361
Width: 1229
GlyphClass: 2
Flags: W
LayerCount: 2
Fore
SplineSet
580 0 m 1,0,-1
 580 640 l 1,1,-1
 223 640 l 1,2,-1
 223 849 l 1,3,-1
 538 849 l 1,4,-1
 538 1238 l 1,5,-1
 102 1238 l 1,6,-1
 102 1462 l 1,7,-1
 1244 1462 l 1,8,-1
 1244 1238 l 1,9,-1
 810 1238 l 1,10,-1
 810 849 l 1,11,-1
 1121 849 l 1,12,-1
 1181 640 l 1,13,-1
 827 640 l 1,14,-1
 827 0 l 1,15,-1
 580 0 l 1,0,-1
EndSplineSet
EndChar
StartChar: tbar
Encoding: 359 359 362
Width: 1229
GlyphClass: 2
Flags: W
LayerCount: 2
Fore
SplineSet
1106 210 m 2,0,-1
 1140 215 l 1,1,-1
 1140 18 l 1,2,-1
 1117 13 l 2,3,4
 984 -20 984 -20 852 -20 c 0,5,6
 659 -20 659 -20 549 50 c 0,7,8
 409 140 409 140 409 335 c 2,9,-1
 409 545 l 1,10,-1
 244 545 l 1,11,-1
 244 743 l 1,12,-1
 409 743 l 1,13,-1
 409 901 l 1,14,-1
 139 901 l 1,15,-1
 139 1050 l 1,16,-1
 416 1100 l 1,17,-1
 504 1391 l 1,18,-1
 683 1391 l 1,19,-1
 683 1098 l 1,20,-1
 1146 1098 l 1,21,-1
 1146 901 l 1,22,-1
 683 901 l 1,23,-1
 683 743 l 1,24,-1
 1015 743 l 1,25,-1
 1015 545 l 1,26,-1
 683 545 l 1,27,-1
 683 341 l 2,28,29
 683 271 683 271 718 234 c 0,30,31
 762 189 762 189 865 189 c 0,32,33
 961 189 961 189 1106 210 c 2,0,-1
EndSplineSet
EndChar
StartChar: longs
Encoding: 383 383 386
Width: 1229
GlyphClass: 2
Flags: W
LayerCount: 2
Fore
SplineSet
1059 1330 m 2,0,1
 958 1357 958 1357 825 1357 c 0,2,3
 757 1357 757 1357 712 1346.5 c 128,-1,4
 667 1336 667 1336 645.5 1318 c 128,-1,5
 624 1300 624 1300 611 1263 c 0,6,7
 599 1227 599 1227 599 1172 c 2,8,-1
 599 0 l 1,9,-1
 356 0 l 1,10,-1
 356 1170 l 2,11,12
 356 1373 356 1373 455 1470 c 128,-1,13
 554 1567 554 1567 819 1567 c 0,14,15
 964 1567 964 1567 1115 1531 c 2,16,-1
 1146 1524 l 1,17,-1
 1088 1322 l 1,18,-1
 1059 1330 l 2,0,1
EndSplineSet
EndChar
StartChar: florin
Encoding: 402 402 405
Width: 1229
GlyphClass: 2
Flags: W
LayerCount: 2
Fore
SplineSet
771 1088 m 2,0,-1
 771 979 l 1,1,-1
 1033 979 l 1,2,-1
 1033 791 l 1,3,-1
 771 791 l 1,4,-1
 771 -95 l 2,5,6
 771 -296 771 -296 672.5 -394 c 128,-1,7
 574 -492 574 -492 366 -492 c 0,8,9
 312 -492 312 -492 239 -476 c 2,10,-1
 215 -471 l 1,11,-1
 215 -253 l 1,12,-1
 254 -265 l 2,13,14
 308 -282 308 -282 360 -282 c 0,15,16
 387 -282 387 -282 407.5 -277 c 128,-1,17
 428 -272 428 -272 439.5 -264.5 c 128,-1,18
 451 -257 451 -257 458 -246 c 256,19,20
 465 -235 465 -235 470.5 -221 c 128,-1,21
 476 -207 476 -207 480 -189 c 0,22,23
 489 -151 489 -151 489 -97 c 2,24,-1
 489 791 l 1,25,-1
 291 791 l 1,26,-1
 291 911 l 1,27,-1
 489 976 l 1,28,-1
 489 1086 l 2,29,30
 489 1287 489 1287 587 1385 c 128,-1,31
 685 1483 685 1483 907 1483 c 0,32,33
 1009 1483 1009 1483 1114 1444 c 2,34,-1
 1142 1434 l 1,35,-1
 1076 1237 l 1,36,-1
 1047 1247 l 2,37,38
 973 1273 973 1273 913 1273 c 0,39,40
 828 1273 828 1273 802 1236 c 0,41,42
 771 1192 771 1192 771 1088 c 2,0,-1
EndSplineSet
EndChar
StartChar: Ohorn
Encoding: 416 416 419
Width: 1229
GlyphClass: 2
Flags: W
LayerCount: 2
Fore
SplineSet
1334 1333 m 0,0,1
 1281 1227 1281 1227 1191 1166 c 1,2,3
 1267 991 1267 991 1267 733 c 0,4,5
 1267 568 1267 568 1234 430 c 128,-1,6
 1201 292 1201 292 1130 191 c 0,7,8
 1055 91 1055 91 940 35.5 c 128,-1,9
 825 -20 825 -20 667.5 -20 c 128,-1,10
 510 -20 510 -20 394 35 c 0,11,12
 282 91 282 91 214 191.5 c 128,-1,13
 146 292 146 292 115 431 c 0,14,15
 84 568 84 568 84 734.5 c 128,-1,16
 84 901 84 901 115 1038.5 c 128,-1,17
 146 1176 146 1176 214 1275.5 c 128,-1,18
 282 1375 282 1375 395 1430 c 0,19,20
 512 1485 512 1485 673 1485 c 0,21,22
 926 1485 926 1485 1078 1328 c 1,23,24
 1093 1356 1093 1356 1099.5 1386.5 c 128,-1,25
 1106 1417 1106 1417 1109.5 1452.5 c 128,-1,26
 1113 1488 1113 1488 1116 1556 c 1,27,-1
 1361 1556 l 1,28,-1
 1392 1510 l 1,29,30
 1368 1402 1368 1402 1334 1333 c 0,0,1
361 962 m 0,31,32
 342 861 342 861 342 733 c 0,33,34
 342 400 342 400 464 279 c 0,35,36
 489 254 489 254 520 237 c 0,37,38
 581 203 581 203 671.5 203 c 128,-1,39
 762 203 762 203 823.5 237 c 128,-1,40
 885 271 885 271 923 337 c 0,41,42
 963 405 963 405 981 504 c 0,43,44
 999 606 999 606 999 733 c 0,45,46
 999 1044 999 1044 895 1168 c 0,47,48
 864 1204 864 1204 824 1227 c 0,49,50
 763 1261 763 1261 672.5 1261 c 128,-1,51
 582 1261 582 1261 521 1227 c 0,52,53
 398 1159 398 1159 361 962 c 0,31,32
EndSplineSet
EndChar
StartChar: ohorn
Encoding: 417 417 420
Width: 1229
GlyphClass: 2
Flags: W
LayerCount: 2
Fore
SplineSet
1319 1012 m 0,0,1
 1260 905 1260 905 1163 856 c 1,2,3
 1232 725 1232 725 1232 554 c 0,4,5
 1232 419 1232 419 1193 312.5 c 128,-1,6
 1154 206 1154 206 1078 132 c 0,7,8
 1002 59 1002 59 896 20 c 0,9,10
 790 -20 790 -20 667.5 -20 c 128,-1,11
 545 -20 545 -20 441 20 c 0,12,13
 339 59 339 59 268 132 c 128,-1,14
 197 205 197 205 156 310.5 c 128,-1,15
 115 416 115 416 115 551 c 0,16,17
 115 747 115 747 199 886 c 0,18,19
 227 930 227 930 262 967 c 0,20,21
 332 1040 332 1040 437 1078 c 0,22,23
 543 1118 543 1118 670 1118 c 0,24,25
 781 1118 781 1118 879 1083 c 0,26,27
 967 1052 967 1052 1037 993 c 1,28,29
 1057 1004 1057 1004 1068 1017 c 0,30,31
 1089 1043 1089 1043 1099 1074.5 c 128,-1,32
 1109 1106 1109 1106 1112 1147.5 c 128,-1,33
 1115 1189 1115 1189 1115 1236 c 2,34,-1
 1115 1266 l 1,35,-1
 1361 1266 l 1,36,-1
 1392 1219 l 1,37,38
 1363 1091 1363 1091 1319 1012 c 0,0,1
665 907 m 0,39,40
 551 907 551 907 482 860 c 0,41,42
 363 778 363 778 363 550 c 0,43,44
 363 365 363 365 442 276 c 0,45,46
 517 191 517 191 667 191 c 0,47,48
 743 191 743 191 800 212 c 0,49,50
 971 277 971 277 971 551 c 0,51,52
 971 735 971 735 892 823 c 0,53,54
 817 907 817 907 665 907 c 0,39,40
EndSplineSet
EndChar
StartChar: Uhorn
Encoding: 431 431 434
Width: 600
GlyphClass: 2
Flags: W
LayerCount: 2
Fore
SplineSet
522 538 m 1,0,-1
 522 237 l 2,1,2
 522 182 522 182 511 137 c 0,3,4
 499 92 499 92 473 59 c 0,5,6
 419 -9 419 -9 289 -10 c 0,7,8
 164 -10 164 -10 111 56 c 0,9,10
 85 88 85 88 73 134 c 128,-1,11
 61 180 61 180 61 238 c 2,12,-1
 61 714 l 1,13,-1
 181 714 l 1,14,-1
 181 247 l 2,15,16
 181 167 181 167 208 133 c 0,17,18
 220 116 220 116 241 107.5 c 128,-1,19
 262 99 262 99 295 99 c 0,20,21
 328 99 328 99 348.5 108.5 c 128,-1,22
 369 118 369 118 380.5 136 c 128,-1,23
 392 154 392 154 397 182 c 128,-1,24
 402 210 402 210 402 248 c 2,25,-1
 402 714 l 1,26,-1
 522 714 l 1,27,-1
 522 624 l 1,28,29
 529 627 529 627 534 632 c 0,30,31
 545 642 545 642 551 658 c 0,32,33
 558 675 558 675 560 697 c 128,-1,34
 562 719 562 719 562 745 c 2,35,-1
 562 760 l 1,36,-1
 681 760 l 1,37,-1
 696 737 l 1,38,-1
 694 731 l 2,39,40
 687 697 687 697 674.5 666 c 128,-1,41
 662 635 662 635 640.5 608.5 c 128,-1,42
 619 582 619 582 587 563 c 0,43,44
 560 547 560 547 522 538 c 1,0,-1
EndSplineSet
EndChar
StartChar: uhorn
Encoding: 432 432 435
Width: 1229
GlyphClass: 2
Flags: W
LayerCount: 2
Fore
SplineSet
1054 811 m 1,0,-1
 1054 0 l 1,1,-1
 851 0 l 1,2,-1
 832 106 l 1,3,4
 756 18 756 18 628 -9 c 0,5,6
 577 -20 577 -20 525 -20 c 0,7,8
 426 -20 426 -20 357 5 c 0,9,10
 291 30 291 30 247 81.5 c 128,-1,11
 203 133 203 133 181.5 210 c 128,-1,12
 160 287 160 287 160 390 c 2,13,-1
 160 1098 l 1,14,-1
 402 1098 l 1,15,-1
 402 407 l 2,16,17
 402 293 402 293 446 239 c 0,18,19
 484 191 484 191 571 191 c 0,20,21
 639 191 639 191 683 212 c 0,22,23
 773 253 773 253 798 380 c 0,24,25
 812 447 812 447 812 535 c 2,26,-1
 812 1098 l 1,27,-1
 1054 1098 l 1,28,-1
 1054 982 l 1,29,30
 1074 988 1074 988 1088 999 c 0,31,32
 1113 1020 1113 1020 1126 1051 c 0,33,34
 1141 1086 1141 1086 1145 1132 c 0,35,36
 1150 1182 1150 1182 1150 1236 c 2,37,-1
 1150 1266 l 1,38,-1
 1394 1266 l 1,39,-1
 1425 1219 l 1,40,-1
 1422 1207 l 2,41,42
 1407 1138 1407 1138 1381 1070 c 128,-1,43
 1355 1002 1355 1002 1309 946 c 128,-1,44
 1263 890 1263 890 1194 852 c 0,45,46
 1135 820 1135 820 1054 811 c 1,0,-1
EndSplineSet
EndChar
StartChar: circumflex
Encoding: 710 710 713
Width: 1229
GlyphClass: 2
Flags: W
LayerCount: 2
Fore
SplineSet
1036 1211 m 1,0,-1
 876 1211 l 1,1,-1
 869 1216 l 1,2,3
 787 1269 787 1269 644 1384 c 1,4,5
 494 1264 494 1264 419 1216 c 1,6,-1
 412 1211 l 1,7,-1
 253 1211 l 1,8,-1
 253 1279 l 1,9,10
 285 1317 285 1317 316 1351 c 128,-1,11
 347 1385 347 1385 370.5 1413 c 128,-1,12
 394 1441 394 1441 413 1465.5 c 128,-1,13
 432 1490 432 1490 447 1511 c 0,14,15
 477 1553 477 1553 491 1582 c 2,16,-1
 499 1599 l 1,17,-1
 790 1599 l 1,18,-1
 798 1582 l 2,19,20
 821 1533 821 1533 889 1449 c 0,21,22
 924 1405 924 1405 970 1355 c 2,23,-1
 1036 1279 l 1,24,-1
 1036 1211 l 1,0,-1
EndSplineSet
EndChar
StartChar: caron
Encoding: 711 711 714
Width: 1229
GlyphClass: 2
Flags: W
LayerCount: 2
Fore
SplineSet
499 1211 m 1,0,-1
 491 1228 l 2,1,2
 458 1300 458 1300 319 1455 c 2,3,-1
 253 1531 l 1,4,-1
 253 1542 l 1,5,-1
 253 1599 l 1,6,-1
 412 1599 l 1,7,-1
 419 1594 l 2,8,9
 497 1543 497 1543 644 1425 c 1,10,11
 783 1538 783 1538 868 1594 c 2,12,-1
 876 1599 l 1,13,-1
 1036 1599 l 1,14,-1
 1036 1531 l 1,15,16
 1004 1493 1004 1493 964 1448.5 c 128,-1,17
 924 1404 924 1404 888 1360 c 0,18,19
 819 1275 819 1275 798 1228 c 2,20,-1
 790 1211 l 1,21,-1
 499 1211 l 1,0,-1
EndSplineSet
EndChar
StartChar: macron
Encoding: 713 713 716
Width: 600
GlyphClass: 2
Flags: W
LayerCount: 2
Fore
SplineSet
145 694 m 1,0,-1
 455 694 l 1,1,-1
 455 591 l 1,2,-1
 145 591 l 1,3,-1
 145 694 l 1,0,-1
EndSplineSet
EndChar
StartChar: breve
Encoding: 728 728 731
Width: 600
GlyphClass: 2
Flags: W
LayerCount: 2
Fore
SplineSet
312 591 m 0,0,1
 211 591 211 591 170 643 c 0,2,3
 142 680 142 680 138 740 c 2,4,-1
 137 756 l 1,5,-1
 219 756 l 1,6,-1
 221 743 l 2,7,8
 222 727 222 727 226 717.5 c 128,-1,9
 230 708 230 708 236 705 c 0,10,11
 252 695 252 695 313 695 c 0,12,13
 386 695 386 695 401 722 c 0,14,15
 406 731 406 731 407 742 c 2,16,-1
 408 756 l 1,17,-1
 492 756 l 1,18,-1
 491 740 l 2,19,20
 486 672 486 672 442.5 631.5 c 128,-1,21
 399 591 399 591 312 591 c 0,0,1
EndSplineSet
Validated: 1
EndChar
StartChar: dotaccent
Encoding: 729 729 732
Width: 600
GlyphClass: 2
Flags: W
LayerCount: 2
Fore
SplineSet
354 729 m 0,0,1
 367 711 367 711 367 681 c 128,-1,2
 367 651 367 651 354 634 c 0,3,4
 337 611 337 611 300.5 610.5 c 128,-1,5
 264 610 264 610 247 634 c 0,6,7
 234 652 234 652 233.5 681.5 c 128,-1,8
 233 711 233 711 247 729 c 0,9,10
 264 752 264 752 300 752 c 128,-1,11
 336 752 336 752 354 729 c 0,0,1
EndSplineSet
EndChar
StartChar: ring
Encoding: 730 730 733
Width: 1229
GlyphClass: 2
Flags: W
LayerCount: 2
Fore
SplineSet
357 1456 m 128,-1,1
 357 1568 357 1568 426.5 1634.5 c 128,-1,2
 496 1701 496 1701 609.5 1701 c 128,-1,3
 723 1701 723 1701 796.5 1633.5 c 128,-1,4
 870 1566 870 1566 870 1458 c 0,5,6
 870 1385 870 1385 838 1329 c 0,7,8
 821 1301 821 1301 797 1279 c 0,9,10
 725 1211 725 1211 610.5 1211 c 128,-1,11
 496 1211 496 1211 426.5 1277.5 c 128,-1,0
 357 1344 357 1344 357 1456 c 128,-1,1
550.5 1517.5 m 128,-1,13
 528 1496 528 1496 528 1456 c 128,-1,14
 528 1416 528 1416 544 1396 c 0,15,16
 562 1373 562 1373 610 1373 c 0,17,18
 648 1373 648 1373 670.5 1394.5 c 128,-1,19
 693 1416 693 1416 693 1456 c 128,-1,20
 693 1496 693 1496 671 1517 c 0,21,22
 648 1539 648 1539 610.5 1539 c 128,-1,12
 573 1539 573 1539 550.5 1517.5 c 128,-1,13
EndSplineSet
EndChar
StartChar: ogonek
Encoding: 731 731 734
Width: 600
GlyphClass: 2
Flags: W
LayerCount: 2
Fore
SplineSet
413 -137 m 1,0,-1
 413 -222 l 1,1,-1
 402 -225 l 2,2,3
 364 -237 364 -237 322 -237 c 0,4,5
 259 -237 259 -237 223 -207 c 0,6,7
 205 -192 205 -192 196.5 -170.5 c 128,-1,8
 188 -149 188 -149 188 -123 c 0,9,10
 188 -44 188 -44 288 13 c 2,11,-1
 291 15 l 1,12,-1
 403 15 l 1,13,-1
 368 -12 l 2,14,15
 291 -69 291 -69 291 -116 c 0,16,17
 291 -129 291 -129 297 -137 c 0,18,19
 307 -149 307 -149 337.5 -148.5 c 128,-1,20
 368 -148 368 -148 394 -142 c 2,21,-1
 413 -137 l 1,0,-1
EndSplineSet
EndChar
StartChar: tilde
Encoding: 732 732 735
Width: 1229
GlyphClass: 2
Flags: W
LayerCount: 2
Fore
SplineSet
221 1211 m 1,0,-1
 224 1244 l 2,1,2
 245 1460 245 1460 371 1516 c 0,3,4
 413 1535 413 1535 465 1535 c 0,5,6
 544 1535 544 1535 676 1475 c 0,7,8
 779 1428 779 1428 819 1423 c 0,9,10
 821 1423 821 1423 822 1423 c 0,11,12
 852 1423 852 1423 871 1447 c 0,13,14
 889 1470 889 1470 899 1514 c 2,15,-1
 904 1537 l 1,16,-1
 1066 1537 l 1,17,-1
 1063 1504 l 2,18,19
 1041 1288 1041 1288 916 1232 c 0,20,21
 874 1213 874 1213 822 1213 c 0,22,23
 744 1213 744 1213 616 1274 c 0,24,25
 551 1304 551 1304 515.5 1315 c 128,-1,26
 480 1326 480 1326 465 1326 c 0,27,28
 428 1326 428 1326 407 1290 c 0,29,30
 395 1268 395 1268 387 1235 c 2,31,-1
 382 1211 l 1,32,-1
 221 1211 l 1,0,-1
EndSplineSet
EndChar
StartChar: hungarumlaut
Encoding: 733 733 736
Width: 1229
GlyphClass: 2
Flags: W
LayerCount: 2
Fore
SplineSet
401 1599 m 1,0,-1
 685 1599 l 1,1,-1
 685 1539 l 1,2,-1
 679 1532 l 1,3,4
 542 1355 542 1355 365 1218 c 1,5,-1
 357 1211 l 1,6,-1
 216 1211 l 1,7,-1
 216 1278 l 1,8,-1
 221 1285 l 2,9,10
 314 1416 314 1416 393 1582 c 2,11,-1
 401 1599 l 1,0,-1
823 1599 m 1,12,-1
 1071 1599 l 1,13,-1
 1071 1539 l 1,14,-1
 1066 1532 l 1,15,16
 952 1355 952 1355 781 1218 c 1,17,-1
 771 1211 l 1,18,-1
 601 1211 l 1,19,-1
 601 1278 l 1,20,21
 659 1343 659 1343 710 1417.5 c 128,-1,22
 761 1492 761 1492 823 1599 c 1,12,-1
EndSplineSet
EndChar
StartChar: uni02F3
Encoding: 755 755 758
Width: 1229
GlyphClass: 2
Flags: W
LayerCount: 2
Fore
SplineSet
870 -338 m 0,0,1
 870 -432 870 -432 816 -497 c 0,2,3
 776 -546 776 -546 711 -569 c 0,4,5
 664 -585 664 -585 609.5 -585 c 128,-1,6
 555 -585 555 -585 508 -569 c 0,7,8
 438 -544 438 -544 398 -484 c 0,9,10
 357 -424 357 -424 357 -340 c 0,11,12
 358 -227 358 -227 428 -160 c 0,13,14
 497 -95 497 -95 610 -95 c 0,15,16
 663 -95 663 -95 710 -111.5 c 128,-1,17
 757 -128 757 -128 793 -159.5 c 128,-1,18
 829 -191 829 -191 849.5 -236 c 128,-1,19
 870 -281 870 -281 870 -338 c 0,0,1
693 -340 m 128,-1,21
 693 -300 693 -300 671 -279 c 0,22,23
 648 -257 648 -257 610.5 -257 c 128,-1,24
 573 -257 573 -257 550.5 -278.5 c 128,-1,25
 528 -300 528 -300 528 -340 c 0,26,27
 528 -394 528 -394 563 -413 c 0,28,29
 580 -423 580 -423 610 -423 c 0,30,31
 648 -423 648 -423 670.5 -401.5 c 128,-1,20
 693 -380 693 -380 693 -340 c 128,-1,21
EndSplineSet
EndChar
StartChar: hook
Encoding: 777 777 780
Width: 1229
GlyphClass: 2
Flags: W
LayerCount: 2
Fore
SplineSet
535 1709 m 0,0,1
 831 1709 831 1709 831 1491 c 0,2,3
 831 1445 831 1445 815 1410 c 0,4,5
 784 1344 784 1344 711 1312 c 0,6,7
 688 1303 688 1303 663 1295 c 1,8,-1
 652 1178 l 1,9,-1
 484 1178 l 1,10,-1
 466 1409 l 1,11,12
 517 1417 517 1417 532 1420.5 c 128,-1,13
 547 1424 547 1424 557 1427 c 0,14,15
 607 1441 607 1441 623 1464 c 0,16,17
 629 1472 629 1472 629 1487 c 128,-1,18
 629 1502 629 1502 623 1511 c 0,19,20
 611 1531 611 1531 574 1536 c 0,21,22
 551 1539 551 1539 533 1539 c 128,-1,23
 515 1539 515 1539 506 1539 c 0,24,25
 457 1538 457 1538 434 1534 c 2,26,-1
 398 1527 l 1,27,-1
 398 1696 l 1,28,29
 440 1704 440 1704 466 1706.5 c 128,-1,30
 492 1709 492 1709 535 1709 c 0,0,1
EndSplineSet
EndChar
StartChar: uni030F
Encoding: 783 783 786
Width: 600
GlyphClass: 2
Flags: W
LayerCount: 2
Fore
SplineSet
503 591 m 1,0,-1
 434 591 l 1,1,2
 384 633 384 633 315 704 c 0,3,4
 288 732 288 732 276 749 c 2,5,-1
 273 752 l 1,6,-1
 273 781 l 1,7,-1
 413 781 l 1,8,9
 443 717 443 717 479 660 c 0,10,11
 491 642 491 642 503 624 c 1,12,-1
 503 591 l 1,0,-1
315 591 m 1,13,-1
 232 591 l 1,14,15
 190 622 190 622 146 672 c 0,16,17
 104 720 104 720 87 749 c 2,18,-1
 85 752 l 1,19,-1
 85 781 l 1,20,-1
 206 781 l 1,21,22
 228 741 228 741 258 697 c 0,23,24
 288 654 288 654 312 628 c 2,25,-1
 315 624 l 1,26,-1
 315 591 l 1,13,-1
EndSplineSet
EndChar
StartChar: dotbelow
Encoding: 803 803 806
Width: 1229
GlyphClass: 2
Flags: W
LayerCount: 2
Fore
SplineSet
614 -390 m 0,0,1
 557 -390 557 -390 517.5 -354 c 128,-1,2
 478 -318 478 -318 478 -245.5 c 128,-1,3
 478 -173 478 -173 517.5 -137 c 128,-1,4
 557 -101 557 -101 613 -101 c 128,-1,5
 669 -101 669 -101 710 -136.5 c 128,-1,6
 751 -172 751 -172 751 -246 c 0,7,8
 751 -314 751 -314 710 -354 c 0,9,10
 682 -381 682 -381 640 -388 c 0,11,12
 628 -390 628 -390 614 -390 c 0,0,1
EndSplineSet
EndChar
StartChar: tonos
Encoding: 900 900 903
Width: 1229
GlyphClass: 2
Flags: W
LayerCount: 2
Fore
SplineSet
549 1543 m 2,0,-1
 553 1569 l 1,1,-1
 808 1569 l 1,2,-1
 808 1535 l 2,3,4
 808 1526 808 1526 796 1505.5 c 128,-1,5
 784 1485 784 1485 756 1446 c 1,6,7
 705 1339 705 1339 642 1253 c 1,8,-1
 633 1181 l 1,9,-1
 479 1181 l 1,10,-1
 479 1238 l 1,11,-1
 479 1242 l 1,12,-1
 510 1353 l 2,13,14
 539 1465 539 1465 549 1543 c 2,0,-1
EndSplineSet
EndChar
StartChar: dieresistonos
Encoding: 901 901 904
Width: 600
GlyphClass: 2
Flags: W
LayerCount: 2
Fore
SplineSet
320 838 m 1,0,-1
 463 838 l 1,1,-1
 463 810 l 1,2,3
 415 726 415 726 344 654 c 1,4,-1
 338 649 l 1,5,-1
 260 649 l 1,6,-1
 260 679 l 1,7,8
 291 749 291 749 316 827 c 1,9,-1
 320 838 l 1,0,-1
146 695.5 m 128,-1,11
 146 723 146 723 158 739 c 0,12,13
 174 760 174 760 207.5 760 c 128,-1,14
 241 760 241 760 257 739 c 0,15,16
 270 722 270 722 271 696 c 0,17,18
 271 666 271 666 251 648 c 0,19,20
 233 631 233 631 208 631 c 0,21,22
 175 631 175 631 158 652 c 0,23,10
 146 668 146 668 146 695.5 c 128,-1,11
400 739 m 0,24,25
 416 760 416 760 450 760 c 0,26,27
 466 760 466 760 478.5 755 c 128,-1,28
 491 750 491 750 500 739 c 0,29,30
 512 722 512 722 512 696 c 0,31,32
 512 669 512 669 500 652 c 0,33,34
 492 641 492 641 479 636 c 128,-1,35
 466 631 466 631 450 631 c 0,36,37
 417 631 417 631 400 652 c 0,38,39
 387 668 387 668 387 695 c 128,-1,40
 387 722 387 722 400 739 c 0,24,25
EndSplineSet
EndChar
StartChar: anoteleia
Encoding: 903 903 906
Width: 1229
GlyphClass: 2
Flags: W
LayerCount: 2
Fore
SplineSet
518 807 m 0,0,1
 558 862 558 862 644 862 c 128,-1,2
 730 862 730 862 770 807 c 0,3,4
 801 765 801 765 801 693 c 128,-1,5
 801 621 801 621 770 579 c 0,6,7
 730 524 730 524 644 524 c 128,-1,8
 558 524 558 524 518 579 c 0,9,10
 487 621 487 621 487 693 c 128,-1,11
 487 765 487 765 518 807 c 0,0,1
EndSplineSet
EndChar
StartChar: Gamma
Encoding: 915 915 918
Width: 1229
GlyphClass: 2
Flags: W
LayerCount: 2
Fore
SplineSet
246 1462 m 1,0,-1
 1191 1462 l 1,1,-1
 1191 1236 l 1,2,-1
 492 1236 l 1,3,-1
 492 0 l 1,4,-1
 246 0 l 1,5,-1
 246 1462 l 1,0,-1
EndSplineSet
EndChar
StartChar: uni0394
Encoding: 916 916 919
Width: 1229
GlyphClass: 2
Flags: W
LayerCount: 2
Fore
SplineSet
817 1462 m 1,0,-1
 1339 154 l 1,1,-1
 1339 0 l 1,2,-1
 68 0 l 1,3,-1
 68 161 l 1,4,-1
 586 1462 l 1,5,-1
 817 1462 l 1,0,-1
344 226 m 1,6,-1
 1057 226 l 1,7,-1
 764 938 l 1,8,9
 729 1041 729 1041 700 1156 c 1,10,11
 667 1023 667 1023 640 944 c 1,12,-1
 344 226 l 1,6,-1
EndSplineSet
EndChar
StartChar: Lambda
Encoding: 923 923 926
Width: 1229
GlyphClass: 2
Flags: W
LayerCount: 2
Fore
SplineSet
1339 0 m 1,0,-1
 1077 0 l 1,1,-1
 753 943 l 2,2,3
 712 1063 712 1063 684 1162 c 1,4,5
 651 1041 651 1041 619 949 c 2,6,-1
 293 0 l 1,7,-1
 33 0 l 1,8,-1
 560 1462 l 1,9,-1
 810 1462 l 1,10,-1
 1339 0 l 1,0,-1
EndSplineSet
EndChar
StartChar: Xi
Encoding: 926 926 929
Width: 600
GlyphClass: 2
Flags: W
LayerCount: 2
Fore
SplineSet
74 604 m 1,0,-1
 74 714 l 1,1,-1
 583 714 l 1,2,-1
 583 604 l 1,3,-1
 74 604 l 1,0,-1
114 319 m 1,4,-1
 114 428 l 1,5,-1
 543 428 l 1,6,-1
 543 319 l 1,7,-1
 114 319 l 1,4,-1
54 109 m 1,8,-1
 604 109 l 1,9,-1
 604 0 l 1,10,-1
 54 0 l 1,11,-1
 54 109 l 1,8,-1
EndSplineSet
EndChar
StartChar: Pi
Encoding: 928 928 931
Width: 1229
GlyphClass: 2
Flags: W
LayerCount: 2
Fore
SplineSet
1214 1462 m 1,0,-1
 1214 0 l 1,1,-1
 967 0 l 1,2,-1
 967 1238 l 1,3,-1
 382 1238 l 1,4,-1
 382 0 l 1,5,-1
 135 0 l 1,6,-1
 135 1462 l 1,7,-1
 1214 1462 l 1,0,-1
EndSplineSet
EndChar
StartChar: Sigma
Encoding: 931 931 934
Width: 600
GlyphClass: 2
Flags: W
LayerCount: 2
Fore
SplineSet
594 0 m 1,0,-1
 64 0 l 1,1,-1
 64 90 l 1,2,-1
 272 373 l 1,3,-1
 70 626 l 1,4,-1
 70 714 l 1,5,-1
 564 714 l 1,6,-1
 564 604 l 1,7,-1
 221 604 l 1,8,-1
 420 375 l 1,9,-1
 209 109 l 1,10,-1
 594 109 l 1,11,-1
 594 0 l 1,0,-1
EndSplineSet
Validated: 1
EndChar
StartChar: Phi
Encoding: 934 934 937
Width: 600
GlyphClass: 2
Flags: W
LayerCount: 2
Fore
SplineSet
270 640 m 1,0,-1
 270 724 l 1,1,-1
 389 724 l 1,2,-1
 389 640 l 1,3,-1
 398 640 l 2,4,5
 518 640 518 640 583 562 c 0,6,7
 646 486 646 486 646 370 c 128,-1,8
 646 254 646 254 581 175 c 0,9,10
 515 96 515 96 389 96 c 1,11,-1
 389 -10 l 1,12,-1
 270 -10 l 1,13,-1
 270 96 l 1,14,15
 143 97 143 97 78 176 c 0,16,17
 14 255 14 255 13.5 370 c 128,-1,18
 13 485 13 485 76 562 c 0,19,20
 108 601 108 601 154 620 c 0,21,22
 202 640 202 640 261 640 c 2,23,-1
 270 640 l 1,0,-1
391 543 m 2,24,-1
 389 543 l 1,25,-1
 389 192 l 1,26,27
 433 194 433 194 464 214 c 0,28,29
 479 224 479 224 492 238 c 0,30,31
 534 286 534 286 533 372 c 0,32,33
 533 451 533 451 495 498 c 0,34,35
 476 521 476 521 451 532 c 128,-1,36
 426 543 426 543 391 543 c 2,24,-1
270 192 m 1,37,-1
 270 543 l 1,38,-1
 269 543 l 2,39,40
 201 543 201 543 165 498 c 0,41,42
 127 451 127 451 126 372 c 0,43,44
 126 286 126 286 168 238 c 0,45,46
 187 217 187 217 212 205 c 128,-1,47
 237 193 237 193 270 192 c 1,37,-1
EndSplineSet
EndChar
StartChar: Psi
Encoding: 936 936 939
Width: 600
GlyphClass: 2
Flags: W
LayerCount: 2
Fore
SplineSet
661 714 m 1,0,-1
 661 475 l 2,1,2
 661 335 661 335 601 272 c 0,3,4
 540 210 540 210 399 209 c 1,5,-1
 399 0 l 1,6,-1
 289 0 l 1,7,-1
 289 209 l 1,8,9
 147 210 147 210 87 272 c 0,10,11
 27 335 27 335 28 473 c 2,12,-1
 28 714 l 1,13,-1
 141 714 l 1,14,-1
 141 465 l 2,15,16
 141 404 141 404 153 368 c 0,17,18
 162 340 162 340 178 326 c 0,19,20
 213 296 213 296 289 295 c 1,21,-1
 289 714 l 1,22,-1
 399 714 l 1,23,-1
 399 295 l 1,24,25
 476 296 476 296 511 326 c 0,26,27
 526 339 526 339 535 366 c 0,28,29
 547 403 547 403 547 463 c 2,30,-1
 547 714 l 1,31,-1
 661 714 l 1,0,-1
EndSplineSet
EndChar
StartChar: uni03A9
Encoding: 937 937 940
Width: 600
GlyphClass: 2
Flags: W
LayerCount: 2
Fore
SplineSet
289 93 m 1,0,-1
 293 89 l 1,1,-1
 293 0 l 1,2,-1
 36 0 l 1,3,-1
 36 109 l 1,4,-1
 146 109 l 1,5,6
 42 219 42 219 42 403 c 0,7,8
 42 553 42 553 114 639 c 0,9,10
 187 725 187 725 330 725 c 256,11,12
 474 725 474 725 547 639 c 0,13,14
 619 554 619 554 619 403 c 0,15,16
 619 218 619 218 514 109 c 1,17,-1
 625 109 l 1,18,-1
 625 0 l 1,19,-1
 366 0 l 1,20,-1
 366 89 l 1,21,-1
 371 93 l 1,22,23
 493 197 493 197 493 396 c 0,24,25
 493 563 493 563 408 603 c 0,26,27
 381 616 381 616 329 616 c 0,28,29
 240 616 240 616 203 563 c 0,30,31
 165 508 165 508 166 396 c 0,32,33
 166 197 166 197 289 93 c 1,0,-1
EndSplineSet
Validated: 33
EndChar
StartChar: alpha
Encoding: 945 945 948
Width: 1229
GlyphClass: 2
Flags: W
LayerCount: 2
Fore
SplineSet
986 40 m 0,0,1
 950 73 950 73 929 122 c 1,2,3
 803 -20 803 -20 588 -20 c 0,4,5
 359 -20 359 -20 238 132 c 0,6,7
 121 281 121 281 121 547 c 0,8,9
 121 816 121 816 242 965 c 0,10,11
 366 1118 366 1118 609 1118 c 0,12,13
 828 1118 828 1118 944 977 c 1,14,15
 972 1049 972 1049 1008 1087 c 2,16,-1
 1018 1098 l 1,17,-1
 1216 1098 l 1,18,-1
 1204 1062 l 2,19,20
 1154 910 1154 910 1154 658 c 2,21,-1
 1154 265 l 2,22,23
 1154 205 1154 205 1184 193 c 0,24,25
 1193 189 1193 189 1208 189 c 0,26,27
 1232 189 1232 189 1259 198 c 2,28,-1
 1298 210 l 1,29,-1
 1298 17 l 1,30,-1
 1281 9 l 2,31,32
 1223 -20 1223 -20 1153 -20 c 0,33,34
 1052 -20 1052 -20 986 40 c 0,0,1
899 534 m 1,35,-1
 899 547 l 2,36,37
 901 748 901 748 833 830 c 0,38,39
 769 907 769 907 625 907 c 0,40,41
 562 907 562 907 515 886 c 0,42,43
 414 842 414 842 383 693 c 0,44,45
 369 629 369 629 369 545 c 0,46,47
 369 275 369 275 515 211 c 0,48,49
 562 191 562 191 626 191 c 0,50,51
 771 191 771 191 830 264 c 0,52,53
 894 342 894 342 899 534 c 1,35,-1
EndSplineSet
EndChar
StartChar: beta
Encoding: 946 946 949
Width: 1229
GlyphClass: 2
Flags: W
LayerCount: 2
Fore
SplineSet
400 26 m 1,0,-1
 400 -492 l 1,1,-1
 158 -492 l 1,2,-1
 158 1077 l 2,3,4
 158 1308 158 1308 285 1435 c 0,5,6
 414 1567 414 1567 661 1567 c 0,7,8
 895 1567 895 1567 1031 1454 c 1,9,10
 1158 1340 1158 1340 1158 1144 c 0,11,12
 1158 1004 1158 1004 1070 909 c 0,13,14
 1015 850 1015 850 922 817 c 1,15,16
 1029 789 1029 789 1096 732 c 0,17,18
 1224 625 1224 625 1224 421 c 0,19,20
 1224 214 1224 214 1092 97 c 0,21,22
 959 -20 959 -20 704 -20 c 0,23,24
 525 -20 525 -20 400 26 c 1,0,-1
400 253 m 1,25,26
 535 189 535 189 689 189 c 0,27,28
 854 189 854 189 925 265 c 0,29,30
 982 327 982 327 982 442 c 0,31,32
 982 566 982 566 887 636 c 0,33,34
 791 706 791 706 626 706 c 2,35,-1
 488 706 l 1,36,-1
 488 906 l 1,37,-1
 599 906 l 2,38,39
 745 906 745 906 824.5 968.5 c 128,-1,40
 904 1031 904 1031 904 1137 c 0,41,42
 904 1268 904 1268 805 1324 c 0,43,44
 747 1357 747 1357 661 1357 c 0,45,46
 535 1357 535 1357 471 1292 c 0,47,48
 400 1221 400 1221 400 1069 c 2,49,-1
 400 253 l 1,25,26
EndSplineSet
EndChar
StartChar: gamma
Encoding: 947 947 950
Width: 600
GlyphClass: 2
Flags: W
LayerCount: 2
Fore
SplineSet
418 30 m 1,0,1
 360 -99 360 -99 360 -226 c 2,2,-1
 360 -240 l 1,3,-1
 227 -240 l 1,4,-1
 227 -226 l 2,5,6
 227 -128 227 -128 279 11 c 1,7,-1
 40 536 l 1,8,-1
 166 536 l 1,9,-1
 299 238 l 2,10,11
 326 178 326 178 343 125 c 1,12,13
 358 167 358 167 382 225 c 2,14,-1
 508 536 l 1,15,-1
 632 536 l 1,16,-1
 418 30 l 1,0,1
EndSplineSet
Validated: 1
EndChar
StartChar: delta
Encoding: 948 948 951
Width: 1229
GlyphClass: 2
Flags: W
LayerCount: 2
Fore
SplineSet
1076 118 m 0,0,1
 934 -20 934 -20 669 -20 c 0,2,3
 419 -20 419 -20 275 106 c 0,4,5
 135 232 135 232 135 446 c 0,6,7
 135 655 135 655 274 789 c 0,8,9
 366 877 366 877 532 931 c 1,10,11
 303 1069 303 1069 303 1256 c 0,12,13
 303 1403 303 1403 408 1486 c 1,14,15
 518 1567 518 1567 708 1567 c 0,16,17
 939 1567 939 1567 1143 1454 c 2,18,-1
 1168 1440 l 1,19,-1
 1067 1240 l 1,20,-1
 1039 1258 l 1,21,22
 867 1359 867 1359 700 1359 c 0,23,24
 629 1359 629 1359 592 1330.5 c 128,-1,25
 555 1302 555 1302 555 1251 c 128,-1,26
 555 1200 555 1200 594 1156 c 0,27,28
 637 1112 637 1112 823 1019 c 0,29,30
 1214 815 1214 815 1214 501 c 0,31,32
 1214 256 1214 256 1076 118 c 0,0,1
501 730 m 0,33,34
 389 629 389 629 389 464 c 0,35,36
 389 341 389 341 464.5 266 c 128,-1,37
 540 191 540 191 669 191 c 0,38,39
 834 191 834 191 905 286 c 0,40,41
 965 365 965 365 965 511 c 0,42,43
 965 612 965 612 920 692 c 0,44,45
 866 786 866 786 747 852 c 1,46,47
 589 809 589 809 501 730 c 0,33,34
EndSplineSet
EndChar
StartChar: epsilon
Encoding: 949 949 952
Width: 600
GlyphClass: 2
Flags: W
LayerCount: 2
Fore
SplineSet
369 331 m 2,0,-1
 469 331 l 1,1,-1
 469 227 l 1,2,-1
 366 227 l 2,3,4
 249 228 249 228 222 188 c 0,5,6
 214 176 214 176 214 158 c 0,7,8
 214 142 214 142 222 130 c 0,9,10
 242 101 242 101 314 94 c 0,11,12
 333 93 333 93 355 92 c 0,13,14
 459 92 459 92 539 133 c 2,15,-1
 561 144 l 1,16,-1
 561 33 l 1,17,-1
 553 29 l 2,18,19
 484 -10 484 -10 349 -10 c 0,20,21
 226 -10 226 -10 163 32 c 0,22,23
 99 75 99 75 98 152 c 0,24,25
 98 207 98 207 138 245 c 0,26,27
 160 266 160 266 195 279 c 1,28,29
 168 292 168 292 150 310 c 0,30,31
 115 344 115 344 115 397 c 0,32,33
 115 467 115 467 176 507 c 0,34,35
 237 546 237 546 348 546 c 0,36,37
 470 546 470 546 554 507 c 2,38,-1
 567 501 l 1,39,-1
 525 403 l 1,40,-1
 511 409 l 1,41,42
 433 443 433 443 351 443 c 0,43,44
 259 443 259 443 238 412 c 0,45,46
 231 402 231 402 231 389 c 0,47,48
 231 367 231 367 250 353 c 0,49,50
 283 331 283 331 369 331 c 2,0,-1
EndSplineSet
EndChar
StartChar: zeta
Encoding: 950 950 953
Width: 1229
GlyphClass: 2
Flags: W
LayerCount: 2
Fore
SplineSet
329 952 m 1,0,1
 481 1142 481 1142 832 1350 c 1,2,3
 669 1343 669 1343 555 1343 c 2,4,-1
 223 1343 l 1,5,-1
 223 1556 l 1,6,-1
 1181 1556 l 1,7,-1
 1181 1370 l 1,8,9
 972 1218 972 1218 822 1098 c 1,10,11
 667 983 667 983 580 892 c 0,12,13
 410 713 410 713 410 479 c 0,14,15
 410 348 410 348 491 295 c 0,16,17
 578 238 578 238 827 202 c 0,18,19
 1017 173 1017 173 1098 121 c 0,20,21
 1143 93 1143 93 1165 48 c 128,-1,22
 1187 3 1187 3 1187 -56 c 0,23,24
 1187 -215 1187 -215 1060 -389 c 2,25,-1
 1051 -401 l 1,26,-1
 789 -401 l 1,27,-1
 829 -353 l 2,28,29
 957 -199 957 -199 957 -111 c 0,30,31
 957 -93 957 -93 951.5 -81.5 c 128,-1,32
 946 -70 946 -70 938 -62 c 0,33,34
 929 -54 929 -54 918 -48 c 0,35,36
 865 -18 865 -18 653 10 c 0,37,38
 386 45 386 45 274 159.5 c 128,-1,39
 162 274 162 274 162 478 c 0,40,41
 162 733 162 733 329 952 c 1,0,1
EndSplineSet
EndChar
StartChar: eta
Encoding: 951 951 954
Width: 600
GlyphClass: 2
Flags: W
LayerCount: 2
Fore
SplineSet
177 536 m 1,0,-1
 188 480 l 1,1,2
 250 545 250 545 366 546 c 0,3,4
 489 546 489 546 540 482 c 0,5,6
 581 432 581 432 581 343 c 2,7,-1
 581 -240 l 1,8,-1
 462 -240 l 1,9,-1
 462 335 l 2,10,11
 462 385 462 385 440 411 c 0,12,13
 427 427 427 427 404.5 435 c 128,-1,14
 382 443 382 443 347 443 c 128,-1,15
 312 443 312 443 283 433 c 0,16,17
 199 403 199 403 199 274 c 2,18,-1
 199 0 l 1,19,-1
 78 0 l 1,20,-1
 78 536 l 1,21,-1
 177 536 l 1,0,-1
EndSplineSet
Validated: 1
EndChar
StartChar: theta
Encoding: 952 952 955
Width: 600
GlyphClass: 2
Flags: W
LayerCount: 2
Fore
SplineSet
447 14 m 0,0,1
 396 -10 396 -10 328 -10 c 0,2,3
 268 -10 268 -10 222 10 c 0,4,5
 166 33 166 33 131 87 c 0,6,7
 71 180 71 180 72 354 c 0,8,9
 72 535 72 535 130 624 c 1,10,11
 190 720 190 720 328 720 c 0,12,13
 425 720 425 720 487 668 c 0,14,15
 509 648 509 648 526 620 c 0,16,17
 587 528 587 528 586 354 c 0,18,19
 587 83 587 83 447 14 c 0,0,1
357 614 m 0,20,21
 344 617 344 617 328 617 c 0,22,23
 280 617 280 617 250 589 c 0,24,25
 199 545 199 545 192 409 c 1,26,-1
 466 409 l 1,27,28
 461 512 461 512 428 562 c 1,29,30
 403 605 403 605 357 614 c 0,20,21
242 127 m 0,31,32
 264 102 264 102 299 96 c 0,33,34
 312 94 312 94 325 93.5 c 128,-1,35
 338 93 338 93 348 94 c 0,36,37
 384 98 384 98 407 120 c 0,38,39
 419 130 419 130 428 145 c 0,40,41
 461 196 461 196 466 312 c 1,42,-1
 192 312 l 1,43,44
 198 176 198 176 242 127 c 0,31,32
EndSplineSet
EndChar
StartChar: iota
Encoding: 953 953 956
Width: 1229
GlyphClass: 2
Flags: W
LayerCount: 2
Fore
SplineSet
428 1098 m 1,0,-1
 670 1098 l 1,1,-1
 670 344 l 2,2,3
 670 272 670 272 702 235 c 0,4,5
 740 189 740 189 833 189 c 0,6,7
 942 189 942 189 1040 209 c 2,8,-1
 1076 217 l 1,9,-1
 1076 21 l 1,10,-1
 1056 14 l 2,11,12
 958 -20 958 -20 821 -20 c 0,13,14
 650 -20 650 -20 552 50 c 0,15,16
 428 139 428 139 428 335 c 2,17,-1
 428 1098 l 1,0,-1
EndSplineSet
EndChar
StartChar: lambda
Encoding: 955 955 958
Width: 1229
GlyphClass: 2
Flags: W
LayerCount: 2
Fore
SplineSet
317 0 m 1,0,-1
 61 0 l 1,1,-1
 603 1062 l 1,2,-1
 549 1204 l 2,3,4
 532 1252 532 1252 513 1284 c 128,-1,5
 494 1316 494 1316 476 1330 c 0,6,7
 438 1359 438 1359 371 1359 c 0,8,9
 314 1359 314 1359 269 1348 c 2,10,-1
 232 1339 l 1,11,-1
 232 1545 l 1,12,-1
 254 1551 l 2,13,14
 325 1569 325 1569 396 1569 c 0,15,16
 563 1569 563 1569 649 1493 c 0,17,18
 732 1421 732 1421 811 1202 c 2,19,-1
 1158 274 l 2,20,21
 1188 189 1188 189 1231 189 c 0,22,23
 1255 189 1255 189 1282 198 c 2,24,-1
 1321 210 l 1,25,-1
 1321 18 l 1,26,-1
 1305 9 l 2,27,28
 1248 -20 1248 -20 1176 -20 c 0,29,30
 1082 -20 1082 -20 1026 28 c 0,31,32
 973 73 973 73 940 168 c 2,33,-1
 793 586 l 2,34,35
 745 726 745 726 716 826 c 1,36,37
 678 722 678 722 616 597 c 2,38,-1
 317 0 l 1,0,-1
EndSplineSet
EndChar
StartChar: uni03BC
Encoding: 956 956 959
Width: 1229
GlyphClass: 2
Flags: W
LayerCount: 2
Fore
SplineSet
987 0 m 1,0,-1
 967 111 l 1,1,2
 851 -20 851 -20 640 -20 c 0,3,4
 489 -20 489 -20 398 31 c 1,5,6
 402 -75 402 -75 402 -142 c 2,7,-1
 402 -492 l 1,8,-1
 160 -492 l 1,9,-1
 160 1098 l 1,10,-1
 402 1098 l 1,11,-1
 402 407 l 2,12,13
 402 308 402 308 448 255 c 0,14,15
 504 191 504 191 636 191 c 0,16,17
 799 191 799 191 872 268 c 0,18,19
 947 347 947 347 947 535 c 2,20,-1
 947 1098 l 1,21,-1
 1189 1098 l 1,22,-1
 1189 0 l 1,23,-1
 987 0 l 1,0,-1
EndSplineSet
EndChar
StartChar: nu
Encoding: 957 957 960
Width: 600
GlyphClass: 2
Flags: W
LayerCount: 2
Fore
SplineSet
257 0 m 1,0,-1
 30 536 l 1,1,-1
 153 536 l 1,2,-1
 277 241 l 2,3,4
 322 133 322 133 336 88 c 1,5,6
 405 159 405 159 441 246 c 0,7,8
 483 344 483 344 483 521 c 2,9,-1
 483 536 l 1,10,-1
 602 536 l 1,11,-1
 602 521 l 2,12,13
 602 350 602 350 551.5 234.5 c 128,-1,14
 501 119 501 119 380 5 c 1,15,-1
 375 0 l 1,16,-1
 257 0 l 1,0,-1
EndSplineSet
Validated: 1
EndChar
StartChar: xi
Encoding: 958 958 961
Width: 1229
GlyphClass: 2
Flags: W
LayerCount: 2
Fore
SplineSet
878 896 m 2,0,-1
 1105 896 l 1,1,-1
 1105 709 l 1,2,-1
 865 709 l 2,3,4
 643 709 643 709 529 638 c 0,5,6
 420 569 420 569 420 442 c 0,7,8
 420 364 420 364 457 321.5 c 128,-1,9
 494 279 494 279 566.5 254.5 c 128,-1,10
 639 230 639 230 833 201 c 0,11,12
 1017 171 1017 171 1098 121 c 0,13,14
 1187 65 1187 65 1187 -56 c 0,15,16
 1187 -215 1187 -215 1060 -389 c 2,17,-1
 1051 -401 l 1,18,-1
 789 -401 l 1,19,-1
 829 -353 l 2,20,21
 957 -199 957 -199 957 -109 c 0,22,23
 957 -72 957 -72 918 -49 c 0,24,25
 898 -37 898 -37 839 -22 c 128,-1,26
 780 -7 780 -7 664 8 c 0,27,28
 435 38 435 38 319 123 c 0,29,30
 172 233 172 233 172 428 c 0,31,32
 172 564 172 564 253 671 c 0,33,34
 316 755 316 755 415 799 c 1,35,36
 331 835 331 835 287 900 c 0,37,38
 240 969 240 969 240 1070 c 0,39,40
 240 1196 240 1196 324 1280 c 0,41,42
 359 1315 359 1315 414 1345 c 1,43,44
 364 1343 364 1343 325 1343 c 2,45,-1
 233 1343 l 1,46,-1
 233 1556 l 1,47,-1
 1117 1556 l 1,48,-1
 1117 1343 l 1,49,-1
 1018 1343 l 2,50,51
 791 1343 791 1343 632 1267 c 0,52,53
 524 1214 524 1214 495 1137 c 0,54,55
 484 1108 484 1108 484 1074 c 0,56,57
 484 1033 484 1033 501 1002 c 0,58,59
 522 965 522 965 570 942 c 0,60,61
 665 896 665 896 878 896 c 2,0,-1
EndSplineSet
EndChar
StartChar: pi
Encoding: 960 960 963
Width: 1229
GlyphClass: 2
Flags: W
LayerCount: 2
Fore
SplineSet
1261 207 m 2,0,-1
 1304 228 l 1,1,-1
 1304 17 l 1,2,-1
 1287 9 l 2,3,4
 1229 -20 1229 -20 1137 -20 c 0,5,6
 986 -20 986 -20 914 68 c 0,7,8
 858 136 858 136 858 254 c 2,9,-1
 865 884 l 1,10,-1
 495 884 l 1,11,-1
 478 0 l 1,12,-1
 236 0 l 1,13,-1
 236 884 l 1,14,-1
 14 884 l 1,15,-1
 14 1005 l 1,16,-1
 174 1098 l 1,17,-1
 1334 1098 l 1,18,-1
 1334 884 l 1,19,-1
 1124 884 l 1,20,-1
 1124 276 l 2,21,22
 1124 208 1124 208 1157 194 c 0,23,24
 1168 189 1168 189 1184 189 c 0,25,26
 1223 189 1223 189 1261 207 c 2,0,-1
EndSplineSet
EndChar
StartChar: rho
Encoding: 961 961 964
Width: 600
GlyphClass: 2
Flags: W
LayerCount: 2
Fore
SplineSet
195 -83 m 2,0,-1
 195 -240 l 1,1,-1
 77 -240 l 1,2,-1
 77 264 l 2,3,4
 77 393 77 393 142 469 c 0,5,6
 175 507 175 507 223 526 c 0,7,8
 274 546 274 546 337 546 c 0,9,10
 427 546 427 546 488 503 c 0,11,12
 507 488 507 488 523 470 c 0,13,14
 587 395 587 395 587 269 c 0,15,16
 587 139 587 139 524 65 c 0,17,18
 458 -10 458 -10 333 -10 c 0,19,20
 252 -10 252 -10 193 22 c 1,21,22
 195 -43 195 -43 195 -83 c 2,0,-1
389 102 m 0,23,24
 417 112 417 112 434 134 c 0,25,26
 467 178 467 178 466.5 268.5 c 128,-1,27
 466 359 466 359 433 402 c 0,28,29
 402 443 402 443 333 443 c 0,30,31
 299 443 299 443 273 433 c 0,32,33
 195 404 195 404 195 278 c 2,34,-1
 195 131 l 1,35,36
 250 93 250 93 333 93 c 0,37,38
 366 94 366 94 389 102 c 0,23,24
EndSplineSet
Validated: 33
EndChar
StartChar: sigma1
Encoding: 962 962 965
Width: 600
GlyphClass: 2
Flags: W
LayerCount: 2
Fore
SplineSet
510 -196 m 1,0,-1
 384 -196 l 1,1,-1
 403 -172 l 2,2,3
 466 -96 466 -96 466 -53 c 0,4,5
 466 -42 466 -42 460 -35 c 0,6,7
 453 -28 453 -28 440 -23 c 0,8,9
 405 -9 405 -9 318 4 c 0,10,11
 183 24 183 24 128 99 c 0,12,13
 84 159 84 159 84 253 c 0,14,15
 84 382 84 382 142 454 c 0,16,17
 216 546 216 546 397 546 c 0,18,19
 487 546 487 546 567 516 c 2,20,-1
 581 511 l 1,21,-1
 540 407 l 1,22,-1
 527 412 l 2,23,24
 451 439 451 439 391 438 c 0,25,26
 287 438 287 438 242 382 c 0,27,28
 205 336 205 336 205 250 c 0,29,30
 205 170 205 170 242 144 c 0,31,32
 261 131 261 131 296.5 119.5 c 128,-1,33
 332 108 332 108 379.5 100.5 c 128,-1,34
 427 93 427 93 461 84 c 0,35,36
 544 59 544 59 568 12 c 0,37,38
 578 -8 578 -8 579 -30 c 0,39,40
 579 -54 579 -54 571 -81 c 0,41,42
 557 -133 557 -133 515 -190 c 2,43,-1
 510 -196 l 1,0,-1
EndSplineSet
Validated: 33
EndChar
StartChar: sigma
Encoding: 963 963 966
Width: 1229
GlyphClass: 2
Flags: W
LayerCount: 2
Fore
SplineSet
774 1098 m 2,0,-1
 1294 1098 l 1,1,-1
 1294 884 l 1,2,-1
 1062 884 l 1,3,4
 1205 711 1205 711 1205 500 c 0,5,6
 1205 268 1205 268 1068 124 c 128,-1,7
 931 -20 931 -20 682 -20 c 0,8,9
 404 -20 404 -20 264 126 c 0,10,11
 129 270 129 270 129 523.5 c 128,-1,12
 129 777 129 777 245 919 c 0,13,14
 394 1098 394 1098 774 1098 c 2,0,-1
819 884 m 1,15,-1
 774 884 l 2,16,17
 556 884 556 884 468 804 c 0,18,19
 377 722 377 722 377 525 c 0,20,21
 378 364 378 364 461 275 c 0,22,23
 514 219 514 219 596 200 c 0,24,25
 638 191 638 191 689 191 c 0,26,27
 826 191 826 191 890 268 c 0,28,29
 957 349 957 349 957 499 c 0,30,31
 957 730 957 730 819 884 c 1,15,-1
EndSplineSet
EndChar
StartChar: tau
Encoding: 964 964 967
Width: 600
GlyphClass: 2
Flags: W
LayerCount: 2
Fore
SplineSet
128 536 m 1,0,-1
 586 536 l 1,1,-1
 586 432 l 1,2,-1
 342 432 l 1,3,-1
 342 150 l 2,4,5
 342 108 342 108 361 87 c 0,6,7
 384 60 384 60 440 60 c 0,8,9
 492 60 492 60 532 69 c 2,10,-1
 550 74 l 1,11,-1
 550 9 l 1,12,-1
 541 5 l 2,13,14
 497 -13 497 -13 423 -13 c 0,15,16
 330 -13 330 -13 278 21 c 0,17,18
 211 64 211 64 211 158 c 2,19,-1
 211 432 l 1,20,-1
 52 432 l 1,21,-1
 52 491 l 1,22,-1
 128 536 l 1,0,-1
EndSplineSet
EndChar
StartChar: upsilon
Encoding: 965 965 968
Width: 1229
GlyphClass: 2
Flags: W
LayerCount: 2
Fore
SplineSet
160 500 m 2,0,-1
 160 1098 l 1,1,-1
 402 1098 l 1,2,-1
 402 516 l 2,3,4
 402 299 402 299 520 227 c 0,5,6
 582 189 582 189 680 189 c 0,7,8
 811 189 811 189 878 259 c 1,9,10
 961 356 961 356 961 610 c 0,11,12
 961 829 961 829 899 1063 c 2,13,-1
 890 1098 l 1,14,-1
 1133 1098 l 1,15,-1
 1139 1075 l 2,16,17
 1203 840 1203 840 1203 596 c 0,18,19
 1203 285 1203 285 1082 134 c 0,20,21
 958 -20 958 -20 673 -20 c 0,22,23
 374 -20 374 -20 254 144 c 0,24,25
 160 273 160 273 160 500 c 2,0,-1
EndSplineSet
EndChar
StartChar: phi
Encoding: 966 966 969
Width: 1229
GlyphClass: 2
Flags: W
LayerCount: 2
Fore
SplineSet
781 -16 m 1,0,-1
 781 -492 l 1,1,-1
 543 -492 l 1,2,-1
 543 -16 l 1,3,4
 280 0 280 0 168 123 c 1,5,6
 74 269 74 269 74 517 c 0,7,8
 74 842 74 842 288 1095 c 1,9,-1
 306 1117 l 1,10,-1
 487 992 l 1,11,-1
 467 968 l 2,12,13
 365 843 365 843 329 745 c 0,14,15
 296 646 296 646 296 517 c 0,16,17
 296 199 296 199 519 141 c 0,18,19
 531 138 531 138 543 136 c 1,20,-1
 543 707 l 2,21,22
 543 948 543 948 664 1049 c 0,23,24
 747 1118 747 1118 883 1118 c 0,25,26
 970 1118 970 1118 1040 1086 c 0,27,28
 1121 1048 1121 1048 1177 963 c 0,29,30
 1275 816 1275 816 1275 569 c 0,31,32
 1275 309 1275 309 1143 154 c 0,33,34
 1017 6 1017 6 781 -16 c 1,0,-1
1047 535.5 m 128,-1,36
 1047 706 1047 706 1014 799 c 0,37,38
 989 867 989 867 947 892 c 0,39,40
 922 907 922 907 889.5 907 c 128,-1,41
 857 907 857 907 838 893 c 0,42,43
 781 852 781 852 781 709 c 2,44,-1
 781 135 l 1,45,46
 921 158 921 158 987 265 c 0,47,35
 1047 365 1047 365 1047 535.5 c 128,-1,36
EndSplineSet
EndChar
StartChar: chi
Encoding: 967 967 970
Width: 600
GlyphClass: 2
Flags: W
LayerCount: 2
Fore
SplineSet
134 429 m 0,0,1
 125 435 125 435 116 436 c 0,2,3
 104 436 104 436 89 431 c 2,4,-1
 71 426 l 1,5,-1
 71 526 l 1,6,-1
 81 529 l 2,7,8
 109 538 109 538 149 538 c 0,9,10
 198 538 198 538 232 507 c 0,11,12
 263 478 263 478 294 408 c 2,13,-1
 354 268 l 1,14,-1
 509 536 l 1,15,-1
 629 536 l 1,16,-1
 408 161 l 1,17,-1
 504 -48 l 2,18,19
 527 -101 527 -101 544 -121 c 0,20,21
 559 -138 559 -138 584 -138 c 0,22,23
 604 -138 604 -138 620 -134 c 2,24,-1
 638 -130 l 1,25,-1
 638 -228 l 1,26,-1
 627 -230 l 2,27,28
 593 -240 593 -240 566 -240 c 0,29,30
 511 -240 511 -240 471 -216 c 0,31,32
 431 -192 431 -192 392 -101 c 2,33,-1
 327 54 l 1,34,-1
 151 -240 l 1,35,-1
 21 -240 l 1,36,-1
 272 163 l 1,37,-1
 180 366 l 2,38,39
 157 414 157 414 134 429 c 0,0,1
EndSplineSet
EndChar
StartChar: psi
Encoding: 968 968 971
Width: 1229
GlyphClass: 2
Flags: W
LayerCount: 2
Fore
SplineSet
545 135 m 1,0,-1
 545 1554 l 1,1,-1
 785 1554 l 1,2,-1
 785 137 l 1,3,4
 924 160 924 160 987 266 c 0,5,6
 1043 365 1043 365 1043 539 c 0,7,8
 1043 786 1043 786 981 1061 c 1,9,-1
 972 1098 l 1,10,-1
 1206 1098 l 1,11,-1
 1211 1075 l 1,12,13
 1275 810 1275 810 1275 573 c 0,14,15
 1275 325 1275 325 1177 181 c 0,16,17
 1058 6 1058 6 785 -16 c 1,18,-1
 785 -492 l 1,19,-1
 545 -492 l 1,20,-1
 545 -16 l 1,21,22
 299 -1 299 -1 192 129 c 0,23,24
 80 265 80 265 80 554 c 2,25,-1
 80 1098 l 1,26,-1
 312 1098 l 1,27,-1
 312 539 l 2,28,29
 312 239 312 239 465 160 c 0,30,31
 501 141 501 141 545 135 c 1,0,-1
EndSplineSet
EndChar
StartChar: omega
Encoding: 969 969 972
Width: 600
GlyphClass: 2
Flags: W
LayerCount: 2
Fore
SplineSet
96 527 m 2,0,-1
 100 536 l 1,1,-1
 212 536 l 1,2,-1
 204 517 l 2,3,4
 154 400 154 400 154 263 c 0,5,6
 154 145 154 145 182 108 c 0,7,8
 188 100 188 100 194 96.5 c 128,-1,9
 200 93 200 93 208 93 c 0,10,11
 222 93 222 93 232.5 100 c 128,-1,12
 243 107 243 107 250 120 c 0,13,14
 269 151 269 151 270 209 c 2,15,-1
 270 374 l 1,16,-1
 391 374 l 1,17,-1
 391 209 l 2,18,19
 391 149 391 149 410 120 c 0,20,21
 418 107 418 107 428.5 100 c 128,-1,22
 439 93 439 93 452 93 c 0,23,24
 460 93 460 93 466 96.5 c 128,-1,25
 472 100 472 100 478 108 c 0,26,27
 490 124 490 124 497 155 c 0,28,29
 506 197 506 197 505 263 c 0,30,31
 505 401 505 401 455 517 c 1,32,-1
 447 536 l 1,33,-1
 560 536 l 1,34,-1
 563 527 l 2,35,36
 615 405 615 405 616 260 c 0,37,38
 616 93 616 93 556 30 c 0,39,40
 518 -10 518 -10 460 -10 c 0,41,42
 390 -10 390 -10 351 30 c 0,43,44
 339 42 339 42 330 58 c 1,45,46
 312 27 312 27 282 10 c 0,47,48
 247 -10 247 -10 200 -10 c 0,49,50
 171 -10 171 -10 146 1 c 0,51,52
 84 26 84 26 60 115 c 0,53,54
 44 173 44 173 44 260 c 0,55,56
 44 402 44 402 96 527 c 2,0,-1
EndSplineSet
Validated: 33
EndChar
StartChar: uni03D1
Encoding: 977 977 980
Width: 600
GlyphClass: 2
Flags: W
LayerCount: 2
Fore
SplineSet
359 658 m 0,0,1
 339 670 339 670 319 670 c 0,2,3
 286 670 286 670 268 653 c 256,4,5
 250 636 250 636 250 606 c 0,6,7
 250 582 250 582 260.5 559.5 c 128,-1,8
 271 537 271 537 295 520 c 0,9,10
 320 501 320 501 363 489 c 0,11,12
 399 479 399 479 451 478 c 1,13,14
 441 541 441 541 417 588 c 0,15,16
 409 605 409 605 399 618 c 0,17,18
 380 644 380 644 359 658 c 0,0,1
648 394 m 1,19,-1
 583 394 l 1,20,21
 584 377 584 377 583.5 353.5 c 128,-1,22
 583 330 583 330 582 306 c 0,23,24
 579 257 579 257 567 213 c 0,25,26
 551 147 551 147 518 97 c 1,27,28
 482 48 482 48 427 19 c 0,29,30
 372 -10 372 -10 298 -10 c 0,31,32
 236 -10 236 -10 196 4 c 0,33,34
 154 18 154 18 128 43 c 0,35,36
 105 68 105 68 96 101 c 0,37,38
 87 132 87 132 87 166 c 0,39,40
 87 185 87 185 89 208 c 0,41,42
 93 246 93 246 97 270 c 128,-1,43
 101 294 101 294 101 300 c 0,44,45
 102 309 102 309 102 317.5 c 128,-1,46
 102 326 102 326 101 330 c 128,-1,47
 100 334 100 334 99 335 c 0,48,49
 96 338 96 338 86.5 338 c 128,-1,50
 77 338 77 338 65.5 335 c 128,-1,51
 54 332 54 332 48 329 c 2,52,-1
 32 318 l 1,53,-1
 5 411 l 1,54,55
 22 419 22 419 27 420.5 c 128,-1,56
 32 422 32 422 38 424 c 0,57,58
 79 438 79 438 116 438 c 0,59,60
 145 438 145 438 166 431 c 0,61,62
 187 423 187 423 201 409 c 128,-1,63
 215 395 215 395 221 375 c 0,64,65
 226 357 226 357 226.5 338.5 c 128,-1,66
 227 320 227 320 224 299 c 0,67,68
 215 234 215 234 213 218 c 0,69,70
 210 191 210 191 210 172 c 0,71,72
 210 132 210 132 230 113 c 0,73,74
 240 103 240 103 257.5 96.5 c 128,-1,75
 275 90 275 90 302 90 c 0,76,77
 337 90 337 90 363 103 c 0,78,79
 396 118 396 118 418 153 c 0,80,81
 460 220 460 220 459 355 c 0,82,83
 459 373 459 373 458 390 c 1,84,85
 374 392 374 392 313 409 c 0,86,87
 247 427 247 427 204.5 456 c 128,-1,88
 162 485 162 485 143 523 c 0,89,90
 124 564 124 564 124 606 c 0,91,92
 124 641 124 641 135 671.5 c 128,-1,93
 146 702 146 702 170 724.5 c 128,-1,94
 194 747 194 747 230.5 759 c 128,-1,95
 267 771 267 771 317 771 c 0,96,97
 420 771 420 771 486 702 c 0,98,99
 555 631 555 631 577 486 c 1,100,-1
 648 486 l 1,101,-1
 648 394 l 1,19,-1
EndSplineSet
EndChar
StartChar: uni03D2
Encoding: 978 978 981
Width: 600
GlyphClass: 2
Flags: W
LayerCount: 2
Fore
SplineSet
292 273 m 1,0,-1
 15 714 l 1,1,-1
 147 714 l 1,2,-1
 335 379 l 1,3,4
 355 428 355 428 397 506 c 0,5,6
 418 546 418 546 432 571 c 0,7,8
 456 613 456 613 468.5 634 c 128,-1,9
 481 655 481 655 494 671 c 0,10,11
 528 713 528 713 577 719 c 0,12,13
 587 720 587 720 595.5 720 c 128,-1,14
 604 720 604 720 609 720 c 0,15,16
 632 719 632 719 650 710 c 2,17,-1
 658 707 l 1,18,-1
 658 608 l 1,19,20
 637 613 637 613 633.5 613.5 c 128,-1,21
 630 614 630 614 627 615 c 0,22,23
 621 616 621 616 616 616 c 0,24,25
 607 616 607 616 595 607 c 128,-1,26
 583 598 583 598 567 573 c 2,27,-1
 550 544 l 2,28,29
 529 510 529 510 491 444 c 0,30,31
 456 383 456 383 439 320 c 1,32,33
 423 291 423 291 413 264 c 1,34,-1
 413 0 l 1,35,-1
 292 0 l 1,36,-1
 292 273 l 1,0,-1
EndSplineSet
EndChar
StartChar: uni03D6
Encoding: 982 982 985
Width: 600
GlyphClass: 2
Flags: W
LayerCount: 2
Fore
SplineSet
294 15 m 0,0,1
 260 -9 260 -9 206 -10 c 0,2,3
 160 -10 160 -10 126 9 c 0,4,5
 68 43 68 43 52 134 c 0,6,7
 44 176 44 176 44 229 c 0,8,9
 44 291 44 291 55 341 c 0,10,11
 60 367 60 367 67.5 389.5 c 128,-1,12
 75 412 75 412 83 432 c 1,13,-1
 9 432 l 1,14,-1
 9 491 l 1,15,-1
 85 536 l 1,16,-1
 646 536 l 1,17,-1
 646 432 l 1,18,-1
 577 432 l 1,19,20
 584 412 584 412 592 389 c 0,21,22
 609 338 609 338 613 288 c 0,23,24
 615 261 615 261 616 229 c 0,25,26
 616 176 616 176 608 133 c 0,27,28
 591 42 591 42 533 9 c 0,29,30
 501 -10 501 -10 455 -10 c 0,31,32
 400 -10 400 -10 366 15 c 0,33,34
 344 31 344 31 330 58 c 1,35,36
 316 31 316 31 294 15 c 0,0,1
470 99 m 0,37,38
 475 102 475 102 479 107 c 0,39,40
 494 125 494 125 500 165 c 0,41,42
 504 192 504 192 504 226 c 0,43,44
 504 288 504 288 493 334 c 0,45,46
 483 376 483 376 460 432 c 1,47,-1
 200 432 l 1,48,49
 177 378 177 378 167 334 c 0,50,51
 162 310 162 310 160 291 c 0,52,53
 157 260 157 260 156 226 c 0,54,55
 156 153 156 153 173 121 c 0,56,57
 180 106 180 106 190 99 c 0,58,59
 200 93 200 93 214 93 c 0,60,61
 241 93 241 93 256 123 c 0,62,63
 273 155 273 155 273 209 c 2,64,-1
 273 323 l 1,65,-1
 387 323 l 1,66,-1
 387 209 l 2,67,68
 387 149 387 149 406 120 c 0,69,70
 414 107 414 107 423.5 100 c 128,-1,71
 433 93 433 93 446.5 93 c 128,-1,72
 460 93 460 93 470 99 c 0,37,38
EndSplineSet
EndChar
StartChar: afii10051
Encoding: 1026 1026 1029
Width: 1229
GlyphClass: 2
Flags: W
LayerCount: 2
Fore
SplineSet
758 7 m 2,0,-1
 738 15 l 1,1,-1
 738 235 l 1,2,-1
 783 223 l 2,3,4
 856 203 856 203 927 203 c 0,5,6
 997 203 997 203 1037 231 c 0,7,8
 1099 273 1099 273 1099 388 c 2,9,-1
 1099 513 l 2,10,11
 1099 600 1099 600 1055 647 c 0,12,13
 1001 703 1001 703 873 703 c 2,14,-1
 628 703 l 1,15,-1
 628 0 l 1,16,-1
 382 0 l 1,17,-1
 326 1238 l 1,18,-1
 23 1238 l 1,19,-1
 23 1462 l 1,20,-1
 979 1462 l 1,21,-1
 979 1238 l 1,22,-1
 593 1238 l 1,23,-1
 593 927 l 1,24,-1
 847 927 l 2,25,26
 1061 927 1061 927 1173 825 c 1,27,28
 1345 723 1345 723 1345 538 c 2,29,-1
 1345 406 l 2,30,31
 1345 205 1345 205 1242 92.5 c 128,-1,32
 1139 -20 1139 -20 934 -20 c 0,33,34
 826 -20 826 -20 758 7 c 2,0,-1
EndSplineSet
EndChar
StartChar: afii10053
Encoding: 1028 1028 1031
Width: 600
GlyphClass: 2
Flags: W
LayerCount: 2
Fore
SplineSet
242 170 m 0,0,1
 301 99 301 99 425 99 c 0,2,3
 492 99 492 99 589 127 c 2,4,-1
 607 132 l 1,5,-1
 607 24 l 1,6,-1
 598 20 l 2,7,8
 524 -10 524 -10 408 -10 c 0,9,10
 235 -10 235 -10 146 87 c 1,11,12
 63 183 63 183 63 358 c 0,13,14
 63 526 63 526 154 625 c 1,15,16
 252 724 252 724 425 724 c 0,17,18
 544 724 544 724 627 681 c 2,19,-1
 640 674 l 1,20,-1
 588 572 l 1,21,-1
 575 578 l 2,22,23
 502 615 502 615 425 615 c 0,24,25
 331 614 331 614 269 562 c 0,26,27
 211 513 211 513 195 428 c 1,28,-1
 528 428 l 1,29,-1
 528 319 l 1,30,-1
 190 319 l 1,31,32
 198 224 198 224 242 170 c 0,0,1
EndSplineSet
Validated: 1
EndChar
StartChar: afii10058
Encoding: 1033 1033 1036
Width: 1229
GlyphClass: 2
Flags: W
LayerCount: 2
Fore
SplineSet
617 0 m 1,0,-1
 557 1238 l 1,1,-1
 434 1238 l 1,2,-1
 415 743 l 1,3,4
 428 301 428 301 375 150 c 0,5,6
 360 110 360 110 342 88 c 0,7,8
 295 29 295 29 229 2 c 0,9,10
 183 -20 183 -20 123.5 -20 c 128,-1,11
 64 -20 64 -20 18 1 c 2,12,-1
 0 9 l 1,13,-1
 0 219 l 1,14,-1
 42 200 l 2,15,16
 68 189 68 189 98 189 c 0,17,18
 118 189 118 189 136 211 c 0,19,20
 144 222 144 222 153 247.5 c 128,-1,21
 162 273 162 273 169 319 c 0,22,23
 181 406 181 406 201.5 818 c 128,-1,24
 222 1230 222 1230 225 1462 c 1,25,-1
 783 1462 l 1,26,-1
 783 876 l 1,27,-1
 794 876 l 2,28,29
 1055 876 1055 876 1178 790 c 1,30,31
 1388 682 1388 682 1388 443 c 0,32,33
 1388 229 1388 229 1265 114.5 c 128,-1,34
 1142 0 1142 0 854 0 c 2,35,-1
 617 0 l 1,0,-1
843 682 m 1,36,-1
 843 220 l 1,37,-1
 859 220 l 2,38,39
 1029 220 1029 220 1101 291 c 0,40,41
 1156 349 1156 349 1156 458 c 0,42,43
 1156 578 1156 578 1086 629 c 0,44,45
 1050 654 1050 654 988.5 667.5 c 128,-1,46
 927 681 927 681 843 682 c 1,36,-1
EndSplineSet
EndChar
StartChar: afii10059
Encoding: 1034 1034 1037
Width: 1229
GlyphClass: 2
Flags: W
LayerCount: 2
Fore
SplineSet
835 1462 m 1,0,-1
 835 876 l 1,1,-1
 844 876 l 2,2,3
 1075 876 1075 876 1197.5 764 c 128,-1,4
 1320 652 1320 652 1320 443 c 0,5,6
 1320 229 1320 229 1197 114.5 c 128,-1,7
 1074 0 1074 0 846 0 c 2,8,-1
 609 0 l 1,9,-1
 609 652 l 1,10,-1
 291 652 l 1,11,-1
 291 0 l 1,12,-1
 66 0 l 1,13,-1
 66 1462 l 1,14,-1
 291 1462 l 1,15,-1
 291 876 l 1,16,-1
 609 876 l 1,17,-1
 609 1462 l 1,18,-1
 835 1462 l 1,0,-1
835 682 m 1,19,-1
 835 220 l 1,20,-1
 850 220 l 2,21,22
 984 220 984 220 1042 291 c 0,23,24
 1088 349 1088 349 1088 458 c 0,25,26
 1088 578 1088 578 1029 629 c 0,27,28
 1001 654 1001 654 952.5 667.5 c 128,-1,29
 904 681 904 681 835 682 c 1,19,-1
EndSplineSet
EndChar
StartChar: afii10060
Encoding: 1035 1035 1038
Width: 1229
GlyphClass: 2
Flags: W
LayerCount: 2
Fore
SplineSet
976 1238 m 1,0,-1
 568 1238 l 1,1,-1
 568 927 l 1,2,-1
 836 927 l 2,3,4
 1061 927 1061 927 1173 825.5 c 128,-1,5
 1285 724 1285 724 1285 539 c 2,6,-1
 1285 0 l 1,7,-1
 1039 0 l 1,8,-1
 1039 510 l 2,9,10
 1039 599 1039 599 995 646 c 0,11,12
 941 703 941 703 813 703 c 2,13,-1
 568 703 l 1,14,-1
 568 0 l 1,15,-1
 322 0 l 1,16,-1
 322 1238 l 1,17,-1
 23 1238 l 1,18,-1
 23 1462 l 1,19,-1
 976 1462 l 1,20,-1
 976 1238 l 1,0,-1
EndSplineSet
EndChar
StartChar: afii10145
Encoding: 1039 1039 1042
Width: 1229
GlyphClass: 2
Flags: W
LayerCount: 2
Fore
SplineSet
382 226 m 1,0,-1
 967 226 l 1,1,-1
 967 1462 l 1,2,-1
 1214 1462 l 1,3,-1
 1214 0 l 1,4,-1
 803 0 l 1,5,-1
 803 -385 l 1,6,-1
 540 -385 l 1,7,-1
 540 0 l 1,8,-1
 135 0 l 1,9,-1
 135 1462 l 1,10,-1
 382 1462 l 1,11,-1
 382 226 l 1,0,-1
EndSplineSet
EndChar
StartChar: afii10018
Encoding: 1041 1041 1044
Width: 1229
GlyphClass: 2
Flags: W
LayerCount: 2
Fore
SplineSet
680 0 m 2,0,-1
 135 0 l 1,1,-1
 135 1462 l 1,2,-1
 1167 1462 l 1,3,-1
 1167 1238 l 1,4,-1
 382 1238 l 1,5,-1
 382 876 l 1,6,-1
 650 876 l 2,7,8
 1022 876 1022 876 1161 721 c 0,9,10
 1255 616 1255 616 1255 443 c 0,11,12
 1255 228 1255 228 1113 113 c 0,13,14
 969 0 969 0 680 0 c 2,0,-1
626 652 m 2,15,-1
 382 652 l 1,16,-1
 382 220 l 1,17,-1
 661 220 l 2,18,19
 817 220 817 220 901 265 c 0,20,21
 1001 319 1001 319 1001 443 c 0,22,23
 1001 499 1001 499 981 538 c 128,-1,24
 961 577 961 577 921 601 c 0,25,26
 835 652 835 652 626 652 c 2,15,-1
EndSplineSet
EndChar
StartChar: afii10021
Encoding: 1044 1044 1047
Width: 1229
GlyphClass: 2
Flags: W
LayerCount: 2
Fore
SplineSet
1341 226 m 1,0,-1
 1341 -385 l 1,1,-1
 1104 -385 l 1,2,-1
 1104 0 l 1,3,-1
 242 0 l 1,4,-1
 242 -385 l 1,5,-1
 6 -385 l 1,6,-1
 6 226 l 1,7,-1
 131 226 l 1,8,9
 253 444 253 444 344 776 c 128,-1,10
 435 1108 435 1108 448 1433 c 2,11,-1
 449 1462 l 1,12,-1
 1146 1462 l 1,13,-1
 1146 226 l 1,14,-1
 1341 226 l 1,0,-1
885 226 m 1,15,-1
 885 1236 l 1,16,-1
 687 1236 l 1,17,18
 666 993 666 993 584.5 702.5 c 128,-1,19
 503 412 503 412 400 226 c 1,20,-1
 885 226 l 1,15,-1
EndSplineSet
EndChar
StartChar: afii10024
Encoding: 1046 1046 1049
Width: 600
GlyphClass: 2
Flags: W
LayerCount: 2
Fore
SplineSet
122 0 m 1,0,-1
 0 0 l 1,1,-1
 202 368 l 1,2,-1
 5 714 l 1,3,-1
 125 714 l 1,4,-1
 301 417 l 1,5,-1
 301 714 l 1,6,-1
 406 714 l 1,7,-1
 406 417 l 1,8,-1
 579 714 l 1,9,-1
 699 714 l 1,10,-1
 505 368 l 1,11,-1
 706 0 l 1,12,-1
 583 0 l 1,13,-1
 406 311 l 1,14,-1
 406 0 l 1,15,-1
 301 0 l 1,16,-1
 301 312 l 1,17,-1
 122 0 l 1,0,-1
EndSplineSet
Validated: 1
EndChar
StartChar: afii10025
Encoding: 1047 1047 1050
Width: 1229
GlyphClass: 2
Flags: W
LayerCount: 2
Fore
SplineSet
1092 674 m 0,0,1
 1197 578 1197 578 1197 428 c 0,2,3
 1197 325 1197 325 1158.5 242 c 128,-1,4
 1120 159 1120 159 1044 99 c 0,5,6
 887 -20 887 -20 583 -20 c 0,7,8
 312 -20 312 -20 160 63 c 2,9,-1
 145 71 l 1,10,-1
 145 308 l 1,11,-1
 188 286 l 2,12,13
 366 193 366 193 578 193 c 0,14,15
 745 193 745 193 835 241 c 0,16,17
 942 298 942 298 942 430 c 0,18,19
 942 485 942 485 918 525 c 0,20,21
 845 650 845 650 535 650 c 2,22,-1
 299 650 l 1,23,-1
 299 861 l 1,24,-1
 519 861 l 2,25,26
 709 861 709 861 813 925 c 0,27,28
 911 985 911 985 911 1087 c 0,29,30
 911 1171 911 1171 843.5 1220 c 128,-1,31
 776 1269 776 1269 656 1269 c 0,32,33
 459 1269 459 1269 291 1154 c 1,34,-1
 267 1136 l 1,35,-1
 139 1309 l 1,36,-1
 162 1327 l 2,37,38
 364 1483 364 1483 665 1483 c 0,39,40
 911 1483 911 1483 1043 1380 c 0,41,42
 1170 1277 1170 1277 1170 1105 c 0,43,44
 1170 962 1170 962 1072 864 c 0,45,46
 1010 802 1010 802 912 768 c 1,47,48
 1023 737 1023 737 1092 674 c 0,0,1
EndSplineSet
EndChar
StartChar: afii10026
Encoding: 1048 1048 1051
Width: 600
GlyphClass: 2
Flags: W
LayerCount: 2
Fore
SplineSet
67 0 m 1,0,-1
 67 714 l 1,1,-1
 181 714 l 1,2,-1
 181 309 l 2,3,4
 181 239 181 239 178 184 c 2,5,-1
 177 176 l 1,6,-1
 465 714 l 1,7,-1
 593 714 l 1,8,-1
 593 0 l 1,9,-1
 479 0 l 1,10,-1
 479 402 l 2,11,12
 479 453 479 453 484 541 c 1,13,-1
 197 0 l 1,14,-1
 67 0 l 1,0,-1
EndSplineSet
EndChar
StartChar: afii10028
Encoding: 1050 1050 1053
Width: 1229
GlyphClass: 2
Flags: W
LayerCount: 2
Fore
SplineSet
1350 0 m 1,0,-1
 1054 0 l 1,1,-1
 457 684 l 1,2,-1
 457 0 l 1,3,-1
 211 0 l 1,4,-1
 211 1462 l 1,5,-1
 457 1462 l 1,6,-1
 457 810 l 1,7,-1
 1039 1462 l 1,8,-1
 1322 1462 l 1,9,-1
 697 759 l 1,10,-1
 1350 0 l 1,0,-1
EndSplineSet
EndChar
StartChar: afii10029
Encoding: 1051 1051 1054
Width: 1229
GlyphClass: 2
Flags: W
LayerCount: 2
Fore
SplineSet
1214 1462 m 1,0,-1
 1214 0 l 1,1,-1
 967 0 l 1,2,-1
 967 1238 l 1,3,-1
 705 1238 l 1,4,5
 597 461 597 461 512 227 c 0,6,7
 496 184 496 184 480 157 c 0,8,9
 434 78 434 78 367 33 c 0,10,11
 281 -23 281 -23 171 -23 c 0,12,13
 94 -23 94 -23 23 4 c 2,14,-1
 4 11 l 1,15,-1
 4 228 l 1,16,-1
 46 209 l 2,17,18
 97 187 97 187 147 187 c 0,19,20
 227 187 227 187 278 339 c 0,21,22
 337 509 337 509 478 1462 c 1,23,-1
 1214 1462 l 1,0,-1
EndSplineSet
EndChar
StartChar: afii10037
Encoding: 1059 1059 1062
Width: 1229
GlyphClass: 2
Flags: W
LayerCount: 2
Fore
SplineSet
570 31 m 0,0,1
 466 -20 466 -20 322 -20 c 0,2,3
 210 -20 210 -20 131 12 c 2,4,-1
 112 20 l 1,5,-1
 112 275 l 1,6,-1
 156 252 l 2,7,8
 234 210 234 210 322 210 c 0,9,10
 429 210 429 210 485.5 252.5 c 128,-1,11
 542 295 542 295 594 396 c 1,12,-1
 27 1462 l 1,13,-1
 298 1462 l 1,14,15
 728 623 728 623 732 614 c 1,16,-1
 746 651 l 1,17,-1
 1092 1462 l 1,18,-1
 1353 1462 l 1,19,-1
 893 432 l 1,20,21
 800 234 800 234 726 150 c 0,22,23
 661 75 661 75 570 31 c 0,0,1
EndSplineSet
EndChar
StartChar: afii10040
Encoding: 1062 1062 1065
Width: 1229
GlyphClass: 2
Flags: W
LayerCount: 2
Fore
SplineSet
382 226 m 1,0,-1
 908 226 l 1,1,-1
 908 1462 l 1,2,-1
 1154 1462 l 1,3,-1
 1154 226 l 1,4,-1
 1330 226 l 1,5,-1
 1330 -385 l 1,6,-1
 1094 -385 l 1,7,-1
 1094 0 l 1,8,-1
 135 0 l 1,9,-1
 135 1462 l 1,10,-1
 382 1462 l 1,11,-1
 382 226 l 1,0,-1
EndSplineSet
EndChar
StartChar: afii10041
Encoding: 1063 1063 1066
Width: 1229
GlyphClass: 2
Flags: W
LayerCount: 2
Fore
SplineSet
1214 1462 m 1,0,-1
 1214 0 l 1,1,-1
 967 0 l 1,2,-1
 967 554 l 1,3,4
 737 478 737 478 563 478 c 0,5,6
 365 478 365 478 264 555 c 0,7,8
 135 653 135 653 135 867 c 2,9,-1
 135 1462 l 1,10,-1
 382 1462 l 1,11,-1
 382 895 l 2,12,13
 382 782 382 782 429.5 742 c 128,-1,14
 477 702 477 702 586 702 c 0,15,16
 743 702 743 702 967 770 c 1,17,-1
 967 1462 l 1,18,-1
 1214 1462 l 1,0,-1
EndSplineSet
EndChar
StartChar: afii10042
Encoding: 1064 1064 1067
Width: 1229
GlyphClass: 2
Flags: W
LayerCount: 2
Fore
SplineSet
1290 1462 m 1,0,-1
 1290 0 l 1,1,-1
 121 0 l 1,2,-1
 121 1462 l 1,3,-1
 347 1462 l 1,4,-1
 347 226 l 1,5,-1
 592 226 l 1,6,-1
 592 1462 l 1,7,-1
 818 1462 l 1,8,-1
 818 226 l 1,9,-1
 1064 226 l 1,10,-1
 1064 1462 l 1,11,-1
 1290 1462 l 1,0,-1
EndSplineSet
EndChar
StartChar: afii10043
Encoding: 1065 1065 1068
Width: 1229
GlyphClass: 2
Flags: W
LayerCount: 2
Fore
SplineSet
759 226 m 1,0,-1
 1005 226 l 1,1,-1
 1005 1462 l 1,2,-1
 1231 1462 l 1,3,-1
 1231 226 l 1,4,-1
 1409 226 l 1,5,-1
 1409 -385 l 1,6,-1
 1173 -385 l 1,7,-1
 1173 0 l 1,8,-1
 61 0 l 1,9,-1
 61 1462 l 1,10,-1
 287 1462 l 1,11,-1
 287 226 l 1,12,-1
 533 226 l 1,13,-1
 533 1462 l 1,14,-1
 759 1462 l 1,15,-1
 759 226 l 1,0,-1
EndSplineSet
EndChar
StartChar: afii10044
Encoding: 1066 1066 1069
Width: 1229
GlyphClass: 2
Flags: W
LayerCount: 2
Fore
SplineSet
572 1462 m 1,0,-1
 572 876 l 1,1,-1
 616 876 l 2,2,3
 940 876 940 876 1103 765 c 1,4,5
 1242 708 1242 708 1281.5 626.5 c 128,-1,6
 1321 545 1321 545 1321 443 c 0,7,8
 1321 234 1321 234 1171 116 c 1,9,10
 1015 0 1015 0 696 0 c 2,11,-1
 386 0 l 1,12,-1
 326 1238 l 1,13,-1
 27 1238 l 1,14,-1
 27 1462 l 1,15,-1
 572 1462 l 1,0,-1
670 652 m 2,16,-1
 632 652 l 1,17,-1
 632 220 l 1,18,-1
 701 220 l 2,19,20
 869 220 869 220 959 265 c 0,21,22
 1067 319 1067 319 1067 443 c 0,23,24
 1067 552 1067 552 980 600 c 0,25,26
 888 652 888 652 670 652 c 2,16,-1
EndSplineSet
EndChar
StartChar: afii10045
Encoding: 1067 1067 1070
Width: 1229
GlyphClass: 2
Flags: W
LayerCount: 2
Fore
SplineSet
370 0 m 2,0,-1
 96 0 l 1,1,-1
 96 1462 l 1,2,-1
 322 1462 l 1,3,-1
 322 876 l 1,4,-1
 341 876 l 2,5,6
 742 876 742 876 886 693 c 0,7,8
 965 593 965 593 965 443 c 0,9,10
 965 228 965 228 809 113 c 0,11,12
 656 0 656 0 370 0 c 2,0,-1
341 652 m 2,13,-1
 322 652 l 1,14,-1
 322 220 l 1,15,-1
 374 220 l 2,16,17
 529 220 529 220 612 265 c 0,18,19
 711 319 711 319 711 443 c 0,20,21
 711 499 711 499 691 538 c 128,-1,22
 671 577 671 577 632 601 c 0,23,24
 547 652 547 652 341 652 c 2,13,-1
1253 0 m 1,25,-1
 1027 0 l 1,26,-1
 1027 1462 l 1,27,-1
 1253 1462 l 1,28,-1
 1253 0 l 1,25,-1
EndSplineSet
EndChar
StartChar: afii10046
Encoding: 1068 1068 1071
Width: 600
GlyphClass: 2
Flags: W
LayerCount: 2
Fore
SplineSet
309 0 m 2,0,-1
 86 0 l 1,1,-1
 86 714 l 1,2,-1
 206 714 l 1,3,-1
 206 428 l 1,4,-1
 294 428 l 2,5,6
 431 428 431 428 504 387 c 0,7,8
 553 358 553 358 576 307 c 0,9,10
 593 268 593 268 593 216 c 0,11,12
 593 111 593 111 523 55 c 0,13,14
 453 0 453 0 309 0 c 2,0,-1
283 318 m 2,15,-1
 206 318 l 1,16,-1
 206 107 l 1,17,-1
 300 107 l 2,18,19
 378 107 378 107 419 129 c 0,20,21
 468 155 468 155 469 216 c 0,22,23
 469 243 469 243 459 262.5 c 128,-1,24
 449 282 449 282 429 293 c 0,25,26
 387 318 387 318 283 318 c 2,15,-1
EndSplineSet
EndChar
StartChar: afii10047
Encoding: 1069 1069 1072
Width: 1229
GlyphClass: 2
Flags: W
LayerCount: 2
Fore
SplineSet
94 1393 m 1,0,1
 261 1483 261 1483 508 1483 c 0,2,3
 857 1483 857 1483 1050 1339 c 1,4,5
 1230 1136 1230 1136 1230 788 c 0,6,7
 1230 404 1230 404 1052 193 c 0,8,9
 960 87 960 87 819 33.5 c 128,-1,10
 678 -20 678 -20 498 -20 c 0,11,12
 264 -20 264 -20 113 41 c 2,13,-1
 94 49 l 1,14,-1
 94 271 l 1,15,-1
 132 260 l 2,16,17
 326 203 326 203 465 203 c 0,18,19
 737 203 737 203 861 348 c 0,20,21
 955 458 955 458 968 654 c 1,22,-1
 282 654 l 1,23,-1
 282 876 l 1,24,-1
 961 876 l 1,25,26
 936 1051 936 1051 823 1151 c 0,27,28
 703 1259 703 1259 508 1259 c 0,29,30
 349 1259 349 1259 198 1184 c 2,31,-1
 171 1171 l 1,32,-1
 68 1380 l 1,33,-1
 94 1393 l 1,0,1
EndSplineSet
EndChar
StartChar: afii10048
Encoding: 1070 1070 1073
Width: 600
GlyphClass: 2
Flags: W
LayerCount: 2
Fore
SplineSet
204 428 m 1,0,1
 215 583 215 583 262 651 c 0,2,3
 313 725 313 725 421 725 c 0,4,5
 469 725 469 725 507 707 c 0,6,7
 551 685 551 685 578 634 c 0,8,9
 624 549 624 549 624.5 358.5 c 128,-1,10
 625 168 625 168 578 82 c 0,11,12
 528 -9 528 -9 418 -10 c 0,13,14
 369 -10 369 -10 332 7 c 0,15,16
 285 27 285 27 255 71 c 0,17,18
 207 145 207 145 201 318 c 1,19,-1
 158 318 l 1,20,-1
 158 0 l 1,21,-1
 48 0 l 1,22,-1
 48 714 l 1,23,-1
 158 714 l 1,24,-1
 158 428 l 1,25,-1
 204 428 l 1,0,1
402 101 m 0,26,27
 410 100 410 100 418 99 c 0,28,29
 443 99 443 99 461 112 c 0,30,31
 476 123 476 123 485 145 c 0,32,33
 509 196 509 196 509 358 c 0,34,35
 509 522 509 522 485 572 c 0,36,37
 475 592 475 592 461 603 c 0,38,39
 444 616 444 616 418 616 c 0,40,41
 392 616 392 616 375 603 c 0,42,43
 356 588 356 588 346 558 c 0,44,45
 326 500 326 500 327 358 c 0,46,47
 327 200 327 200 351 146 c 0,48,49
 368 108 368 108 402 101 c 0,26,27
EndSplineSet
Validated: 33
EndChar
StartChar: afii10049
Encoding: 1071 1071 1074
Width: 1229
GlyphClass: 2
Flags: W
LayerCount: 2
Fore
SplineSet
938 0 m 1,0,-1
 938 574 l 1,1,-1
 717 574 l 1,2,-1
 346 0 l 1,3,-1
 57 0 l 1,4,-1
 458 644 l 1,5,6
 311 700 311 700 246 811 c 0,7,8
 188 910 188 910 188 1050 c 0,9,10
 188 1279 188 1279 359 1382 c 1,11,12
 506 1462 506 1462 765 1462 c 2,13,-1
 1184 1462 l 1,14,-1
 1184 0 l 1,15,-1
 938 0 l 1,0,-1
771 792 m 2,16,-1
 938 792 l 1,17,-1
 938 1243 l 1,18,-1
 762 1243 l 2,19,20
 619 1243 619 1243 542 1200 c 0,21,22
 451 1149 451 1149 451 1032 c 128,-1,23
 451 915 451 915 531 854 c 0,24,25
 613 792 613 792 771 792 c 2,16,-1
EndSplineSet
EndChar
StartChar: afii10066
Encoding: 1073 1073 1076
Width: 1229
GlyphClass: 2
Flags: W
LayerCount: 2
Fore
SplineSet
472 1125 m 0,0,1
 419 1048 419 1048 403 909 c 1,2,3
 536 1027 536 1027 752 1027 c 0,4,5
 974 1027 974 1027 1090 892 c 0,6,7
 1203 759 1203 759 1203 531 c 0,8,9
 1203 273 1203 273 1070 127 c 0,10,11
 934 -20 934 -20 672 -20 c 128,-1,12
 410 -20 410 -20 273 164 c 0,13,14
 143 343 143 343 143 657 c 0,15,16
 143 862 143 862 175 1003 c 128,-1,17
 207 1144 207 1144 261 1232 c 0,18,19
 316 1325 316 1325 390 1382 c 1,20,21
 472 1438 472 1438 589 1467.5 c 128,-1,22
 706 1497 706 1497 1153 1576 c 1,23,-1
 1199 1357 l 1,24,25
 751 1285 751 1285 639 1253 c 0,26,27
 537 1224 537 1224 472 1125 c 0,0,1
536 234 m 0,28,29
 597 191 597 191 686 191 c 0,30,31
 752 191 752 191 801 211 c 0,32,33
 860 236 860 236 896 292 c 0,34,35
 950 377 950 377 950 536 c 0,36,37
 950 792 950 792 817 851 c 0,38,39
 774 870 774 870 715 870 c 0,40,41
 620 870 620 870 530.5 812.5 c 128,-1,42
 441 755 441 755 392 677 c 1,43,44
 393 456 393 456 454 335 c 0,45,46
 487 270 487 270 536 234 c 0,28,29
EndSplineSet
EndChar
StartChar: afii10067
Encoding: 1074 1074 1077
Width: 1229
GlyphClass: 2
Flags: W
LayerCount: 2
Fore
SplineSet
1135 531 m 0,0,1
 1228 460 1228 460 1228 329 c 0,2,3
 1228 253 1228 253 1198.5 191.5 c 128,-1,4
 1169 130 1169 130 1111 86 c 0,5,6
 996 0 996 0 719 0 c 2,7,-1
 176 0 l 1,8,-1
 176 1098 l 1,9,-1
 716 1098 l 2,10,11
 1087 1098 1087 1098 1167 932 c 0,12,13
 1193 878 1193 878 1193 807 c 0,14,15
 1193 690 1193 690 1112 623 c 0,16,17
 1081 598 1081 598 1039 580 c 1,18,19
 1095 562 1095 562 1135 531 c 0,0,1
418 884 m 1,20,-1
 418 677 l 1,21,-1
 681 677 l 2,22,23
 833 677 833 677 897 704 c 0,24,25
 952 728 952 728 952 787 c 0,26,27
 952 811 952 811 939 829 c 0,28,29
 898 884 898 884 712 884 c 2,30,-1
 418 884 l 1,20,-1
418 464 m 1,31,-1
 418 210 l 1,32,-1
 706 210 l 2,33,34
 925 210 925 210 976 286 c 0,35,36
 990 310 990 310 990 343 c 0,37,38
 990 402 990 402 945 428 c 0,39,40
 909 447 909 447 834 456 c 0,41,42
 776 464 776 464 702 464 c 2,43,-1
 418 464 l 1,31,-1
EndSplineSet
EndChar
StartChar: afii10068
Encoding: 1075 1075 1078
Width: 600
GlyphClass: 2
Flags: W
LayerCount: 2
Fore
SplineSet
565 432 m 1,0,-1
 260 432 l 1,1,-1
 260 0 l 1,2,-1
 142 0 l 1,3,-1
 142 536 l 1,4,-1
 565 536 l 1,5,-1
 565 432 l 1,0,-1
EndSplineSet
Validated: 1
EndChar
StartChar: afii10069
Encoding: 1076 1076 1079
Width: 1229
GlyphClass: 2
Flags: W
LayerCount: 2
Fore
SplineSet
1248 214 m 1,0,-1
 1248 -381 l 1,1,-1
 1012 -381 l 1,2,-1
 1012 0 l 1,3,-1
 269 0 l 1,4,-1
 269 -381 l 1,5,-1
 33 -381 l 1,6,-1
 33 214 l 1,7,-1
 133 214 l 1,8,9
 390 567 390 567 395 1068 c 1,10,-1
 395 1098 l 1,11,-1
 1097 1098 l 1,12,-1
 1097 214 l 1,13,-1
 1248 214 l 1,0,-1
842 214 m 1,14,-1
 842 898 l 1,15,-1
 632 898 l 1,16,17
 591 496 591 496 404 214 c 1,18,-1
 842 214 l 1,14,-1
EndSplineSet
EndChar
StartChar: afii10072
Encoding: 1078 1078 1081
Width: 1229
GlyphClass: 2
Flags: W
LayerCount: 2
Fore
SplineSet
416 564 m 1,0,-1
 0 1098 l 1,1,-1
 257 1098 l 1,2,-1
 622 635 l 1,3,-1
 622 1098 l 1,4,-1
 841 1098 l 1,5,-1
 841 635 l 1,6,-1
 1205 1098 l 1,7,-1
 1463 1098 l 1,8,-1
 1050 564 l 1,9,-1
 1459 0 l 1,10,-1
 1192 0 l 1,11,-1
 841 480 l 1,12,-1
 841 0 l 1,13,-1
 622 0 l 1,14,-1
 622 480 l 1,15,-1
 271 0 l 1,16,-1
 4 0 l 1,17,-1
 416 564 l 1,0,-1
EndSplineSet
EndChar
StartChar: afii10073
Encoding: 1079 1079 1082
Width: 600
GlyphClass: 2
Flags: W
LayerCount: 2
Fore
SplineSet
196 331 m 1,0,-1
 273 331 l 2,1,2
 342 331 342 331 381 340 c 0,3,4
 405 345 405 345 417 355 c 0,5,6
 434 368 434 368 434 389 c 0,7,8
 434 410 434 410 417 422 c 0,9,10
 396 437 396 437 347 441 c 0,11,12
 330 442 330 442 311 443 c 0,13,14
 239 443 239 443 153 409 c 2,15,-1
 140 403 l 1,16,-1
 98 501 l 1,17,-1
 111 507 l 2,18,19
 192 546 192 546 310 546 c 0,20,21
 430 546 430 546 489 509 c 0,22,23
 550 470 550 470 550 398 c 0,24,25
 550 345 550 345 517 311 c 0,26,27
 500 294 500 294 476 283 c 1,28,29
 508 270 508 270 528 250 c 0,30,31
 567 213 567 213 567 154 c 0,32,33
 567 77 567 77 502 33 c 0,34,35
 438 -9 438 -9 307 -10 c 0,36,37
 177 -10 177 -10 112 26 c 1,38,-1
 104 30 l 1,39,-1
 104 143 l 1,40,-1
 125 133 l 2,41,42
 210 92 210 92 310 92 c 0,43,44
 419 92 419 92 443 130 c 0,45,46
 450 142 450 142 451 159 c 0,47,48
 451 189 451 189 422 205 c 0,49,50
 383 227 383 227 294 227 c 2,51,-1
 196 227 l 1,52,-1
 196 331 l 1,0,-1
EndSplineSet
EndChar
StartChar: afii10074
Encoding: 1080 1080 1083
Width: 1229
GlyphClass: 2
Flags: W
LayerCount: 2
Fore
SplineSet
160 1098 m 1,0,-1
 392 1098 l 1,1,-1
 392 399 l 1,2,-1
 386 274 l 1,3,-1
 908 1098 l 1,4,-1
 1189 1098 l 1,5,-1
 1189 0 l 1,6,-1
 957 0 l 1,7,-1
 957 678 l 1,8,-1
 962 825 l 1,9,-1
 447 0 l 1,10,-1
 160 0 l 1,11,-1
 160 1098 l 1,0,-1
EndSplineSet
EndChar
StartChar: afii10076
Encoding: 1082 1082 1085
Width: 600
GlyphClass: 2
Flags: W
LayerCount: 2
Fore
SplineSet
222 297 m 1,0,-1
 483 536 l 1,1,-1
 633 536 l 1,2,-1
 346 278 l 1,3,-1
 652 0 l 1,4,-1
 498 0 l 1,5,-1
 222 251 l 1,6,-1
 222 0 l 1,7,-1
 105 0 l 1,8,-1
 105 536 l 1,9,-1
 222 536 l 1,10,-1
 222 297 l 1,0,-1
EndSplineSet
Validated: 1
EndChar
StartChar: afii10077
Encoding: 1083 1083 1086
Width: 1229
GlyphClass: 2
Flags: W
LayerCount: 2
Fore
SplineSet
1160 1098 m 1,0,-1
 1160 0 l 1,1,-1
 918 0 l 1,2,-1
 918 884 l 1,3,-1
 607 884 l 1,4,5
 565 438 565 438 468 222 c 0,6,7
 422 120 422 120 353 61 c 0,8,9
 265 -14 265 -14 153 -14 c 0,10,11
 85 -14 85 -14 50 0 c 2,12,-1
 31 8 l 1,13,-1
 31 139 l 1,14,-1
 69 128 l 2,15,16
 86 123 86 123 111 123 c 0,17,18
 180 123 180 123 234 262 c 0,19,20
 324 480 324 480 371 1070 c 1,21,-1
 373 1098 l 1,22,-1
 1160 1098 l 1,0,-1
EndSplineSet
EndChar
StartChar: afii10078
Encoding: 1084 1084 1087
Width: 1229
GlyphClass: 2
Flags: W
LayerCount: 2
Fore
SplineSet
1234 1098 m 1,0,-1
 1294 0 l 1,1,-1
 1083 0 l 1,2,-1
 1023 698 l 1,3,4
 1018 680 1018 680 1013 667 c 2,5,-1
 794 0 l 1,6,-1
 615 0 l 1,7,-1
 335 668 l 2,8,9
 333 676 333 676 326 700 c 1,10,-1
 326 0 l 1,11,-1
 115 0 l 1,12,-1
 115 1098 l 1,13,-1
 378 1098 l 1,14,-1
 660 421 l 1,15,16
 677 367 677 367 705 259 c 1,17,18
 715 296 715 296 728 343 c 0,19,20
 738 382 738 382 749 417 c 2,21,-1
 975 1098 l 1,22,-1
 1234 1098 l 1,0,-1
EndSplineSet
EndChar
StartChar: afii10079
Encoding: 1085 1085 1088
Width: 1229
GlyphClass: 2
Flags: W
LayerCount: 2
Fore
SplineSet
947 459 m 1,0,-1
 402 459 l 1,1,-1
 402 0 l 1,2,-1
 160 0 l 1,3,-1
 160 1098 l 1,4,-1
 402 1098 l 1,5,-1
 402 673 l 1,6,-1
 947 673 l 1,7,-1
 947 1098 l 1,8,-1
 1189 1098 l 1,9,-1
 1189 0 l 1,10,-1
 947 0 l 1,11,-1
 947 459 l 1,0,-1
EndSplineSet
EndChar
StartChar: afii10081
Encoding: 1087 1087 1090
Width: 1229
GlyphClass: 2
Flags: W
LayerCount: 2
Fore
SplineSet
402 884 m 1,0,-1
 402 0 l 1,1,-1
 160 0 l 1,2,-1
 160 1098 l 1,3,-1
 1189 1098 l 1,4,-1
 1189 0 l 1,5,-1
 947 0 l 1,6,-1
 947 884 l 1,7,-1
 402 884 l 1,0,-1
EndSplineSet
EndChar
StartChar: afii10084
Encoding: 1090 1090 1093
Width: 1229
GlyphClass: 2
Flags: W
LayerCount: 2
Fore
SplineSet
582 0 m 1,0,-1
 539 884 l 1,1,-1
 121 884 l 1,2,-1
 121 1098 l 1,3,-1
 1226 1098 l 1,4,-1
 1226 884 l 1,5,-1
 808 884 l 1,6,-1
 825 0 l 1,7,-1
 582 0 l 1,0,-1
EndSplineSet
EndChar
StartChar: afii10086
Encoding: 1092 1092 1095
Width: 1229
GlyphClass: 2
Flags: W
LayerCount: 2
Fore
SplineSet
557 1111 m 1,0,-1
 557 1556 l 1,1,-1
 794 1556 l 1,2,-1
 794 1110 l 1,3,4
 1062 1077 1062 1077 1177 913 c 0,5,6
 1273 776 1273 776 1273 551 c 0,7,8
 1273 321 1273 321 1177 183 c 0,9,10
 1062 17 1062 17 794 -13 c 1,11,-1
 794 -492 l 1,12,-1
 557 -492 l 1,13,-1
 557 -13 l 1,14,15
 286 18 286 18 170 184 c 0,16,17
 74 322 74 322 74 551 c 128,-1,18
 74 780 74 780 170 917 c 0,19,20
 286 1082 286 1082 557 1111 c 1,0,-1
302 550 m 128,-1,22
 302 387 302 387 360 293 c 0,23,24
 423 192 423 192 557 170 c 1,25,-1
 557 929 l 1,26,27
 423 906 423 906 360 806 c 0,28,21
 302 713 302 713 302 550 c 128,-1,22
794 170 m 1,29,30
 926 194 926 194 988 294 c 0,31,32
 1045 389 1045 389 1045 550 c 128,-1,33
 1045 711 1045 711 988 803 c 0,34,35
 926 902 926 902 794 926 c 1,36,-1
 794 170 l 1,29,30
EndSplineSet
EndChar
StartChar: afii10088
Encoding: 1094 1094 1097
Width: 1229
GlyphClass: 2
Flags: W
LayerCount: 2
Fore
SplineSet
1300 214 m 1,0,-1
 1300 -381 l 1,1,-1
 1064 -381 l 1,2,-1
 1064 0 l 1,3,-1
 152 0 l 1,4,-1
 152 1098 l 1,5,-1
 394 1098 l 1,6,-1
 394 214 l 1,7,-1
 898 214 l 1,8,-1
 898 1098 l 1,9,-1
 1140 1098 l 1,10,-1
 1140 214 l 1,11,-1
 1300 214 l 1,0,-1
EndSplineSet
EndChar
StartChar: afii10089
Encoding: 1095 1095 1098
Width: 1229
GlyphClass: 2
Flags: W
LayerCount: 2
Fore
SplineSet
939 0 m 1,0,-1
 939 434 l 1,1,2
 751 332 751 332 545 332 c 0,3,4
 356 333 356 333 254 424 c 0,5,6
 203 470 203 470 177.5 530.5 c 128,-1,7
 152 591 152 591 152 663 c 2,8,-1
 152 1098 l 1,9,-1
 394 1098 l 1,10,-1
 394 681 l 2,11,12
 394 604 394 604 450 572 c 0,13,14
 499 544 499 544 591 544 c 0,15,16
 765 544 765 544 939 640 c 1,17,-1
 939 1098 l 1,18,-1
 1181 1098 l 1,19,-1
 1181 0 l 1,20,-1
 939 0 l 1,0,-1
EndSplineSet
EndChar
StartChar: afii10090
Encoding: 1096 1096 1099
Width: 1229
GlyphClass: 2
Flags: W
LayerCount: 2
Fore
SplineSet
347 214 m 1,0,-1
 595 214 l 1,1,-1
 595 1098 l 1,2,-1
 816 1098 l 1,3,-1
 816 214 l 1,4,-1
 1064 214 l 1,5,-1
 1064 1098 l 1,6,-1
 1286 1098 l 1,7,-1
 1286 0 l 1,8,-1
 125 0 l 1,9,-1
 125 1098 l 1,10,-1
 347 1098 l 1,11,-1
 347 214 l 1,0,-1
EndSplineSet
EndChar
StartChar: afii10091
Encoding: 1097 1097 1100
Width: 1229
GlyphClass: 2
Flags: W
LayerCount: 2
Fore
SplineSet
330 214 m 1,0,-1
 578 214 l 1,1,-1
 578 1098 l 1,2,-1
 800 1098 l 1,3,-1
 800 214 l 1,4,-1
 1048 214 l 1,5,-1
 1048 1098 l 1,6,-1
 1270 1098 l 1,7,-1
 1270 214 l 1,8,-1
 1388 214 l 1,9,-1
 1388 -381 l 1,10,-1
 1167 -381 l 1,11,-1
 1167 0 l 1,12,-1
 109 0 l 1,13,-1
 109 1098 l 1,14,-1
 330 1098 l 1,15,-1
 330 214 l 1,0,-1
EndSplineSet
EndChar
StartChar: afii10092
Encoding: 1098 1098 1101
Width: 600
GlyphClass: 2
Flags: W
LayerCount: 2
Fore
SplineSet
226 0 m 1,0,-1
 202 432 l 1,1,-1
 21 432 l 1,2,-1
 21 536 l 1,3,-1
 331 536 l 1,4,-1
 331 331 l 1,5,-1
 396 331 l 2,6,7
 533 331 533 331 586 274 c 1,8,9
 652 235 652 235 652 171 c 0,10,11
 652 76 652 76 582 33 c 0,12,13
 526 0 526 0 403 0 c 2,14,-1
 226 0 l 1,0,-1
345 227 m 1,15,-1
 345 103 l 1,16,-1
 397 103 l 2,17,18
 504 103 504 103 529 138 c 0,19,20
 536 149 536 149 536 166 c 0,21,22
 536 197 536 197 508 211 c 0,23,24
 475 227 475 227 395 227 c 2,25,-1
 345 227 l 1,15,-1
EndSplineSet
Validated: 1
EndChar
StartChar: afii10093
Encoding: 1099 1099 1102
Width: 1229
GlyphClass: 2
Flags: W
LayerCount: 2
Fore
SplineSet
334 1098 m 1,0,-1
 334 677 l 1,1,-1
 448 677 l 2,2,3
 761 677 761 677 874 539 c 0,4,5
 936 464 936 464 936 350 c 0,6,7
 936 156 936 156 779 68 c 0,8,9
 656 0 656 0 443 0 c 2,10,-1
 113 0 l 1,11,-1
 113 1098 l 1,12,-1
 334 1098 l 1,0,-1
334 464 m 1,13,-1
 334 210 l 1,14,-1
 452 210 l 2,15,16
 642 210 642 210 685 282 c 0,17,18
 698 305 698 305 698 339 c 0,19,20
 698 403 698 403 648 432 c 0,21,22
 591 464 591 464 448 464 c 2,23,-1
 334 464 l 1,13,-1
1234 1098 m 1,24,-1
 1234 0 l 1,25,-1
 1012 0 l 1,26,-1
 1012 1098 l 1,27,-1
 1234 1098 l 1,24,-1
EndSplineSet
EndChar
StartChar: afii10094
Encoding: 1100 1100 1103
Width: 600
GlyphClass: 2
Flags: W
LayerCount: 2
Fore
SplineSet
224 536 m 1,0,-1
 224 331 l 1,1,-1
 361 331 l 2,2,3
 537 331 537 331 578 240 c 0,4,5
 592 210 592 210 592 171 c 0,6,7
 592 103 592 103 555 62 c 0,8,9
 501 0 501 0 359 0 c 2,10,-1
 106 0 l 1,11,-1
 106 536 l 1,12,-1
 224 536 l 1,0,-1
224 227 m 1,13,-1
 224 103 l 1,14,-1
 352 103 l 2,15,16
 447 103 447 103 469 138 c 0,17,18
 475 149 475 149 475 166 c 0,19,20
 475 197 475 197 450 211 c 0,21,22
 421 227 421 227 349 227 c 2,23,-1
 224 227 l 1,13,-1
EndSplineSet
Validated: 1
EndChar
StartChar: afii10095
Encoding: 1101 1101 1104
Width: 1229
GlyphClass: 2
Flags: W
LayerCount: 2
Fore
SplineSet
216 44 m 2,0,-1
 199 52 l 1,1,-1
 199 275 l 1,2,-1
 240 259 l 2,3,4
 397 199 397 199 560 199 c 0,5,6
 725 199 725 199 818 255 c 0,7,8
 923 318 923 318 940 457 c 1,9,-1
 345 457 l 1,10,-1
 345 671 l 1,11,-1
 936 671 l 1,12,13
 914 792 914 792 813 848 c 0,14,15
 721 898 721 898 562 898 c 0,16,17
 446 898 446 898 295 843 c 2,18,-1
 268 833 l 1,19,-1
 184 1046 l 1,20,-1
 212 1057 l 2,21,22
 370 1118 370 1118 571 1118 c 0,23,24
 888 1118 888 1118 1042 971 c 1,25,26
 1190 824 1190 824 1190 543 c 0,27,28
 1190 274 1190 274 1038 127 c 1,29,30
 879 -20 879 -20 565 -20 c 0,31,32
 355 -20 355 -20 216 44 c 2,0,-1
EndSplineSet
EndChar
StartChar: afii10096
Encoding: 1102 1102 1105
Width: 1229
GlyphClass: 2
Flags: W
LayerCount: 2
Fore
SplineSet
645 1058 m 0,0,1
 741 1118 741 1118 879 1118 c 0,2,3
 970 1118 970 1118 1043 1086 c 0,4,5
 1127 1048 1127 1048 1185 963 c 0,6,7
 1285 816 1285 816 1285 550 c 0,8,9
 1285 302 1285 302 1209 163 c 0,10,11
 1108 -20 1108 -20 873 -20 c 0,12,13
 775 -20 775 -20 698 14 c 0,14,15
 475 107 475 107 444 459 c 1,16,-1
 345 459 l 1,17,-1
 345 0 l 1,18,-1
 123 0 l 1,19,-1
 123 1098 l 1,20,-1
 345 1098 l 1,21,-1
 345 673 l 1,22,-1
 447 673 l 1,23,24
 478 954 478 954 645 1058 c 0,0,1
768 230 m 0,25,26
 808 191 808 191 877 191 c 0,27,28
 952 191 952 191 993 239 c 0,29,30
 1057 316 1057 316 1057 551 c 0,31,32
 1057 796 1057 796 984 869 c 0,33,34
 944 907 944 907 875 907 c 0,35,36
 833 907 833 907 802 893 c 0,37,38
 763 875 763 875 740 834 c 0,39,40
 692 751 692 751 692 552 c 0,41,42
 692 302 692 302 768 230 c 0,25,26
EndSplineSet
EndChar
StartChar: afii10097
Encoding: 1103 1103 1106
Width: 1229
GlyphClass: 2
Flags: W
LayerCount: 2
Fore
SplineSet
385 0 m 1,0,-1
 115 0 l 1,1,-1
 418 450 l 1,2,3
 267 503 267 503 219 630 c 0,4,5
 196 690 196 690 196 764 c 0,6,7
 196 920 196 920 309 1010 c 0,8,9
 424 1098 424 1098 630 1098 c 2,10,-1
 1178 1098 l 1,11,-1
 1178 0 l 1,12,-1
 936 0 l 1,13,-1
 936 402 l 1,14,-1
 670 402 l 1,15,-1
 385 0 l 1,0,-1
936 616 m 1,16,-1
 936 884 l 1,17,-1
 639 884 l 2,18,19
 544 884 544 884 494 858 c 0,20,21
 436 828 436 828 436 756 c 0,22,23
 436 678 436 678 503 645 c 0,24,25
 560 616 560 616 669 616 c 2,26,-1
 936 616 l 1,16,-1
EndSplineSet
EndChar
StartChar: afii10099
Encoding: 1106 1106 1109
Width: 1229
GlyphClass: 2
Flags: W
LayerCount: 2
Fore
SplineSet
416 1022 m 1,0,-1
 413 959 l 1,1,2
 537 1077 537 1077 751 1077 c 0,3,4
 1000 1077 1000 1077 1105 948 c 0,5,6
 1189 846 1189 846 1189 666 c 2,7,-1
 1189 -128 l 2,8,9
 1189 -286 1189 -286 1126 -376 c 0,10,11
 1045 -492 1045 -492 859 -492 c 0,12,13
 760 -492 760 -492 694 -464 c 2,14,-1
 675 -456 l 1,15,-1
 675 -245 l 1,16,-1
 721 -261 l 2,17,18
 776 -280 776 -280 838 -280 c 0,19,20
 867 -280 867 -280 888.5 -271.5 c 128,-1,21
 910 -263 910 -263 924 -242 c 0,22,23
 947 -207 947 -207 947 -140 c 2,24,-1
 947 649 l 2,25,26
 947 749 947 749 903 802 c 0,27,28
 849 866 849 866 722 866 c 0,29,30
 680 866 680 866 653.5 862 c 128,-1,31
 627 858 627 858 611 854.5 c 128,-1,32
 595 851 595 851 581 846 c 128,-1,33
 567 841 567 841 554 835 c 128,-1,34
 541 829 541 829 530 822 c 0,35,36
 507 808 507 808 490 789 c 0,37,38
 454 751 454 751 435 683.5 c 128,-1,39
 416 616 416 616 402 522 c 1,40,-1
 402 0 l 1,41,-1
 160 0 l 1,42,-1
 160 1177 l 1,43,-1
 4 1177 l 1,44,-1
 4 1374 l 1,45,-1
 160 1374 l 1,46,-1
 160 1556 l 1,47,-1
 416 1556 l 1,48,-1
 416 1374 l 1,49,-1
 831 1374 l 1,50,-1
 831 1177 l 1,51,-1
 416 1177 l 1,52,-1
 416 1022 l 1,0,-1
EndSplineSet
EndChar
StartChar: afii10101
Encoding: 1108 1108 1111
Width: 600
GlyphClass: 2
Flags: W
LayerCount: 2
Fore
SplineSet
526 412 m 2,0,1
 455 439 455 439 396 438 c 0,2,3
 316 438 316 438 271 414 c 0,4,5
 220 387 220 387 208 328 c 1,6,-1
 497 328 l 1,7,-1
 497 223 l 1,8,-1
 206 223 l 1,9,10
 215 155 215 155 266 125 c 0,11,12
 311 98 311 98 391 97.5 c 128,-1,13
 471 97 471 97 547 126 c 2,14,-1
 567 134 l 1,15,-1
 567 25 l 1,16,-1
 559 21 l 2,17,18
 492 -10 492 -10 389 -10 c 0,19,20
 236 -10 236 -10 158 62 c 1,21,22
 84 134 84 134 84 265 c 0,23,24
 84 402 84 402 159 474 c 1,25,26
 239 546 239 546 393 546 c 0,27,28
 491 546 491 546 567 516 c 2,29,-1
 581 511 l 1,30,-1
 540 406 l 1,31,-1
 526 412 l 2,0,1
EndSplineSet
Validated: 33
EndChar
StartChar: afii10106
Encoding: 1113 1113 1116
Width: 1229
GlyphClass: 2
Flags: W
LayerCount: 2
Fore
SplineSet
19 0 m 2,0,-1
 0 8 l 1,1,-1
 0 138 l 1,2,-1
 38 128 l 2,3,4
 56 123 56 123 79 123 c 0,5,6
 92 123 92 123 101.5 130 c 128,-1,7
 111 137 111 137 119 150 c 0,8,9
 127 165 127 165 138 216 c 128,-1,10
 149 267 149 267 162 372 c 0,11,12
 184 562 184 562 221 1098 c 1,13,-1
 773 1098 l 1,14,-1
 773 677 l 1,15,-1
 800 677 l 2,16,17
 1116 677 1116 677 1225 561 c 1,18,19
 1360 481 1360 481 1360 350 c 0,20,21
 1360 156 1360 156 1217 68 c 0,22,23
 1103 0 1103 0 850 0 c 2,24,-1
 611 0 l 1,25,-1
 551 884 l 1,26,-1
 423 884 l 1,27,28
 412 379 412 379 377 225 c 0,29,30
 346 93 346 93 295 46 c 0,31,32
 232 -14 232 -14 122 -14 c 0,33,34
 54 -14 54 -14 19 0 c 2,0,-1
833 464 m 1,35,-1
 833 210 l 1,36,-1
 860 210 l 2,37,38
 1083 210 1083 210 1129 282 c 0,39,40
 1142 305 1142 305 1142 339 c 0,41,42
 1142 403 1142 403 1091 432 c 1,43,44
 1024 464 1024 464 855 464 c 2,45,-1
 833 464 l 1,35,-1
EndSplineSet
EndChar
StartChar: afii10107
Encoding: 1114 1114 1117
Width: 600
GlyphClass: 2
Flags: W
LayerCount: 2
Fore
SplineSet
306 224 m 1,0,-1
 160 224 l 1,1,-1
 160 0 l 1,2,-1
 52 0 l 1,3,-1
 52 536 l 1,4,-1
 160 536 l 1,5,-1
 160 329 l 1,6,-1
 306 329 l 1,7,-1
 306 536 l 1,8,-1
 415 536 l 1,9,-1
 415 327 l 1,10,-1
 425 327 l 2,11,12
 553 327 553 327 606 271 c 0,13,14
 643 232 643 232 643 169 c 0,15,16
 643 75 643 75 573 33 c 0,17,18
 518 0 518 0 423 0 c 2,19,-1
 306 0 l 1,20,-1
 306 224 l 1,0,-1
415 241 m 1,21,-1
 415 103 l 1,22,-1
 427 103 l 2,23,24
 511 103 511 103 530 142 c 0,25,26
 536 154 536 154 536 173 c 0,27,28
 536 208 536 208 514 224 c 0,29,30
 489 242 489 242 425 241 c 2,31,-1
 415 241 l 1,21,-1
EndSplineSet
Validated: 33
EndChar
StartChar: afii10193
Encoding: 1119 1119 1122
Width: 600
GlyphClass: 2
Flags: W
LayerCount: 2
Fore
SplineSet
268 -186 m 1,0,-1
 268 0 l 1,1,-1
 78 0 l 1,2,-1
 78 536 l 1,3,-1
 196 536 l 1,4,-1
 196 104 l 1,5,-1
 462 104 l 1,6,-1
 462 536 l 1,7,-1
 581 536 l 1,8,-1
 581 0 l 1,9,-1
 401 0 l 1,10,-1
 401 -186 l 1,11,-1
 268 -186 l 1,0,-1
EndSplineSet
EndChar
StartChar: uni0460
Encoding: 1120 1120 1123
Width: 600
GlyphClass: 2
Flags: W
LayerCount: 2
Fore
SplineSet
268 111 m 1,0,-1
 268 353 l 1,1,-1
 391 353 l 1,2,-1
 391 111 l 1,3,4
 405 99 405 99 426 99 c 0,5,6
 435 99 435 99 442.5 102.5 c 128,-1,7
 450 106 450 106 457 115 c 0,8,9
 480 142 480 142 492 208 c 0,10,11
 503 272 503 272 503 373 c 0,12,13
 503 498 503 498 483 560 c 0,14,15
 476 582 476 582 469 594 c 0,16,17
 459 610 459 610 449 613 c 0,18,19
 446 614 446 614 443 614 c 0,20,21
 419 614 419 614 401 602 c 2,22,-1
 383 591 l 1,23,-1
 348 694 l 1,24,-1
 357 701 l 2,25,26
 378 714 378 714 404 718.5 c 128,-1,27
 430 723 430 723 458 723 c 0,28,29
 507 723 507 723 539 693 c 0,30,31
 564 670 564 670 582 630 c 0,32,33
 619 544 619 544 619 373 c 0,34,35
 619 282 619 282 610 211 c 0,36,37
 594 81 594 81 541 29 c 0,38,39
 502 -10 502 -10 436 -10 c 0,40,41
 399 -10 399 -10 369 4 c 0,42,43
 355 11 355 11 342 21 c 0,44,45
 336 26 336 26 329 32 c 1,46,47
 323 26 323 26 317 21 c 0,48,49
 278 -10 278 -10 223 -10 c 128,-1,50
 168 -10 168 -10 133 17 c 0,51,52
 67 67 67 67 49 212 c 0,53,54
 40 281 40 281 40 372 c 0,55,56
 40 543 40 543 77 630 c 0,57,58
 105 696 105 696 155 715 c 0,59,60
 176 723 176 723 202.5 723 c 128,-1,61
 229 723 229 723 254.5 718 c 128,-1,62
 280 713 280 713 301 701 c 2,63,-1
 311 694 l 1,64,-1
 276 591 l 1,65,-1
 258 602 l 2,66,67
 240 614 240 614 215 614 c 0,68,69
 202 614 202 614 190 596 c 0,70,71
 155 541 155 541 155 373 c 0,72,73
 155 168 155 168 203 114 c 0,74,75
 210 106 210 106 217.5 102.5 c 128,-1,76
 225 99 225 99 234 99 c 0,77,78
 254 99 254 99 268 111 c 1,0,-1
EndSplineSet
Validated: 1
EndChar
StartChar: uni0461
Encoding: 1121 1121 1124
Width: 1229
GlyphClass: 2
Flags: W
LayerCount: 2
Fore
SplineSet
299 0 m 1,0,-1
 -4 1098 l 1,1,-1
 218 1098 l 1,2,-1
 387 399 l 2,3,4
 410 302 410 302 427 223 c 1,5,6
 446 292 446 292 463 344 c 1,7,-1
 607 608 l 1,8,-1
 491 1098 l 1,9,-1
 703 1098 l 1,10,-1
 864 402 l 2,11,12
 907 211 907 211 912 190 c 1,13,14
 1001 354 1001 354 1093 550 c 1,15,16
 1118 663 1118 663 1127.5 790.5 c 128,-1,17
 1137 918 1137 918 1137 1068 c 2,18,-1
 1137 1098 l 1,19,-1
 1350 1098 l 1,20,-1
 1350 1068 l 2,21,22
 1350 912 1350 912 1337 774 c 128,-1,23
 1324 636 1324 636 1230 508 c 1,24,25
 1178 309 1178 309 1073 135 c 0,26,27
 1036 73 1036 73 983 0 c 1,28,-1
 780 0 l 1,29,-1
 668 347 l 1,30,-1
 526 0 l 1,31,-1
 299 0 l 1,0,-1
EndSplineSet
EndChar
StartChar: uni0462
Encoding: 1122 1122 1125
Width: 600
GlyphClass: 2
Flags: W
LayerCount: 2
Fore
SplineSet
498 528 m 1,0,-1
 289 528 l 1,1,-1
 289 428 l 1,2,-1
 323 428 l 2,3,4
 406 428 406 428 464 411 c 0,5,6
 520 395 520 395 553 366 c 1,7,8
 616 337 616 337 630.5 298.5 c 128,-1,9
 645 260 645 260 645 216 c 0,10,11
 645 168 645 168 629 127.5 c 128,-1,12
 613 87 613 87 580 58.5 c 128,-1,13
 547 30 547 30 491 15 c 0,14,15
 431 0 431 0 350 0 c 2,16,-1
 185 0 l 1,17,-1
 158 526 l 1,18,-1
 10 526 l 1,19,-1
 10 632 l 1,20,-1
 158 632 l 1,21,-1
 158 760 l 1,22,-1
 289 760 l 1,23,-1
 289 632 l 1,24,-1
 498 632 l 1,25,-1
 498 528 l 1,0,-1
327 318 m 2,26,-1
 306 318 l 1,27,-1
 306 107 l 1,28,-1
 342 107 l 2,29,30
 437 107 437 107 479 134 c 0,31,32
 521 160 521 160 521 216 c 0,33,34
 521 245 521 245 509 264 c 0,35,36
 486 300 486 300 414 312 c 0,37,38
 375 318 375 318 327 318 c 2,26,-1
EndSplineSet
Validated: 1
EndChar
StartChar: uni0463
Encoding: 1123 1123 1126
Width: 1229
GlyphClass: 2
Flags: W
LayerCount: 2
Fore
SplineSet
521 1319 m 1,0,-1
 521 1098 l 1,1,-1
 847 1098 l 1,2,-1
 847 884 l 1,3,-1
 521 884 l 1,4,-1
 521 677 l 1,5,-1
 768 677 l 2,6,7
 1008 677 1008 677 1118 596 c 0,8,9
 1175 555 1175 555 1203.5 492.5 c 128,-1,10
 1232 430 1232 430 1232 350.5 c 128,-1,11
 1232 271 1232 271 1206 206 c 128,-1,12
 1180 141 1180 141 1125 95 c 0,13,14
 1011 0 1011 0 722 0 c 2,15,-1
 258 0 l 1,16,-1
 258 884 l 1,17,-1
 20 884 l 1,18,-1
 20 1098 l 1,19,-1
 258 1098 l 1,20,-1
 258 1319 l 1,21,-1
 521 1319 l 1,0,-1
500 464 m 1,22,-1
 500 210 l 1,23,-1
 710 210 l 2,24,25
 851 210 851 210 922 240 c 0,26,27
 957 254 957 254 977 278 c 0,28,29
 994 301 994 301 994 337 c 0,30,31
 994 391 994 391 959 419 c 0,32,33
 921 447 921 447 839 457 c 0,34,35
 781 464 781 464 706 464 c 2,36,-1
 500 464 l 1,22,-1
EndSplineSet
EndChar
StartChar: uni0464
Encoding: 1124 1124 1127
Width: 1229
GlyphClass: 2
Flags: W
LayerCount: 2
Fore
SplineSet
997 1259 m 128,-1,1
 930 1259 930 1259 876 1233 c 0,2,3
 764 1179 764 1179 707 1024 c 0,4,5
 683 958 683 958 672 876 c 1,6,-1
 1169 876 l 1,7,-1
 1169 654 l 1,8,-1
 666 654 l 1,9,10
 677 436 677 436 758 322 c 0,11,12
 843 203 843 203 1001 203 c 0,13,14
 1068 203 1068 203 1123 219 c 0,15,16
 1180 236 1180 236 1236 259 c 2,17,-1
 1277 275 l 1,18,-1
 1277 50 l 1,19,20
 1229 27 1229 27 1206 17.5 c 128,-1,21
 1183 8 1183 8 1166.5 3 c 128,-1,22
 1150 -2 1150 -2 1132 -5 c 0,23,24
 1063 -20 1063 -20 968 -20 c 0,25,26
 829 -20 829 -20 725 31 c 0,27,28
 571 108 571 108 492 278 c 0,29,30
 421 430 421 430 411 652 c 1,31,-1
 324 652 l 1,32,-1
 324 0 l 1,33,-1
 98 0 l 1,34,-1
 98 1462 l 1,35,-1
 324 1462 l 1,36,-1
 324 876 l 1,37,-1
 418 876 l 1,38,39
 432 1000 432 1000 470 1103 c 0,40,41
 558 1341 558 1341 763 1434 c 0,42,43
 866 1483 866 1483 996 1483 c 0,44,45
 1091 1483 1091 1483 1170 1459.5 c 128,-1,46
 1249 1436 1249 1436 1313 1392 c 2,47,-1
 1334 1377 l 1,48,-1
 1235 1166 l 1,49,50
 1197 1193 1197 1193 1188.5 1198.5 c 128,-1,51
 1180 1204 1180 1204 1170.5 1209.5 c 128,-1,52
 1161 1215 1161 1215 1152 1220 c 0,53,54
 1133 1230 1133 1230 1111 1239 c 0,55,0
 1064 1259 1064 1259 997 1259 c 128,-1,1
EndSplineSet
EndChar
StartChar: uni0465
Encoding: 1125 1125 1128
Width: 1229
GlyphClass: 2
Flags: W
LayerCount: 2
Fore
SplineSet
976 -20 m 0,0,1
 881 -20 881 -20 792 11 c 0,2,3
 704 41 704 41 636 103 c 128,-1,4
 568 165 568 165 527 261 c 0,5,6
 491 345 491 345 482 459 c 1,7,-1
 382 459 l 1,8,-1
 382 0 l 1,9,-1
 160 0 l 1,10,-1
 160 1098 l 1,11,-1
 382 1098 l 1,12,-1
 382 673 l 1,13,-1
 485 673 l 1,14,15
 500 780 500 780 538 860 c 0,16,17
 582 949 582 949 650 1006.5 c 128,-1,18
 718 1064 718 1064 806 1090 c 0,19,20
 892 1118 892 1118 990 1118 c 0,21,22
 1100 1118 1100 1118 1198 1080 c 0,23,24
 1229 1068 1229 1068 1252 1055 c 2,25,-1
 1273 1043 l 1,26,-1
 1209 833 l 1,27,28
 1164 854 1164 854 1153 859 c 0,29,30
 1090 885 1090 885 1036 894 c 0,31,32
 1012 898 1012 898 990 898 c 0,33,34
 869 898 869 898 808 841 c 0,35,36
 751 787 751 787 735 671 c 1,37,-1
 1177 671 l 1,38,-1
 1177 457 l 1,39,-1
 731 457 l 1,40,41
 744 324 744 324 802 262 c 0,42,43
 832 230 832 230 876 214.5 c 128,-1,44
 920 199 920 199 981 199 c 0,45,46
 1052 199 1052 199 1105 216 c 0,47,48
 1160 234 1160 234 1206 258 c 2,49,-1
 1250 280 l 1,50,-1
 1250 52 l 1,51,-1
 1236 43 l 2,52,53
 1185 12 1185 12 1126 -4 c 128,-1,54
 1067 -20 1067 -20 976 -20 c 0,0,1
EndSplineSet
EndChar
StartChar: uni0466
Encoding: 1126 1126 1129
Width: 1229
GlyphClass: 2
Flags: W
LayerCount: 2
Fore
SplineSet
903 652 m 1,0,-1
 827 652 l 1,1,-1
 827 0 l 1,2,-1
 601 0 l 1,3,-1
 601 652 l 1,4,-1
 528 652 l 1,5,-1
 242 0 l 1,6,-1
 0 0 l 1,7,-1
 601 1462 l 1,8,-1
 831 1462 l 1,9,-1
 1434 0 l 1,10,-1
 1188 0 l 1,11,-1
 903 652 l 1,0,-1
760 1034 m 0,12,13
 736 1107 736 1107 714 1182 c 1,14,15
 705 1152 705 1152 685 1090 c 0,16,17
 660 1015 660 1015 616 866 c 1,18,-1
 818 866 l 1,19,20
 776 984 776 984 760 1034 c 0,12,13
EndSplineSet
EndChar
StartChar: uni0467
Encoding: 1127 1127 1130
Width: 1229
GlyphClass: 2
Flags: W
LayerCount: 2
Fore
SplineSet
1373 0 m 1,0,-1
 1120 0 l 1,1,-1
 889 459 l 1,2,-1
 828 459 l 1,3,-1
 828 0 l 1,4,-1
 606 0 l 1,5,-1
 606 459 l 1,6,-1
 540 459 l 1,7,-1
 309 0 l 1,8,-1
 61 0 l 1,9,-1
 576 1098 l 1,10,-1
 860 1098 l 1,11,-1
 1373 0 l 1,0,-1
633 673 m 1,12,-1
 797 673 l 1,13,14
 740 818 740 818 714 896 c 1,15,16
 685 812 685 812 633 673 c 1,12,-1
EndSplineSet
EndChar
StartChar: uni0468
Encoding: 1128 1128 1131
Width: 600
GlyphClass: 2
Flags: W
LayerCount: 2
Fore
SplineSet
523 317 m 1,0,-1
 523 0 l 1,1,-1
 414 0 l 1,2,-1
 414 320 l 1,3,-1
 306 0 l 1,4,-1
 193 0 l 1,5,-1
 279 318 l 1,6,-1
 158 318 l 1,7,-1
 158 0 l 1,8,-1
 48 0 l 1,9,-1
 48 714 l 1,10,-1
 158 714 l 1,11,-1
 158 426 l 1,12,-1
 294 426 l 1,13,-1
 385 714 l 1,14,-1
 492 714 l 1,15,-1
 745 0 l 1,16,-1
 632 0 l 1,17,-1
 523 317 l 1,0,-1
440 533 m 0,18,19
 440 535 440 535 439 538 c 1,20,21
 439 536 439 536 434 516 c 0,22,23
 430 500 430 500 413 426 c 1,24,-1
 466 426 l 1,25,26
 453 483 453 483 440 533 c 0,18,19
EndSplineSet
EndChar
StartChar: uni0469
Encoding: 1129 1129 1132
Width: 600
GlyphClass: 2
Flags: W
LayerCount: 2
Fore
SplineSet
753 0 m 1,0,-1
 640 0 l 1,1,-1
 536 224 l 1,2,-1
 532 224 l 1,3,-1
 532 0 l 1,4,-1
 424 0 l 1,5,-1
 424 224 l 1,6,-1
 420 224 l 1,7,-1
 314 0 l 1,8,-1
 203 0 l 1,9,-1
 282 224 l 1,10,-1
 168 224 l 1,11,-1
 168 0 l 1,12,-1
 60 0 l 1,13,-1
 60 536 l 1,14,-1
 168 536 l 1,15,-1
 168 329 l 1,16,-1
 305 329 l 1,17,-1
 390 536 l 1,18,-1
 507 536 l 1,19,-1
 753 0 l 1,0,-1
424 329 m 1,20,-1
 473 329 l 1,21,22
 460 368 460 368 448 415 c 1,23,24
 435 364 435 364 424 329 c 1,20,-1
EndSplineSet
Validated: 1
EndChar
StartChar: uni046A
Encoding: 1130 1130 1133
Width: 1229
GlyphClass: 2
Flags: W
LayerCount: 2
Fore
SplineSet
486 855 m 1,0,-1
 133 1291 l 1,1,-1
 133 1462 l 1,2,-1
 1294 1462 l 1,3,-1
 1294 1291 l 1,4,-1
 942 855 l 1,5,6
 1016 846 1016 846 1069 825 c 0,7,8
 1144 795 1144 795 1192 743 c 1,9,10
 1233 692 1233 692 1257.5 623.5 c 128,-1,11
 1282 555 1282 555 1304 471 c 2,12,-1
 1426 0 l 1,13,-1
 1194 0 l 1,14,-1
 1052 472 l 2,15,16
 1031 542 1031 542 1012 586.5 c 128,-1,17
 993 631 993 631 969.5 654 c 128,-1,18
 946 677 946 677 913 686 c 256,19,20
 880 695 880 695 826 696 c 1,21,-1
 826 0 l 1,22,-1
 598 0 l 1,23,-1
 598 696 l 1,24,25
 546 695 546 695 513 686 c 128,-1,26
 480 677 480 677 456.5 654 c 128,-1,27
 433 631 433 631 415 588 c 0,28,29
 395 542 395 542 374 472 c 2,30,-1
 232 0 l 1,31,-1
 0 0 l 1,32,-1
 122 471 l 2,33,34
 144 554 144 554 169 621 c 0,35,36
 218 752 218 752 333 811 c 0,37,38
 365 827 365 827 393 835 c 0,39,40
 439 849 439 849 486 855 c 1,0,-1
978 1238 m 1,41,-1
 456 1238 l 1,42,-1
 716 888 l 1,43,-1
 978 1238 l 1,41,-1
EndSplineSet
EndChar
StartChar: uni046B
Encoding: 1131 1131 1134
Width: 1229
GlyphClass: 2
Flags: W
LayerCount: 2
Fore
SplineSet
458 653 m 1,0,-1
 153 960 l 1,1,-1
 153 1098 l 1,2,-1
 1282 1098 l 1,3,-1
 1282 960 l 1,4,-1
 973 653 l 1,5,6
 1109 632 1109 632 1186 561 c 1,7,8
 1222 522 1222 522 1246 469 c 0,9,10
 1268 420 1268 420 1291 360 c 2,11,-1
 1424 0 l 1,12,-1
 1179 0 l 1,13,-1
 1028 356 l 2,14,15
 1005 408 1005 408 985 441 c 128,-1,16
 965 474 965 474 942.5 491 c 128,-1,17
 920 508 920 508 889 514 c 0,18,19
 864 520 864 520 828 521 c 1,20,-1
 828 0 l 1,21,-1
 604 0 l 1,22,-1
 604 521 l 1,23,24
 568 520 568 520 547.5 515.5 c 128,-1,25
 527 511 527 511 514 505 c 0,26,27
 475 488 475 488 447 443 c 0,28,29
 427 408 427 408 403 356 c 2,30,-1
 251 0 l 1,31,-1
 10 0 l 1,32,-1
 143 360 l 2,33,34
 164 419 164 419 186 469 c 128,-1,35
 208 519 208 519 245 560 c 1,36,37
 321 631 321 631 458 653 c 1,0,-1
911 884 m 1,38,-1
 522 884 l 1,39,-1
 715 661 l 1,40,-1
 911 884 l 1,38,-1
EndSplineSet
EndChar
StartChar: uni046C
Encoding: 1132 1132 1135
Width: 1229
GlyphClass: 2
Flags: W
LayerCount: 2
Fore
SplineSet
638 0 m 1,0,-1
 408 0 l 1,1,-1
 468 487 l 2,2,3
 477 568 477 568 487 623 c 0,4,5
 492 655 492 655 502 682 c 1,6,-1
 318 682 l 1,7,-1
 318 0 l 1,8,-1
 92 0 l 1,9,-1
 92 1462 l 1,10,-1
 318 1462 l 1,11,-1
 318 872 l 1,12,-1
 700 872 l 1,13,-1
 455 1294 l 1,14,-1
 455 1462 l 1,15,-1
 1461 1462 l 1,16,-1
 1461 1292 l 1,17,-1
 1198 854 l 1,18,19
 1261 844 1261 844 1296 823 c 0,20,21
 1344 792 1344 792 1372.5 740.5 c 128,-1,22
 1401 689 1401 689 1417 619 c 0,23,24
 1429 563 1429 563 1438 495 c 2,25,-1
 1501 0 l 1,26,-1
 1270 0 l 1,27,-1
 1188 475 l 2,28,29
 1175 548 1175 548 1164 593 c 0,30,31
 1148 663 1148 663 1115 682 c 0,32,33
 1110 685 1110 685 1099.5 689 c 128,-1,34
 1089 693 1089 693 1067 695 c 1,35,-1
 1067 0 l 1,36,-1
 843 0 l 1,37,-1
 843 695 l 1,38,39
 813 692 813 692 798 684 c 0,40,41
 763 665 763 665 746 594 c 0,42,43
 735 548 735 548 722 475 c 2,44,-1
 638 0 l 1,0,-1
1155 1238 m 1,45,-1
 755 1238 l 1,46,-1
 955 894 l 1,47,-1
 1155 1238 l 1,45,-1
EndSplineSet
EndChar
StartChar: uni046D
Encoding: 1133 1133 1136
Width: 1229
GlyphClass: 2
Flags: W
LayerCount: 2
Fore
SplineSet
540 459 m 1,0,-1
 345 459 l 1,1,-1
 345 0 l 1,2,-1
 123 0 l 1,3,-1
 123 1098 l 1,4,-1
 345 1098 l 1,5,-1
 345 673 l 1,6,-1
 726 673 l 1,7,-1
 500 964 l 1,8,-1
 500 1098 l 1,9,-1
 1459 1098 l 1,10,-1
 1459 961 l 1,11,-1
 1215 654 l 1,12,13
 1330 631 1330 631 1381 559 c 0,14,15
 1408 520 1408 520 1425 468.5 c 128,-1,16
 1442 417 1442 417 1456 357 c 2,17,-1
 1537 0 l 1,18,-1
 1312 0 l 1,19,-1
 1205 359 l 2,20,21
 1188 412 1188 412 1176 445 c 0,22,23
 1156 499 1156 499 1127 513 c 0,24,25
 1114 518 1114 518 1091 521 c 1,26,-1
 1091 0 l 1,27,-1
 870 0 l 1,28,-1
 870 521 l 1,29,30
 853 519 853 519 842 516 c 0,31,32
 826 510 826 510 814 496 c 0,33,34
 799 478 799 478 787 446 c 0,35,36
 773 412 773 412 757 359 c 2,37,-1
 646 0 l 1,38,-1
 424 0 l 1,39,-1
 505 353 l 2,40,41
 516 402 516 402 530 436 c 0,42,43
 535 448 535 448 540 459 c 1,0,-1
1127 884 m 1,44,-1
 829 884 l 1,45,-1
 979 668 l 1,46,-1
 1127 884 l 1,44,-1
EndSplineSet
EndChar
StartChar: uni046E
Encoding: 1134 1134 1137
Width: 1229
GlyphClass: 2
Flags: W
LayerCount: 2
Fore
SplineSet
382 -65 m 0,0,1
 367 -80 367 -80 367 -105 c 0,2,3
 367 -111 367 -111 368 -116 c 0,4,5
 369 -126 369 -126 373 -135 c 128,-1,6
 377 -144 377 -144 391 -152 c 0,7,8
 422 -173 422 -173 510 -173 c 0,9,10
 582 -173 582 -173 636 -171 c 0,11,12
 695 -169 695 -169 785 -165 c 128,-1,13
 875 -161 875 -161 931 -161 c 0,14,15
 1022 -161 1022 -161 1073 -174 c 128,-1,16
 1124 -187 1124 -187 1152 -204 c 2,17,-1
 1167 -213 l 1,18,-1
 1167 -478 l 1,19,-1
 1117 -435 l 2,20,21
 1112 -430 1112 -430 1098.5 -422.5 c 128,-1,22
 1085 -415 1085 -415 1061 -408 c 0,23,24
 1000 -389 1000 -389 910 -389 c 0,25,26
 856 -389 856 -389 817 -390 c 0,27,28
 665 -396 665 -396 608.5 -396.5 c 128,-1,29
 552 -397 552 -397 517.5 -397 c 128,-1,30
 483 -397 483 -397 455.5 -395.5 c 128,-1,31
 428 -394 428 -394 403 -392 c 0,32,33
 314 -382 314 -382 251 -348 c 0,34,35
 183 -313 183 -313 149 -251 c 0,36,37
 140 -234 140 -234 134 -215 c 0,38,39
 117 -163 117 -163 117 -99.5 c 128,-1,40
 117 -36 117 -36 145 19.5 c 128,-1,41
 173 75 173 75 229 114 c 0,42,43
 344 193 344 193 585 193 c 0,44,45
 767 193 767 193 851 255 c 0,46,47
 889 284 889 284 908 327 c 0,48,49
 927 372 927 372 927 431 c 0,50,51
 927 544 927 544 823 597 c 256,52,53
 719 650 719 650 522 650 c 2,54,-1
 285 650 l 1,55,-1
 285 861 l 1,56,-1
 506 861 l 2,57,58
 666 861 666 861 767 908 c 0,59,60
 841 942 841 942 873 999 c 0,61,62
 898 1041 898 1041 898 1089.5 c 128,-1,63
 898 1138 898 1138 880 1172 c 0,64,65
 843 1240 843 1240 750 1265 c 0,66,67
 702 1278 702 1278 643 1278 c 0,68,69
 482 1278 482 1278 351 1214 c 0,70,71
 313 1193 313 1193 276 1168 c 2,72,-1
 252 1152 l 1,73,-1
 126 1316 l 1,74,-1
 148 1333 l 2,75,76
 210 1381 210 1381 297 1418 c 0,77,78
 363 1446 363 1446 449 1463 c 1,79,80
 385 1533 385 1533 314 1611 c 2,81,-1
 262 1671 l 1,82,-1
 262 1682 l 1,83,-1
 262 1739 l 1,84,-1
 429 1739 l 1,85,86
 467 1716 467 1716 496.5 1694.5 c 128,-1,87
 526 1673 526 1673 550 1651 c 0,88,89
 596 1610 596 1610 642 1568 c 1,90,91
 661 1590 661 1590 681 1612 c 0,92,93
 756 1693 756 1693 842 1729 c 0,94,95
 890 1749 890 1749 944 1749 c 0,96,97
 1002 1749 1002 1749 1046 1733 c 2,98,-1
 1066 1726 l 1,99,-1
 1066 1539 l 1,100,-1
 1024 1559 l 2,101,102
 1016 1562 1016 1562 1002.5 1565 c 128,-1,103
 989 1568 989 1568 974.5 1568 c 128,-1,104
 960 1568 960 1568 940 1559 c 0,105,106
 895 1540 895 1540 847 1487 c 0,107,108
 837 1477 837 1477 829 1466 c 1,109,110
 896 1453 896 1453 949 1429 c 0,111,112
 1016 1396 1016 1396 1063 1348 c 0,113,114
 1156 1251 1156 1251 1156 1105 c 0,115,116
 1156 993 1156 993 1095 907 c 0,117,118
 1075 880 1075 880 1050 857 c 0,119,120
 990 801 990 801 898 769 c 1,121,122
 1008 738 1008 738 1077 676 c 0,123,124
 1156 605 1156 605 1176 500 c 0,125,126
 1183 466 1183 466 1183 431 c 128,-1,127
 1183 396 1183 396 1179 366 c 0,128,129
 1171 304 1171 304 1148 249 c 0,130,131
 1112 166 1112 166 1041 106 c 128,-1,132
 970 46 970 46 859 14 c 0,133,134
 745 -20 745 -20 595 -20 c 0,135,136
 426 -20 426 -20 382 -65 c 0,0,1
EndSplineSet
EndChar
StartChar: uni046F
Encoding: 1135 1135 1138
Width: 600
GlyphClass: 2
Flags: W
LayerCount: 2
Fore
SplineSet
405 644 m 0,0,1
 417 650 417 650 429 655 c 0,2,3
 454 665 454 665 479 665 c 0,4,5
 492 665 492 665 500.5 664 c 128,-1,6
 509 663 509 663 519 659 c 2,7,-1
 529 656 l 1,8,-1
 529 570 l 1,9,10
 505 575 505 575 500.5 576 c 128,-1,11
 496 577 496 577 490 577 c 128,-1,12
 484 577 484 577 479 575 c 0,13,14
 467 572 467 572 454 561 c 0,15,16
 440 550 440 550 424 533 c 1,17,18
 508 511 508 511 535 451 c 0,19,20
 545 427 545 427 545 396 c 0,21,22
 545 347 545 347 516 315 c 0,23,24
 499 296 499 296 472 283 c 1,25,26
 486 278 486 278 493 274 c 128,-1,27
 500 270 500 270 504 267 c 128,-1,28
 508 264 508 264 512 261 c 0,29,30
 539 240 539 240 553 208 c 0,31,32
 563 184 563 184 562.5 151 c 128,-1,33
 562 118 562 118 547.5 88 c 128,-1,34
 533 58 533 58 500.5 36.5 c 128,-1,35
 468 15 468 15 416 2 c 0,36,37
 361 -10 361 -10 284 -10 c 0,38,39
 212 -10 212 -10 189 -21 c 0,40,41
 182 -25 182 -25 181 -29 c 0,42,43
 179 -36 179 -36 178.5 -44 c 128,-1,44
 178 -52 178 -52 180.5 -57 c 128,-1,45
 183 -62 183 -62 188 -66 c 0,46,47
 195 -70 195 -70 210.5 -73 c 128,-1,48
 226 -76 226 -76 253 -76 c 128,-1,49
 280 -76 280 -76 298 -75.5 c 128,-1,50
 316 -75 316 -75 322 -75 c 128,-1,51
 328 -75 328 -75 334 -74.5 c 128,-1,52
 340 -74 340 -74 346 -74 c 0,53,54
 438 -71 438 -71 449 -71 c 256,55,56
 460 -71 460 -71 468 -71 c 128,-1,57
 476 -71 476 -71 486 -71 c 0,58,59
 539 -74 539 -74 556 -97 c 2,60,-1
 559 -101 l 1,61,-1
 559 -214 l 1,62,-1
 534 -189 l 2,63,64
 531 -186 531 -186 524 -184 c 0,65,66
 510 -178 510 -178 487 -175 c 0,67,68
 477 -174 477 -174 464 -174 c 0,69,70
 453 -174 453 -174 372 -176 c 2,71,-1
 310 -177 l 2,72,73
 277 -178 277 -178 243 -178 c 0,74,75
 188 -178 188 -178 155.5 -166.5 c 128,-1,76
 123 -155 123 -155 104 -136 c 0,77,78
 84 -116 84 -116 77 -92 c 128,-1,79
 70 -68 70 -68 70 -42.5 c 128,-1,80
 70 -17 70 -17 79.5 8 c 128,-1,81
 89 33 89 33 112.5 51.5 c 128,-1,82
 136 70 136 70 174 81 c 0,83,84
 215 91 215 91 278 91 c 0,85,86
 388 91 388 91 425 117 c 0,87,88
 440 127 440 127 444 141 c 0,89,90
 446 149 446 149 446 156.5 c 128,-1,91
 446 164 446 164 446 168 c 0,92,93
 442 194 442 194 413 208 c 0,94,95
 394 217 394 217 363.5 222 c 128,-1,96
 333 227 333 227 291 227 c 2,97,-1
 192 227 l 1,98,-1
 192 331 l 1,99,-1
 275 331 l 2,100,101
 307 331 307 331 336 333 c 0,102,103
 395 338 395 338 418 361 c 0,104,105
 429 372 429 372 430 393 c 0,106,107
 430 406 430 406 424 415 c 0,108,109
 411 437 411 437 363 445 c 0,110,111
 340 449 340 449 308 449 c 0,112,113
 266 449 266 449 228 441 c 256,114,115
 189 433 189 433 149 417 c 2,116,-1
 136 412 l 1,117,-1
 94 504 l 1,118,-1
 107 510 l 2,119,120
 158 531 158 531 210 539 c 1,121,122
 188 565 188 565 167 588.5 c 128,-1,123
 146 612 146 612 132 626 c 1,124,-1
 132 660 l 1,125,-1
 212 660 l 1,126,127
 247 640 247 640 277 616 c 0,128,129
 299 597 299 597 323 576 c 1,130,131
 333 587 333 587 343 597 c 0,132,133
 374 627 374 627 405 644 c 0,0,1
EndSplineSet
Validated: 33
EndChar
